<svg id="car-sport-sharp" xmlns="http://www.w3.org/2000/svg" viewBox="0 0 21.839 14.559">
  <path id="Trazado_508" data-name="Trazado 508" d="M22.975,14.824a7.04,7.04,0,0,0-1.484-.809c.234-.121.394-.146.394-.647,0-.546,0-.728-.367-.728H20.284l-.015-.034c-.8-1.741-.9-2.181-2.093-2.773C16.581,9.04,13.591,9,12.419,9s-4.162.04-5.755.833c-1.19.591-1.161.9-2.093,2.773a.174.174,0,0,1-.018.034H3.317c-.361,0-.364.182-.364.728,0,.5.16.525.394.647a12.971,12.971,0,0,0-1.484.809c-.182.182-.364,1.456-.364,3.64s.182,4.368.182,4.368h.543c0,.637.094.728.367.728h3.64c.273,0,.364-.091.364-.728H18.243c0,.637.091.728.364.728h3.731c.182,0,.273-.136.273-.728h.546s.182-2.229.182-4.368A11.716,11.716,0,0,0,22.975,14.824Zm-16.5,2.045a23.52,23.52,0,0,1-2.5.139c-.929,0-.961.06-1.026-.52a3.283,3.283,0,0,1,.023-.8L3,15.552h.136a6.274,6.274,0,0,1,2.027.308,4.459,4.459,0,0,1,1.369.685.656.656,0,0,1,.244.28Zm11.245,3.276-.2.5H7.324s.018-.028-.227-.509c-.182-.356.045-.583.405-.712a15.138,15.138,0,0,1,4.918-.963,12.883,12.883,0,0,1,4.937.963c.25.129.561.22.36.721ZM6.023,13.932a4.377,4.377,0,0,1-.441,0c.119-.211.185-.446.3-.692A4.008,4.008,0,0,1,7.4,11.226a13.723,13.723,0,0,1,5.015-.773,13.684,13.684,0,0,1,5.015.773,4.02,4.02,0,0,1,1.521,2.018c.117.248.182.485.3.7-.091.005-.2,0-.445-.009Zm15.82,2.553c-.1.568-.006.522-.981.522a23.52,23.52,0,0,1-2.5-.139.2.2,0,0,1-.063-.323,4.269,4.269,0,0,1,1.369-.685,5.9,5.9,0,0,1,2.051-.3.147.147,0,0,1,.141.136,3.193,3.193,0,0,1-.022.795Z" transform="translate(-1.5 -9)" fill="#666b72"/>
</svg>
