<svg xmlns="http://www.w3.org/2000/svg" width="20.5" height="20.16" viewBox="0 0 20.5 20.16">
  <g id="home_outline" transform="translate(0 -0.797)">
    <path id="Trazado_893" data-name="Trazado 893" d="M13.82,20.887a5.133,5.133,0,0,0,1.214.07,10.275,10.275,0,0,0,2.428-.14,4.1,4.1,0,0,0,2.9-2.9,10.275,10.275,0,0,0,.14-2.428V11.25c0-2.268,0-3.4-.532-4.342s-1.5-1.523-3.449-2.69l-4.16-2.5A4.511,4.511,0,0,0,10.25.8a4.511,4.511,0,0,0-2.109.925l-4.16,2.5C2.037,5.385,1.064,5.968.532,6.908S0,8.982,0,11.25V15.49a10.275,10.275,0,0,0,.14,2.428,4.1,4.1,0,0,0,2.9,2.9,10.274,10.274,0,0,0,2.428.14,5.133,5.133,0,0,0,1.214-.07,2.05,2.05,0,0,0,1.45-1.45,5.137,5.137,0,0,0,.07-1.214V16.857c0-.966,0-1.45.3-1.75s.783-.3,1.75-.3,1.45,0,1.75.3.3.783.3,1.75v1.367a5.141,5.141,0,0,0,.07,1.214A2.05,2.05,0,0,0,13.82,20.887ZM10.25,2.335h0l-.024.005a1.267,1.267,0,0,0-.2.08c-.241.113-.55.3-1.09.621l-4.16,2.5c-1,.6-1.651.993-2.13,1.347a2.559,2.559,0,0,0-.772.782A2.559,2.559,0,0,0,1.6,8.73c-.058.593-.059,1.357-.059,2.52V15.49a9.561,9.561,0,0,0,.087,2.03,2.563,2.563,0,0,0,1.812,1.812,9.563,9.563,0,0,0,2.03.087c.332,0,.529,0,.677-.007a1.331,1.331,0,0,0,.144-.012.512.512,0,0,0,.356-.356,1.345,1.345,0,0,0,.012-.144c.007-.148.007-.346.007-.678V16.857c0-.023,0-.047,0-.071a9.95,9.95,0,0,1,.051-1.259,2.416,2.416,0,0,1,2.207-2.207,9.932,9.932,0,0,1,1.259-.051h.141a9.931,9.931,0,0,1,1.259.051,2.416,2.416,0,0,1,2.207,2.207,9.931,9.931,0,0,1,.051,1.259v1.437c0,.332,0,.529.007.678a1.334,1.334,0,0,0,.012.144.512.512,0,0,0,.356.356,1.334,1.334,0,0,0,.144.012c.148.007.346.007.678.007a9.562,9.562,0,0,0,2.03-.087,2.563,2.563,0,0,0,1.812-1.812,9.562,9.562,0,0,0,.087-2.03V11.25c0-1.163,0-1.927-.059-2.52a2.56,2.56,0,0,0-.273-1.064,2.559,2.559,0,0,0-.772-.782c-.479-.355-1.133-.749-2.13-1.347l-4.16-2.5c-.54-.324-.849-.507-1.09-.621a1.27,1.27,0,0,0-.2-.08l-.024-.005Z" fill="#666b72" fill-rule="evenodd"/>
  </g>
</svg>
