<svg id="megaphone" xmlns="http://www.w3.org/2000/svg" width="21.738" height="19.157" viewBox="0 0 21.738 19.157">
  <g id="Grupo_16366" data-name="Grupo 16366" transform="translate(0 0)">
    <path id="Trazado_513" data-name="Trazado 513" d="M17.662,5.038a2.038,2.038,0,0,1,4.076,0V19.983a2.038,2.038,0,0,1-4.076,0v-.291a23.1,23.1,0,0,0-9.391-2.83l.55,3.685a1.359,1.359,0,0,1-1.336,1.61H6.742A1.359,1.359,0,0,1,5.5,21.343L2.984,16.6l-.274,0A2.736,2.736,0,0,1,0,13.869V11.152A2.744,2.744,0,0,1,2.706,8.417q1.688-.023,3.374-.1A26.819,26.819,0,0,0,17.662,5.327Zm1.359,0V19.983a.679.679,0,1,0,1.359,0V5.038a.679.679,0,1,0-1.359,0ZM17.662,6.872A28.505,28.505,0,0,1,6.793,9.634v5.751q.367.02.73.049a25.405,25.405,0,0,1,10.14,2.708ZM5.435,15.316V9.7q-1.353.05-2.706.071a1.386,1.386,0,0,0-1.37,1.376v2.717A1.379,1.379,0,0,0,2.725,15.24q1.355.016,2.709.076Zm-.893,1.325,2.186,4.126.014.033h.745l0-.019-.6-4.03q-1.169-.071-2.34-.111Z" transform="translate(0 -3)" fill="#666b72"/>
  </g>
</svg>
