<svg id="my-chats" xmlns="http://www.w3.org/2000/svg" width="20.732" height="19.923" viewBox="0 0 20.732 19.923">
  <path id="Trazado_220" data-name="Trazado 220" d="M6.327,3.252a11.264,11.264,0,0,1,7.2-1.331,10.638,10.638,0,0,1,6.383,3.349,8.828,8.828,0,0,1,2.3,6.437,8.969,8.969,0,0,1-2.708,5.831l.256,3.154a.952.952,0,0,1-1.284.969l-3.813-1.43a10.227,10.227,0,0,1-6.615-.306A10.05,10.05,0,0,1,2.6,15.4a8.6,8.6,0,0,1-.709-6.75A9.531,9.531,0,0,1,6.327,3.252Zm6.927.554a9.359,9.359,0,0,0-5.98,1.1A7.629,7.629,0,0,0,3.707,9.212a6.7,6.7,0,0,0,.557,5.264A8.147,8.147,0,0,0,8.7,18.133a8.3,8.3,0,0,0,5.7.188.952.952,0,0,1,.632.013l2.713,1.018-.172-2.115a.953.953,0,0,1,.313-.786,7.117,7.117,0,0,0,2.429-4.858A6.925,6.925,0,0,0,18.5,6.542,8.735,8.735,0,0,0,13.253,3.806Z" transform="translate(-1.5 -1.8)" fill="#666b72" fill-rule="evenodd"/>
  <path id="Trazado_221" data-name="Trazado 221" d="M5.834,7.911a.952.952,0,0,1,.952-.952h6.847a.952.952,0,1,1,0,1.9H6.786A.952.952,0,0,1,5.834,7.911Z" transform="translate(0.156 0.171)" fill="#666b72"/>
  <path id="Trazado_222" data-name="Trazado 222" d="M5.834,10.519a.952.952,0,0,1,.952-.952h4.273a.952.952,0,0,1,0,1.9H6.786A.952.952,0,0,1,5.834,10.519Z" transform="translate(0.156 1.168)" fill="#666b72"/>
</svg>
