<svg xmlns="http://www.w3.org/2000/svg" width="18.062" height="22.988" viewBox="0 0 18.062 22.988">
  <path id="Unión_1" data-name="Unión 1" d="M2.1,14.82q-.144-.184-.285-.37A9.027,9.027,0,1,1,18.062,9.031a8.935,8.935,0,0,1-1.819,5.416v0s-.246.324-.283.367L9.031,22.988Zm1.261-1.053,5.666,6.682L14.7,13.758c.036-.045.228-.3.229-.3A7.31,7.31,0,0,0,16.42,9.031a7.389,7.389,0,1,0-14.778,0A7.311,7.311,0,0,0,3.13,13.46h0S3.322,13.713,3.365,13.767Zm8.128-.631V6.568H6.568v6.568H4.926V6.568A1.644,1.644,0,0,1,6.568,4.926h4.926a1.644,1.644,0,0,1,1.642,1.642v6.568Zm-3.284,0V11.494H9.852v1.642Zm0-3.284V8.21H9.852V9.852Z" transform="translate(0)" fill="#666b72"/>
</svg>
