<svg xmlns="http://www.w3.org/2000/svg" width="23.84" height="23.84" viewBox="0 0 23.84 23.84">
  <g id="button.settings" transform="translate(1 1)">
    <circle id="Elipse_83" data-name="Elipse 83" cx="2.978" cy="2.978" r="2.978" transform="translate(7.942 7.942)" fill="none" stroke="#666b72" stroke-width="2"/>
    <path id="Trazado_69" data-name="Trazado 69" d="M19.266,14.9a1.638,1.638,0,0,0,.328,1.807l.06.06a1.987,1.987,0,1,1-2.809,2.809l-.06-.06a1.651,1.651,0,0,0-2.8,1.171v.169a1.985,1.985,0,0,1-3.971,0v-.089a1.638,1.638,0,0,0-1.072-1.5,1.638,1.638,0,0,0-1.807.328l-.06.06a1.987,1.987,0,1,1-2.809-2.809l.06-.06a1.651,1.651,0,0,0-1.171-2.8H2.985a1.985,1.985,0,1,1,0-3.971h.089a1.638,1.638,0,0,0,1.5-1.072,1.638,1.638,0,0,0-.328-1.807l-.06-.06A1.987,1.987,0,1,1,7,4.266l.06.06a1.638,1.638,0,0,0,1.807.328h.079a1.638,1.638,0,0,0,.993-1.5V2.985a1.985,1.985,0,1,1,3.971,0v.089a1.651,1.651,0,0,0,2.8,1.171l.06-.06A1.987,1.987,0,1,1,19.574,7l-.06.06a1.638,1.638,0,0,0-.328,1.807v.079a1.638,1.638,0,0,0,1.5.993h.169a1.985,1.985,0,1,1,0,3.971h-.089A1.638,1.638,0,0,0,19.266,14.9Z" transform="translate(-1 -1)" fill="none" stroke="#666b72" stroke-width="2"/>
  </g>
</svg>
