<svg xmlns="http://www.w3.org/2000/svg" viewBox="0 0 23.198 28.494">
  <path id="_866aef4d3e823631589650748782f7f7" data-name="866aef4d3e823631589650748782f7f7" d="M19.646,6.545A6.24,6.24,0,0,0,21.156,2a6.325,6.325,0,0,0-4.274,2.165,5.941,5.941,0,0,0-1.425,4.4,5.257,5.257,0,0,0,4.188-2.023Zm3.59,10.6a6.425,6.425,0,0,1,3.077-5.428A6.639,6.639,0,0,0,21.1,8.867c-2.222-.228-4.274,1.3-5.456,1.3s-2.849-1.268-4.7-1.239a7.009,7.009,0,0,0-5.9,3.6C2.537,16.887,4.4,23.369,6.91,26.888c1.14,1.724,2.564,3.676,4.445,3.6s2.493-1.168,4.673-1.168,2.849,1.168,4.7,1.125,3.163-1.767,4.359-3.49a15.671,15.671,0,0,0,1.966-4.06A6.283,6.283,0,0,1,23.236,17.144Z" transform="translate(-3.856 -2)"/>
</svg>
