<svg xmlns="http://www.w3.org/2000/svg" viewBox="0 0 27.924 28.494">
  <g id="Grupo_507" data-name="Grupo 507" transform="translate(-681 -610.461)">
    <path id="Trazado_13" data-name="Trazado 13" d="M144.461,109.724a12.417,12.417,0,0,0-.306-2.963H130.55v5.378h7.986a7.082,7.082,0,0,1-2.963,4.7l-.027.18,4.3,3.333.3.03a14.168,14.168,0,0,0,4.315-10.659" transform="translate(564.463 515.062)" fill="#4285f4"/>
    <path id="Trazado_14" data-name="Trazado 14" d="M26.87,168a13.812,13.812,0,0,0,9.6-3.51l-4.573-3.542a8.577,8.577,0,0,1-5.024,1.449,8.724,8.724,0,0,1-8.244-6.022l-.17.014-4.473,3.462-.058.163A14.481,14.481,0,0,0,26.87,168" transform="translate(668.621 470.96)" fill="#34a853"/>
    <path id="Trazado_15" data-name="Trazado 15" d="M6.247,80.753a8.921,8.921,0,0,1-.483-2.866,9.374,9.374,0,0,1,.467-2.866l-.008-.192L1.694,71.312l-.148.07a14.461,14.461,0,0,0,0,13.01l4.7-3.639" transform="translate(681 546.821)" fill="#fbbc05"/>
    <path id="Trazado_16" data-name="Trazado 16" d="M26.6,5.6a7.776,7.776,0,0,1,5.485,2.158l4-3.993A13.473,13.473,0,0,0,26.6,0,14.148,14.148,0,0,0,13.925,7.986l4.586,3.639A8.6,8.6,0,0,1,26.6,5.6" transform="translate(668.621 610.461)" fill="#eb4335"/>
  </g>
</svg>
