<svg xmlns="http://www.w3.org/2000/svg" viewBox="0 0 35.521 16.273">
  <g id="Group_340" data-name="Group 340" transform="translate(0)">
    <path id="Path_100" data-name="Path 100" d="M-670.276-164.271c2.245.252,4.26.416,6.253.723a4.458,4.458,0,0,1,3.5,2.456,2.48,2.48,0,0,1,.164.419c.041.144.059.294.089.454a1.528,1.528,0,0,0,.3.229,1.954,1.954,0,0,1,1.155,1.8c.031.3,0,.6.014.9a1.726,1.726,0,0,1-.642,1.414,8.042,8.042,0,0,0-.719.881,3.913,3.913,0,0,1-1.721.056.555.555,0,0,1-.506-.6c.238-.653.819-.648,1.309-.665.273-.228.488-.422.718-.6a.586.586,0,0,0,.277-.547c-.043-.447-.091-.894-.14-1.38l-.965-.352a6.71,6.71,0,0,1-.274-.825,2.965,2.965,0,0,0-2.39-2.337,13.93,13.93,0,0,0-2.156-.38c-.876-.1-1.76-.106-2.639-.185-.747-.067-1.491-.181-2.161-.265-.608-.62-1.129-1.217-1.719-1.737a9.91,9.91,0,0,0-3.979-2.287,17.061,17.061,0,0,0-4.065-.591c-1.379-.031-2.759-.035-4.136,0-1.547.044-3.091.151-4.637.224a1.04,1.04,0,0,0-.843.622c-.4.662-.746,1.357-1.165,2a4.567,4.567,0,0,0-.833,2.719,14.36,14.36,0,0,1-.115,1.595l2.063.065.319.559c-.1.191-.2.375-.325.6h-2.452c-.111.656-.215,1.258-.327,1.922.4.2.8.4,1.2.595a1.258,1.258,0,0,0,.123.041.744.744,0,0,1,.564.636c.021.362-.26.511-.643.66-.7-.309-1.467-.639-2.223-.986a.518.518,0,0,1-.308-.586c.076-.486.175-.97.246-1.458.047-.318.038-.645.1-.961a2.544,2.544,0,0,1,.265-.842,1.707,1.707,0,0,0,.246-.851c.032-.794.05-1.591.136-2.381a2.753,2.753,0,0,1,.348-1.018c.512-.92,1.063-1.816,1.6-2.721.088-.147.188-.288.272-.44a2.049,2.049,0,0,1,1.8-1.066c3.421-.215,6.846-.176,10.267-.1a16.528,16.528,0,0,1,2.831.559,9.523,9.523,0,0,1,3.76,1.912,22.169,22.169,0,0,1,1.862,1.681A2.219,2.219,0,0,1-670.276-164.271Z" transform="translate(694.315 168.905)"/>
    <path id="Path_101" data-name="Path 101" d="M-662.811-150.317c0-.834-.014-1.564.008-2.292a1.986,1.986,0,0,1,.168-.738.491.491,0,0,1,.585-.3.594.594,0,0,1,.489.462,2.95,2.95,0,0,1,.04.577c0,.728,0,1.458,0,2.25.29.016.519.038.746.038q3.781,0,7.562,0c.294,0,.588.035.939.058a4.741,4.741,0,0,1,.066.737.537.537,0,0,1-.5.51,1.214,1.214,0,0,1-.387.01,18.4,18.4,0,0,0-2.373,0c-5.144-.228-10.29-.06-15.435-.114a1.387,1.387,0,0,1-.448-.038.558.558,0,0,1-.418-.582.541.541,0,0,1,.457-.548,2.879,2.879,0,0,1,.579-.027h7.919Z" transform="translate(674.684 155.633)"/>
    <path id="Path_102" data-name="Path 102" d="M-660.63-100.8a3.726,3.726,0,0,1,3.729,3.721,3.691,3.691,0,0,1-3.667,3.738,3.706,3.706,0,0,1-3.809-3.68A3.747,3.747,0,0,1-660.63-100.8Zm.084,1.295a2.32,2.32,0,0,0-2.556,2.379,2.373,2.373,0,0,0,2.465,2.521,2.367,2.367,0,0,0,2.457-2.434A2.311,2.311,0,0,0-660.546-99.5Z" transform="translate(668.25 109.606)"/>
    <path id="Path_103" data-name="Path 103" d="M-501.2-97.068a3.653,3.653,0,0,1-3.624,3.743,3.653,3.653,0,0,1-3.765-3.7,3.665,3.665,0,0,1,3.68-3.766A3.667,3.667,0,0,1-501.2-97.068Zm-3.7-2.425a2.29,2.29,0,0,0-2.412,2.425,2.053,2.053,0,0,0,.573,1.639,2.525,2.525,0,0,0,1.825.846,2.437,2.437,0,0,0,2.513-2.476A2.36,2.36,0,0,0-504.9-99.493Z" transform="translate(532.613 109.597)"/>
    <path id="Path_104" data-name="Path 104" d="M-601.12-69.89c.169-.574.6-.687,1.111-.685q3.228.008,6.456,0c.947,0,1.893-.012,2.84.008a2.024,2.024,0,0,1,.737.169.533.533,0,0,1,.3.591.521.521,0,0,1-.463.468,2.409,2.409,0,0,1-.511.048q-4.712,0-9.426,0C-600.543-69.288-600.995-69.31-601.12-69.89Z" transform="translate(613.174 83.294)"/>
    <path id="Path_105" data-name="Path 105" d="M-592.16-109.419c-.3,0-.6.022-.9-.005a.649.649,0,0,1-.63-.679.551.551,0,0,1,.577-.573,14.92,14.92,0,0,1,1.862,0,.677.677,0,0,1,.66.665.757.757,0,0,1-.732.6c-.278.016-.557,0-.836,0A.014.014,0,0,1-592.16-109.419Z" transform="translate(606.705 118.232)"/>
    <path id="Path_106" data-name="Path 106" d="M-646.185-80.7c-.445-.182-.992-.2-1.226-.724-.145-.326-.375-.639-.255-1.032a1.552,1.552,0,0,1,1.6-1.3,1.612,1.612,0,0,1,1.45,1.408C-644.482-81.644-645.142-80.988-646.185-80.7Z" transform="translate(653.729 94.771)"/>
    <path id="Path_107" data-name="Path 107" d="M-490.135-80.69a2.5,2.5,0,0,1-1.171-.631,1.559,1.559,0,0,1,.025-1.95,1.488,1.488,0,0,1,1.852-.347,1.461,1.461,0,0,1,.34,2.459.645.645,0,0,1-.207.147C-489.573-80.9-489.853-80.8-490.135-80.69Z" transform="translate(517.85 94.808)"/>
  </g>
</svg>
