<svg xmlns="http://www.w3.org/2000/svg" viewBox="0 0 34.667 12.621">
  <g id="Group_358" data-name="Group 358" transform="translate(0)">
    <g id="Group_353" data-name="Group 353">
      <path id="Path_28" data-name="Path 28" d="M918.259,683.415c-.547-.251-1.074-.507-1.612-.736-.633-.271-1.275-.52-1.914-.778a1.4,1.4,0,0,0-.168-.057c-.567-.145-1.132-.3-1.7-.428a10.57,10.57,0,0,0-3.35-.231,20.9,20.9,0,0,0-3.181.671,9.887,9.887,0,0,0-1.362.56q-1.115.478-2.228.961c-.18.077-.357.161-.529.251a4.325,4.325,0,0,1-2.606.275c-.782-.09-1.57-.121-2.4-.182a1.592,1.592,0,0,0,.483.849,1.249,1.249,0,0,1,.237,1.473,8.883,8.883,0,0,0-.472,1.276,1.375,1.375,0,0,0,.132,1.249c.226.315.414.658.621.992.3,0,.532,0,.767,0,.743.01.908.224.72,1.024a3.827,3.827,0,0,1-.566.155c-.214.029-.439-.017-.653.012a1.242,1.242,0,0,1-1.41-.823c-.183-.393-.425-.757-.63-1.138a2.1,2.1,0,0,1-.042-1.836c.182-.478.326-.972.492-1.474l-1.585-2.341c.1-.221.17-.38.253-.565a3.4,3.4,0,0,1,.534-.05c1.025.065,2.05.142,3.075.215a11.254,11.254,0,0,0,1.713.1,4.142,4.142,0,0,0,1.227-.42c.959-.416,1.888-.905,2.865-1.272a15.368,15.368,0,0,1,4.819-1.14,13.216,13.216,0,0,1,2.593.134c.349.055.721,0,1.059.089a9.549,9.549,0,0,1,2.886,1.009.6.6,0,0,0,.278.093,3.1,3.1,0,0,1,1.591.733c.5.356,1.011.691,1.441.983.944-.051,1.812-.161,2.674-.132a9.639,9.639,0,0,1,6.274,2.448c.365.325.66.726,1.018,1.059a1.166,1.166,0,0,1,.359.906c.01.872.013,1.744,0,2.616-.008.621-.2.791-.839.8q-.624.011-1.249,0c-.7-.01-.86-.222-.705-.936.428-.451,1.024-.127,1.562-.321a3.665,3.665,0,0,0,.055-.434c.008-.376-.03-.757.011-1.129a1.638,1.638,0,0,0-.63-1.457,8.588,8.588,0,0,0-2.88-1.83,9.691,9.691,0,0,0-4.555-.495,11.26,11.26,0,0,0-3.139.984,6.4,6.4,0,0,1-2.753.635c-1.824-.03-3.647.013-5.47-.026a5.306,5.306,0,0,1-2.857-1.044,12.914,12.914,0,0,1-1.078-.922.61.61,0,0,1-.145-.767l.6-.295a5.784,5.784,0,0,0,4.762,1.928c-.18-.733-.351-1.43-.531-2.161l.283-.506h.564c.632.746.512,1.756.893,2.591C913.446,685.1,917.413,684.42,918.259,683.415Z" transform="translate(-895.3 -679.994)"/>
      <path id="Path_49" data-name="Path 49" d="M1107.353,733.485a3.347,3.347,0,0,1-3.352,3.349,3.324,3.324,0,1,1,3.352-3.349Zm-5.477.006a2.1,2.1,0,0,0,2.222,2.17,2.139,2.139,0,0,0,2.089-2.151,2.1,2.1,0,0,0-2.156-2.195A2.069,2.069,0,0,0,1101.876,733.491Z" transform="translate(-1076.264 -724.214)"/>
      <path id="Path_50" data-name="Path 50" d="M936.77,733.551a3.346,3.346,0,0,1,3.343-3.351,3.321,3.321,0,0,1,.025,6.641A3.358,3.358,0,0,1,936.77,733.551Zm5.474.006a2.049,2.049,0,0,0-2.131-2.241,2.184,2.184,0,1,0,0,4.366A2.078,2.078,0,0,0,942.245,733.557Z" transform="translate(-931.837 -724.228)"/>
      <path id="Path_80" data-name="Path 80" d="M996.74,761.347l.2-.412c.445-.136,9.637-.232,10.76-.117a2.707,2.707,0,0,1,.47.131c.226.727-.012,1.055-.739,1.056q-4.45.007-8.9,0c-.277,0-.554-.016-.83,0A.84.84,0,0,1,996.74,761.347Z" transform="translate(-984.673 -751.159)"/>
      <path id="Path_112" data-name="Path 112" d="M1118.278,749.039a1.356,1.356,0,0,1-1.342-1.37,1.413,1.413,0,0,1,1.424-1.381,1.367,1.367,0,0,1,1.316,1.4A1.329,1.329,0,0,1,1118.278,749.039Z" transform="translate(-1090.571 -738.401)"/>
      <path id="Path_113" data-name="Path 113" d="M956.273,747.873a1.369,1.369,0,0,1-1.323,1.375,1.4,1.4,0,0,1-1.319-1.4,1.313,1.313,0,0,1,1.319-1.328A1.259,1.259,0,0,1,956.273,747.873Z" transform="translate(-946.689 -738.606)"/>
    </g>
  </g>
</svg>
