<svg xmlns="http://www.w3.org/2000/svg"  viewBox="0 0 33.685 14.389">
  <g id="Group_344" data-name="Group 344" transform="translate(0)">
    <path id="Path_148" data-name="Path 148" d="M-687.8,115.062l-.337-.435.389-.611,1.106-.282a13.107,13.107,0,0,0-.277-3.843,1.406,1.406,0,0,0-.362-.146c-1.169-.148-2.339-.277-3.509-.425-.759-.1-1.515-.224-2.275-.322a6.459,6.459,0,0,0-.932-.047,1.272,1.272,0,0,1-.984-.443q-1.1-1.135-2.242-2.232c-.6-.572-1.221-1.116-1.883-1.718l-16.435.178c-.46.763-.913,1.5-1.349,2.247-.229.392-.411.813-.656,1.195a1.539,1.539,0,0,0-.226.882c.006,1.454,0,2.907,0,4.412a2.114,2.114,0,0,0,.431.287,10.008,10.008,0,0,0,1.3.409,7.37,7.37,0,0,0,1.23.141c.731.035.894.258.677,1.014-.057.031-.127.1-.2.1a4.813,4.813,0,0,1-2.439-.257,10.832,10.832,0,0,0-1.531-.486c-.6-.177-.745-.337-.731-.968q.056-2.677.141-5.352a1.162,1.162,0,0,1,.157-.521c.739-1.293,1.5-2.578,2.237-3.871a.7.7,0,0,1,.7-.413c.145.009.29,0,.436,0q4.3-.052,8.6-.109c2.324-.034,4.649-.042,6.971-.14a2.555,2.555,0,0,1,2,.783c1.164,1.12,2.308,2.26,3.493,3.356a1.688,1.688,0,0,0,.9.342c1.314.162,2.636.259,3.948.426.964.123,1.918.321,2.878.481a.938.938,0,0,1,.912.979c.022.6.126,1.193.181,1.791s.115,1.2.131,1.8a1.6,1.6,0,0,1-1.566,1.791A8.141,8.141,0,0,1-687.8,115.062Z" transform="translate(719.037 -103.307)"/>
    <path id="Path_149" data-name="Path 149" d="M-698.743,121.226V119.62c0-.166-.007-.333,0-.5.039-.637.4-.847,1.058-.571a7.46,7.46,0,0,1,.155,2.636h4.08c.016-.183.042-.362.045-.541.006-.52-.006-1.039.006-1.559.011-.468.238-.726.595-.712s.54.244.552.69c.014.478.005.956.005,1.434v.688c1.482.077,2.922.027,4.437.031v-2.478a2.9,2.9,0,0,1,.292-.248,2.5,2.5,0,0,1,.32-.141l.561.322v2.512c.253.017.434.04.615.04,1.226,0,2.453,0,3.679,0a3.914,3.914,0,0,1,.436.007.627.627,0,0,1,.594.54c.021.294-.227.546-.6.6a2.871,2.871,0,0,1-.374.01h-18.893a2.808,2.808,0,0,1-.435-.014.554.554,0,0,1-.515-.592.546.546,0,0,1,.508-.536,6.778,6.778,0,0,1,.747-.011C-700.189,121.224-699.508,121.226-698.743,121.226Z" transform="translate(704.236 -116.474)"/>
    <path id="Path_150" data-name="Path 150" d="M-667.673,170.442a3.169,3.169,0,0,1-3.225,3.15,3.154,3.154,0,0,1-3.153-3.165,3.259,3.259,0,0,1,3.266-3.259A3.278,3.278,0,0,1-667.673,170.442Zm-3.237,1.9a1.946,1.946,0,0,0,2.076-1.918,2.043,2.043,0,0,0-2-2.044,2.025,2.025,0,0,0-2.008,1.935A1.9,1.9,0,0,0-670.911,172.344Z" transform="translate(679.661 -159.205)"/>
    <path id="Path_151" data-name="Path 151" d="M-521.549,170.464a3.154,3.154,0,0,1-3.155,3.211,3.194,3.194,0,0,1-3.21-3.131,3.32,3.32,0,0,1,3.224-3.265A3.245,3.245,0,0,1-521.549,170.464Zm-5.129.027a1.905,1.905,0,0,0,2.009,1.954,1.989,1.989,0,0,0,1.974-1.96,2.038,2.038,0,0,0-2.044-1.969A2,2,0,0,0-526.678,170.492Z" transform="translate(551.749 -159.301)"/>
    <path id="Path_152" data-name="Path 152" d="M-616.9,192.532c-.015-.243-.029-.479-.039-.652a1.028,1.028,0,0,1,.958-.358h6.6c.685,0,1.369.009,2.054-.005a.8.8,0,0,1,.852.576c-.066.142-.151.323-.221.474C-607.325,192.724-616.3,192.709-616.9,192.532Z" transform="translate(629.672 -180.517)"/>
    <path id="Path_153" data-name="Path 153" d="M-584.073,159.05l-.292.55c-.69,0-1.388.022-2.085,0-.316-.012-.428-.284-.48-.569a.671.671,0,0,1,.762-.569c.414,0,.827.011,1.241,0A.81.81,0,0,1-584.073,159.05Z" transform="translate(603.405 -151.575)"/>
    <path id="Path_154" data-name="Path 154" d="M-657.151,182.845c.1,1.094-.257,1.717-1.061,1.914a1.493,1.493,0,0,1-1.576-1.031,1.334,1.334,0,0,1,.687-1.56A1.405,1.405,0,0,1-657.151,182.845Z" transform="translate(667.234 -172.176)"/>
    <path id="Path_155" data-name="Path 155" d="M-510.325,183.67a1.408,1.408,0,0,1-1.352,1.418,1.512,1.512,0,0,1-1.293-1.437,1.278,1.278,0,0,1,1.347-1.318A1.236,1.236,0,0,1-510.325,183.67Z" transform="translate(538.669 -172.477)"/>
  </g>
</svg>
