<svg id="Group_352" data-name="Group 352" xmlns="http://www.w3.org/2000/svg" viewBox="0 0 35.532 15.8">
  <path id="Path_35" data-name="Path 35" d="M935.029-70.417c.035.493.093.944.092,1.393a21.514,21.514,0,0,1-.079,2.592c-.144,1.155-1.054,1.268-1.826,1.158a.488.488,0,0,1-.419-.472.663.663,0,0,1,.456-.6,5.365,5.365,0,0,1,.577-.124,3.162,3.162,0,0,0,.082-.478c.009-.8-.011-1.61.011-2.415a.761.761,0,0,0-.531-.806,22.846,22.846,0,0,0-4.141-1.186c-.585-.121-1.166-.246-1.75-.371a.631.631,0,0,0-.119-.032c-.961.009-1.539-.675-2.21-1.2-.7-.545-1.412-1.066-2.125-1.589a19.884,19.884,0,0,0-3.465-1.992,1.922,1.922,0,0,0-.775-.137c-1.836-.012-3.673-.011-5.509-.009-1.548,0-3.1,0-4.642.024a8.781,8.781,0,0,0-.979.114c-.674.083-1.346.172-2.02.248-.817.092-1.636.173-2.454.255a.52.52,0,0,0-.464.353c-.094.25-.181.5-.25.762q-.358,1.335-.7,2.677a2.658,2.658,0,0,0-.078.608c-.009.743-.027,1.487.005,2.228.022.518-.087.9-.656,1.005-.054.01-.1.069-.181.131v1.778c.447.232.936.041,1.49.165.114.125.287.315.428.471-.064.478-.3.635-.695.624-.371-.01-.743.006-1.114-.006a1.412,1.412,0,0,1-1.376-1.326,15.5,15.5,0,0,1,0-1.608A1.617,1.617,0,0,1,900.5-69.5a5.175,5.175,0,0,0,.073-.519,5.623,5.623,0,0,0,0-.8,8.921,8.921,0,0,1,.568-3.494c.17-.549.3-1.109.441-1.668a1.511,1.511,0,0,1,1.31-1.2c1.185-.137,2.372-.253,3.557-.384.654-.073,1.3-.173,1.958-.237.634-.061,1.272-.12,1.908-.124,2.682-.012,5.365.026,8.047-.019a4.97,4.97,0,0,1,2.415.63,30.276,30.276,0,0,1,5.552,3.777,2.714,2.714,0,0,0,1.31.634c1.173.207,2.342.457,3.5.75A9.917,9.917,0,0,1,934.244-71C934.5-70.836,934.732-70.639,935.029-70.417Z" transform="translate(-899.59 77.945)"/>
  <path id="Path_39" data-name="Path 39" d="M925.433-58.212c0-.8,0-1.483,0-2.162a3.611,3.611,0,0,1,.017-.556.547.547,0,0,1,.555-.48.548.548,0,0,1,.562.472,2.377,2.377,0,0,1,.023.431c0,.536,0,1.072,0,1.608,0,.2.026.4.04.577a28.276,28.276,0,0,0,4.365.109,3.768,3.768,0,0,0,.519-.124v-1.814c0-.31-.012-.619.007-.927a.528.528,0,0,1,.525-.571.531.531,0,0,1,.6.558c.026.618.011,1.237.014,1.856,0,.3,0,.609,0,.882a26.1,26.1,0,0,0,5,.063c.021-.194.059-.409.063-.625.01-.639-.014-1.279.01-1.918s.326-.866.958-.743a.947.947,0,0,1,.272.785q-.005.929,0,1.856c0,.2.019.4.031.666.259.022.477.057.695.057,1.67,0,3.341,0,5.011,0a2.835,2.835,0,0,1,.493.019.556.556,0,0,1,.463.568.533.533,0,0,1-.488.544,3.285,3.285,0,0,1-.494.015q-10.3,0-20.6,0c-.124,0-.248.006-.372,0-.5-.038-.629-.184-.674-.748a.956.956,0,0,1,.91-.4C924.4-58.194,924.872-58.21,925.433-58.212Z" transform="translate(-920.128 63.669)"/>
  <path id="Path_63" data-name="Path 63" d="M1115.416-1.525c.227,1.789-1.762,3.4-3.338,3.374a3.439,3.439,0,0,1-3.359-3.4,3.435,3.435,0,0,1,3.349-3.354C1113.7-4.948,1115.627-3.27,1115.416-1.525Zm-1.3-.872c-.96-1.464-2.07-1.575-3.056-1.039a2.125,2.125,0,0,0-.972,2.7A2.1,2.1,0,0,0,1112.5.633a2.443,2.443,0,0,0,1.49-1.113A2.469,2.469,0,0,0,1114.113-2.4Z" transform="translate(-1082.823 13.95)"/>
  <path id="Path_66" data-name="Path 66" d="M931.784,1.893a3.383,3.383,0,0,1-3.374-3.349,3.449,3.449,0,0,1,3.322-3.366,3.411,3.411,0,0,1,3.391,3.349A3.335,3.335,0,0,1,931.784,1.893ZM933.9-1.438a2.163,2.163,0,0,0-2.158-2.215A2.166,2.166,0,0,0,929.6-1.461a2.1,2.1,0,0,0,2.178,2.2A2.121,2.121,0,0,0,933.9-1.438Z" transform="translate(-924.841 13.876)"/>
  <path id="Path_74" data-name="Path 74" d="M1002.284,15.977l-.2.4a.824.824,0,0,1-.2.084c-.2.017-.411.032-.617.032H988.211c-.426-.7-.229-1.1.48-1.142.082,0,.165,0,.248,0q6.128,0,12.254,0C1001.679,15.347,1002.1,15.411,1002.284,15.977Z" transform="translate(-977.042 -3.797)"/>
  <path id="Path_95" data-name="Path 95" d="M1029.848-15.7c-.554,0-1.069.017-1.581,0-.686-.028-.9-.355-.658-1.1a4.856,4.856,0,0,1,2.723.067c.022.249.041.446.059.651Z" transform="translate(-1011.674 24.52)"/>
  <path id="Path_125" data-name="Path 125" d="M1127.269,12.505a1.278,1.278,0,0,1-1.347,1.36,1.436,1.436,0,0,1-1.406-1.351,1.572,1.572,0,0,1,1.365-1.412A1.349,1.349,0,0,1,1127.269,12.505Z" transform="translate(-1096.662 -0.075)"/>
  <path id="Path_128" data-name="Path 128" d="M945.324,13.969a1.493,1.493,0,0,1-1.485-1.368,1.517,1.517,0,0,1,1.406-1.384,1.377,1.377,0,1,1,.079,2.753Z" transform="translate(-938.36 -0.175)"/>
</svg>
