<svg id="Group_350" data-name="Group 350" xmlns="http://www.w3.org/2000/svg" viewBox="0 0 34.058 12.736">
  <path id="Path_36" data-name="Path 36" d="M1273.524-64.713a12.856,12.856,0,0,0,.008,1.3,1.569,1.569,0,0,1-.632,1.527c-.061.047-.114.1-.209.187a11.709,11.709,0,0,0,.392,2.5l1,.054a.609.609,0,0,1,.194.749c-.128.273-.375.306-.64.3-.33-.006-.661.006-.991,0-.447-.013-.568-.114-.694-.552a1.69,1.69,0,0,1-.057-.226c-.121-.883-.222-1.768-.367-2.646a1.057,1.057,0,0,1,.455-1.009,1.365,1.365,0,0,0,.476-1.236c-.026-.446-.012-.893,0-1.341.011-.587.224-.8.822-.8.8-.007,1.594-.014,2.391,0a1.922,1.922,0,0,0,1.034-.306,35.1,35.1,0,0,1,3.176-1.692,9.924,9.924,0,0,1,4.626-.939c1.258.072,2.523.069,3.781.139a7.8,7.8,0,0,1,1.3.261,14.229,14.229,0,0,1,1.629.413,23.183,23.183,0,0,1,2.463,1.02c.916.457,1.786,1,2.68,1.507a1.062,1.062,0,0,0,.422.161,21.041,21.041,0,0,1,3.669.606,10.627,10.627,0,0,1,3.7,1.488,12.84,12.84,0,0,1,1.095.942,1.06,1.06,0,0,1,.322.842c0,.988,0,1.977-.02,2.965a.849.849,0,0,1-.5.752c-.335,0-.742.01-1.149,0-.64-.02-.815-.349-.5-1.019l1.009-.1c.009-.939.019-1.861-.01-2.771a6.822,6.822,0,0,0-3.219-1.718,16.809,16.809,0,0,0-3.467-.7,7.347,7.347,0,0,1-3.377-1.355,18.641,18.641,0,0,0-3.313-1.532,14.594,14.594,0,0,0-4.614-.73c-.933,0-1.866.009-2.8-.008a7.35,7.35,0,0,0-2.919.672A23.874,23.874,0,0,0,1276.826-65a1.9,1.9,0,0,1-.882.231c-.581.035-1.165.008-1.748.013C1274.01-64.752,1273.821-64.731,1273.524-64.713Z" transform="translate(-1271.509 68.861)"/>
  <path id="Path_46" data-name="Path 46" d="M1347.494-49.978c-.121-.28-.213-.527-.333-.759-.24-.463-.215-.8.1-.976.333-.19.664-.017.9.466.222.444.449.886.683,1.348h.692c1.378,0,2.757,0,4.135,0a2.239,2.239,0,0,1,.681.106.467.467,0,0,1,.333.494.53.53,0,0,1-.408.508,1.677,1.677,0,0,1-.459.047q-5.65,0-11.3,0a1.734,1.734,0,0,1-1.037-.31c-.38-.266-.785-.5-1.159-.771a.509.509,0,0,1-.058-.877.45.45,0,0,1,.584-.061c.367.215.729.438,1.107.631a1.552,1.552,0,0,0,.646.211c1.5.019,2.99.01,4.485.007A2.794,2.794,0,0,0,1347.494-49.978Z" transform="translate(-1332.046 53.78)"/>
  <path id="Path_68" data-name="Path 68" d="M1304.869-12.6a3.048,3.048,0,0,1,3.071,3.109,3.063,3.063,0,0,1-3.015,3.061,3.125,3.125,0,0,1-3.158-3.126A3.145,3.145,0,0,1,1304.869-12.6Zm1.911,3.089a1.873,1.873,0,0,0-1.893-1.956,2.212,2.212,0,0,0-1.423.557,1.83,1.83,0,0,0-.6,1.341,2,2,0,0,0,1.992,1.987A1.859,1.859,0,0,0,1306.781-9.509Z" transform="translate(-1298.238 19.161)"/>
  <path id="Path_69" data-name="Path 69" d="M1491.512-9.7a3.011,3.011,0,0,1-2.973,3.136,3.184,3.184,0,0,1-3.149-3.078,3.236,3.236,0,0,1,3.066-3.114A3.079,3.079,0,0,1,1491.512-9.7Zm-3.03,1.974a1.885,1.885,0,0,0,1.949-1.934,1.87,1.87,0,0,0-1.9-1.931A1.942,1.942,0,0,0,1486.5-9.6,1.971,1.971,0,0,0,1488.482-7.73Z" transform="translate(-1460.447 19.304)"/>
  <path id="Path_73" data-name="Path 73" d="M1374.32,17.226c.028.28.049.483.064.626a.713.713,0,0,1-.773.4c-1.747,0-3.5,0-5.242,0-2.447,0-4.892-.007-7.339,0-.413,0-.728-.09-.829-.529.089-.479.416-.555.825-.554,1.98.007,3.961,0,5.941,0q3.262,0,6.524,0C1373.738,17.176,1373.985,17.2,1374.32,17.226Z" transform="translate(-1349.857 -7.137)"/>
  <path id="Path_146" data-name="Path 146" d="M1318.31,5.046a1.247,1.247,0,0,1-1.337-1.233,1.393,1.393,0,0,1,1.341-1.339,1.376,1.376,0,0,1,1.3,1.317A1.275,1.275,0,0,1,1318.31,5.046Z" transform="translate(-1311.669 5.848)"/>
  <path id="Path_147" data-name="Path 147" d="M1502.127,5.047c-.787.068-1.266-.492-1.29-1.3a1.3,1.3,0,0,1,1.251-1.275,1.393,1.393,0,0,1,1.382,1.3A1.263,1.263,0,0,1,1502.127,5.047Z" transform="translate(-1474.092 5.848)"/>
</svg>
