<svg id="Group_341" data-name="Group 341" xmlns="http://www.w3.org/2000/svg" viewBox="0 0 35.34 16.522">
  <path id="Path_129" data-name="Path 129" d="M49.76,31.621a15.1,15.1,0,0,1,3.417,4.909,17.413,17.413,0,0,1,5.573.542c.767.269,1.535.537,2.334.815.13,1.025,0,2.014.077,2.943.067.072.088.116.124.131,1.125.471,1.255,1.4,1.184,2.584a1.566,1.566,0,0,1-1.121,1.577,5.611,5.611,0,0,1-1.619.09c-.254-.006-.5-.354-.5-.581a.718.718,0,0,1,.547-.617,4.95,4.95,0,0,1,.629-.029c.245-.014.49-.037.783-.059v-1.52c-.287-.413-.956-.195-1.191-.939V38.912c-.12-.111-.2-.243-.3-.272a14.64,14.64,0,0,0-4.176-.847c-1.006.018-2.014-.059-3.087-.1a6.281,6.281,0,0,1-.442-.737A17.749,17.749,0,0,0,49.87,33.4a1.12,1.12,0,0,0-.944-.528c-1.578.006-3.157,0-4.736.005a3.118,3.118,0,0,0-.435.069c-.019.225-.053.446-.054.667-.005,1.368,0,2.737-.006,4.105,0,.244-.048.488-.081.8-.334.025-.619.066-.9.066q-6.6.006-13.2,0h-.8c-.067.4-.14.762-.186,1.13-.061.5-.058,1.011-.158,1.5a3.035,3.035,0,0,0,.054,1.306c.081.364.121.737.178,1.1.542.286,1.322-.192,1.64.589-.08.493-.21.691-.679.74a7.433,7.433,0,0,1-1.442-.021.782.782,0,0,1-.718-.759,16.544,16.544,0,0,1-.253-1.869c-.021-.732.066-1.466.114-2.2.034-.523.109-1.045.12-1.569.016-.762.326-1.126,1.164-1.122,4.378.023,8.756.011,13.135.009.246,0,.493-.02.795-.034.021-.275.053-.5.053-.723.005-1.221.042-2.444-.01-3.662a1.326,1.326,0,0,1,1.312-1.38C45.787,31.625,47.745,31.621,49.76,31.621Z" transform="translate(-27.144 -31.62)"/>
  <path id="Path_130" data-name="Path 130" d="M226.525,108.422a3.31,3.31,0,0,1,3.434,3.294,3.4,3.4,0,0,1-3.372,3.523,3.462,3.462,0,0,1-3.506-3.406A3.384,3.384,0,0,1,226.525,108.422Zm-2.186,3.3a2.136,2.136,0,0,0,2.176,2.272,2.1,2.1,0,0,0,2.2-2.247,2.187,2.187,0,0,0-4.372-.025Z" transform="translate(-198.323 -98.717)"/>
  <path id="Path_131" data-name="Path 131" d="M55.717,111.752a3.287,3.287,0,0,1,3.343-3.393,3.408,3.408,0,1,1,.064,6.815A3.305,3.305,0,0,1,55.717,111.752Zm5.581.005a2.146,2.146,0,0,0-2.247-2.2,2.046,2.046,0,0,0-2.142,2.212,2.112,2.112,0,0,0,2.187,2.18A2.2,2.2,0,0,0,61.3,111.757Z" transform="translate(-52.103 -98.664)"/>
  <path id="Path_132" data-name="Path 132" d="M125.973,130.739h-11.9a3.008,3.008,0,0,1-.441-.011.7.7,0,0,1-.6-.632.732.732,0,0,1,.566-.6,2.426,2.426,0,0,1,.44-.019h11.49c.042,0,.085,0,.126,0,.313-.015.608.037.735.363C126.529,130.2,126.391,130.491,125.973,130.739Z" transform="translate(-102.177 -117.108)"/>
  <path id="Path_133" data-name="Path 133" d="M166.917,51.907c.315.016.541.037.766.037,1.325,0,2.651.011,3.976,0a.743.743,0,0,1,.857.634.612.612,0,0,1-.723.547c-.316-.01-.632-.006-.946,0l-4.2.078c-.591.011-.877-.235-.932-.855-.03-.331.008-.667.008-1,0-.883-.009-1.768.008-2.651a1.183,1.183,0,0,1,.167-.647.691.691,0,0,1,.536-.226c.139.011.3.206.377.358a1.336,1.336,0,0,1,.077.553c.008.82,0,1.641,0,2.461C166.886,51.4,166.9,51.605,166.917,51.907Z" transform="translate(-148.191 -45.772)"/>
  <path id="Path_134" data-name="Path 134" d="M170.781,97.53V98.5a2.755,2.755,0,0,1-.51.115q-.849.017-1.7-.005c-.432-.011-.672-.232-.671-.58s.256-.556.682-.564q.787-.013,1.573-.006C170.337,97.465,170.519,97.5,170.781,97.53Z" transform="translate(-150.115 -89.141)"/>
  <path id="Path_135" data-name="Path 135" d="M241.255,124.99a1.477,1.477,0,0,1-1.5,1.394,1.537,1.537,0,0,1-1.495-1.5,1.569,1.569,0,0,1,1.5-1.428A1.46,1.46,0,0,1,241.255,124.99Z" transform="translate(-211.587 -111.855)"/>
  <path id="Path_136" data-name="Path 136" d="M70.95,124.955a1.428,1.428,0,0,1,1.4-1.466,1.4,1.4,0,0,1,1.495,1.429,1.367,1.367,0,0,1-1.487,1.486A1.4,1.4,0,0,1,70.95,124.955Z" transform="translate(-65.415 -111.881)"/>
</svg>
