<svg xmlns="http://www.w3.org/2000/svg" viewBox="0 0 28.71 15.8">
  <g id="Group_355" data-name="Group 355" transform="translate(0 0)">
    <path id="Path_31" data-name="Path 31" d="M1292.548,677.521a5.064,5.064,0,0,1,.683.007,1.677,1.677,0,0,1,.559.177.451.451,0,0,1,.19.529.44.44,0,0,1-.419.371,1.98,1.98,0,0,1-1.638-.381,1.185,1.185,0,0,1-.459-.888c0-.11,0-.219,0-.328,0-3.282.031-6.565-.016-9.847a1.849,1.849,0,0,1,1.9-1.918c1.859.041,3.72.013,5.58.011q4.568-.006,9.136-.015c1.714,0,3.429,0,5.142.02a2.8,2.8,0,0,1,2.161.99,21.749,21.749,0,0,1,2.67,3.837,10.493,10.493,0,0,0,.876,1.312,6.439,6.439,0,0,1,1.062,1.885,3.8,3.8,0,0,1,.166,1.126c.022.984.013,1.969,0,2.953a2.091,2.091,0,0,1-.1.642.833.833,0,0,1-.854.631c-.4-.005-.795,0-1.2,0-.1-.2-.17-.337-.228-.451.209-.656.759-.51,1.257-.6.013-.175.036-.35.036-.524,0-.821-.035-1.643.012-2.461a3.249,3.249,0,0,0-.813-2.307,25.131,25.131,0,0,1-1.993-3.119,13.3,13.3,0,0,0-1.866-2.4,1.407,1.407,0,0,0-1.08-.428c-2.06.019-4.121.018-6.182.018q-6.865,0-13.73-.012h-.511a.9.9,0,0,0-.417.874c.006,1.714,0,3.429,0,5.143,0,1.459,0,2.917,0,4.377C1292.486,676.973,1292.521,677.2,1292.548,677.521Z" transform="translate(-1291.448 -665.238)"/>
    <path id="Path_42" data-name="Path 42" d="M1453.471,685.743a2.35,2.35,0,0,1,1.71.624,1.677,1.677,0,0,0,.765.227,11.39,11.39,0,0,0,1.311.006.715.715,0,0,1,.759.484.765.765,0,0,1-.853.621c-.473-.015-.948-.014-1.421,0a1.377,1.377,0,0,1-.823-.245c-.288-.189-.565-.4-.907-.638h-3.976a.779.779,0,0,1-.34-.662c-.032-1.217-.057-2.436-.105-3.652a.669.669,0,0,1,.493-.778c.4.023.727.055,1.052.058.911.008,1.823,0,2.734,0h.556c.238.232.408.43.275.713a.656.656,0,0,1-.664.383c-.893-.011-1.786-.005-2.679,0-.195,0-.39.018-.605.027v2.748a6.087,6.087,0,0,0,1.548.076c.016-.21.039-.384.043-.558.007-.328,0-.656,0-.984a.654.654,0,0,1,.581-.739.576.576,0,0,1,.51.655c0,.346,0,.693,0,1.039C1453.44,685.324,1453.457,685.5,1453.471,685.743Z" transform="translate(-1432.277 -679.925)"/>
    <path id="Path_54" data-name="Path 54" d="M1474.355,754.082a3.033,3.033,0,0,1,3.01,3,3.042,3.042,0,1,1-6.082-.06A3.07,3.07,0,0,1,1474.355,754.082Zm-.062,5.036a2.088,2.088,0,0,0,2.038-2.018,1.992,1.992,0,0,0-1.974-1.99,1.9,1.9,0,0,0-2.011,1.928A2.036,2.036,0,0,0,1474.293,759.117Z" transform="translate(-1451.596 -744.347)"/>
    <path id="Path_57" data-name="Path 57" d="M1322.951,754.252a2.192,2.192,0,0,1,1.784.519,3.055,3.055,0,0,1-1.21,5.442,2.892,2.892,0,0,1-2.743-.864,2.746,2.746,0,0,1-.788-1.526,4.406,4.406,0,0,1,.172-1.929,1.078,1.078,0,0,1,.25-.351,3.265,3.265,0,0,0,.382-.387c.347-.57.979-.651,1.511-.889A1.6,1.6,0,0,1,1322.951,754.252Zm.012.853c-.284.092-.533.151-.764.253a4.486,4.486,0,0,0-.5.323,2.167,2.167,0,0,0-.682,2.149,1.668,1.668,0,0,0,.494.758,1.886,1.886,0,0,0,3.035-.236,2.026,2.026,0,0,0-.472-2.766C1323.734,755.321,1323.32,755.341,1322.963,755.1Z" transform="translate(-1316.832 -744.48)"/>
    <path id="Path_70" data-name="Path 70" d="M1312.85,728.716a.578.578,0,0,1,.648-.5h.109q6.1,0,12.2,0a.729.729,0,0,1,.783.451c-.14.487-.292.62-.739.645-.072,0-.146,0-.219,0H1313.6A.657.657,0,0,1,1312.85,728.716Z" transform="translate(-1310.507 -721.316)"/>
    <path id="Path_72" data-name="Path 72" d="M1313.394,699.374c-.32-.315-.262-.592-.031-.936.212-.014.461-.044.709-.044,3.045,0,6.09.005,9.135-.007.945,0,1.889-.064,2.834-.093a1.753,1.753,0,0,1,.435.028.536.536,0,0,1,.427.5.574.574,0,0,1-.439.557,2.134,2.134,0,0,1-.436.024q-6.045,0-12.089,0C1313.743,699.407,1313.546,699.384,1313.394,699.374Z" transform="translate(-1310.794 -694.674)"/>
    <path id="Path_86" data-name="Path 86" d="M1389.171,778.741c-.008.154-.018.362-.031.615a5.408,5.408,0,0,1-.621.074q-3.993.007-7.987,0c-.055,0-.109,0-.164,0-.361-.02-.578-.177-.6-.432a.586.586,0,0,1,.519-.547,2.225,2.225,0,0,1,.436-.023h7.6A.9.9,0,0,1,1389.171,778.741Z" transform="translate(-1370.103 -766.038)"/>
    <path id="Path_99" data-name="Path 99" d="M1455.42,738.747c.024-.3.043-.519.064-.778.221-.033.393-.07.566-.081.307-.02.613-.022.919-.034a.565.565,0,0,1,.656.489c.013.325-.2.54-.589.554-.344.012-.687.016-1.03,0A3.639,3.639,0,0,1,1455.42,738.747Z" transform="translate(-1437.47 -729.904)"/>
    <path id="Path_117" data-name="Path 117" d="M1488.984,772.764a1.2,1.2,0,0,1-1.234-1.181,1.266,1.266,0,0,1,1.255-1.244,1.319,1.319,0,0,1,1.219,1.238A1.242,1.242,0,0,1,1488.984,772.764Z" transform="translate(-1466.261 -758.834)"/>
    <path id="Path_119" data-name="Path 119" d="M1336.918,770.66c.243.03.443.044.638.081a1.191,1.191,0,0,1,.96,1.155,1.252,1.252,0,0,1-1.117,1.153,1.067,1.067,0,0,1-1.2-.723c-.065-.15-.111-.308-.157-.44A1.29,1.29,0,0,1,1336.918,770.66Z" transform="translate(-1331.158 -759.119)"/>
  </g>
</svg>
