<svg xmlns="http://www.w3.org/2000/svg" xmlns:xlink="http://www.w3.org/1999/xlink" viewBox="0 0 68.866 79.657">
  <defs>
    <clipPath id="clip-path">
      <rect id="Rectangle_6363" data-name="Rectangle 6363" width="68.866" height="79.657" fill="none"/>
    </clipPath>
    <clipPath id="clip-path-2">
      <rect id="Rectangle_6362" data-name="Rectangle 6362" width="23.274" height="23.354" fill="none"/>
    </clipPath>
  </defs>
  <g id="Group_16512" data-name="Group 16512" transform="translate(0 0)">
    <g id="Group_16515" data-name="Group 16515" transform="translate(0 0)" clip-path="url(#clip-path)">
      <g id="Group_16514" data-name="Group 16514" transform="translate(45.593 0)" style="isolation: isolate">
        <g id="Group_16513" data-name="Group 16513">
          <g id="Group_16512-2" data-name="Group 16512" clip-path="url(#clip-path-2)">
            <path id="Path_672" data-name="Path 672" d="M59.329,23.355A1.684,1.684,0,0,1,57.7,21.933c-.287-1.234-.562-2.47-.84-3.706a4.978,4.978,0,0,0-3.987-4.041c-1.229-.289-2.461-.562-3.692-.842a1.68,1.68,0,0,1,0-3.334c1.231-.28,2.463-.552,3.693-.842a4.983,4.983,0,0,0,3.986-4.043q.41-1.828.829-3.654a1.673,1.673,0,0,1,3.322,0c.282,1.234.552,2.472.84,3.7a4.979,4.979,0,0,0,4.028,4c1.214.275,2.429.549,3.641.834a1.68,1.68,0,0,1,0,3.333c-1.212.285-2.427.56-3.641.834a4.973,4.973,0,0,0-4.027,4c-.29,1.25-.56,2.505-.849,3.756a1.68,1.68,0,0,1-1.678,1.42" transform="translate(-47.718 0)" fill="#bbdcff"/>
          </g>
        </g>
      </g>
      <path id="Path_673" data-name="Path 673" d="M34.583,45.122q0,15.808,0,31.617c0,2.359-1.979,3.9-4.018,3.141a2.954,2.954,0,0,1-2.028-2.715c-.016-.189-.007-.38-.007-.57q0-31.475-.01-62.95a3.163,3.163,0,0,1,1.7-3.137,3.016,3.016,0,0,1,4.353,2.428c.033.345.016.7.016,1.043q0,15.571,0,31.143" transform="translate(-1.27 -0.42)" fill="#15223f"/>
      <path id="Path_674" data-name="Path 674" d="M6.06,45.547q0,12.01,0,24.021A3.014,3.014,0,0,1,2.036,72.61,2.952,2.952,0,0,1,.011,69.892C-.009,69.64,0,69.386,0,69.133q0-23.688,0-47.377A5.825,5.825,0,0,1,.1,20.437a3.009,3.009,0,0,1,3.241-2.321,3.069,3.069,0,0,1,2.711,2.84c.022.315.01.633.01.949V45.547" transform="translate(0 -0.746)" fill="#15223f"/>
      <path id="Path_675" data-name="Path 675" d="M42.789,45.442q0-11.251,0-22.5a3.014,3.014,0,0,1,4.082-3.048,2.933,2.933,0,0,1,1.962,2.763c.034.663.009,1.329.009,1.993q0,21.5,0,43.009a6.5,6.5,0,0,1-.062,1.229,3.015,3.015,0,0,1-5.976-.47c-.045-2.183-.015-4.367-.015-6.55q0-8.213,0-16.426" transform="translate(-1.905 -0.811)" fill="#15223f"/>
      <path id="Path_676" data-name="Path 676" d="M14.266,45.658q0-9.02,0-18.039a3.017,3.017,0,0,1,5.943-.881,4.571,4.571,0,0,1,.1,1.127q.007,17.849,0,35.7c0,2.025-1.225,3.4-3.007,3.416-1.817.012-3.046-1.382-3.047-3.471q0-8.925,0-17.849" transform="translate(-0.635 -1.008)" fill="#15223f"/>
      <path id="Path_677" data-name="Path 677" d="M63.106,45.934c0,4.051.008,8.1,0,12.151a2.913,2.913,0,0,1-1.862,2.833,2.64,2.64,0,0,1-3.209-.632,3.7,3.7,0,0,1-.936-2.174c-.065-8.1-.051-16.2-.032-24.3a3.02,3.02,0,1,1,6.039.068c.022,4.018.007,8.037.007,12.056" transform="translate(-2.54 -1.269)" fill="#15223f"/>
    </g>
  </g>
</svg>
