<svg xmlns="http://www.w3.org/2000/svg" xmlns:xlink="http://www.w3.org/1999/xlink" viewBox="0 0 100.691 95.069">
  <defs>
    <clipPath id="clip-path">
      <rect id="Rectangle_6361" data-name="Rectangle 6361" width="100.691" height="95.069" fill="none"/>
    </clipPath>
    <clipPath id="clip-path-2">
      <rect id="Rectangle_6360" data-name="Rectangle 6360" width="16.144" height="16.145" fill="none"/>
    </clipPath>
  </defs>
  <g id="Group_16508" data-name="Group 16508" transform="translate(0 0)">
    <g id="Group_16511" data-name="Group 16511" transform="translate(0 0)" clip-path="url(#clip-path)">
      <path id="Path_664" data-name="Path 664" d="M31.079,48.372a2.172,2.172,0,1,1-2.163,2.161,2.188,2.188,0,0,1,2.163-2.161m3.786-16.535a6.326,6.326,0,0,1,5.527-3.025c3.074-.01,6.147,0,9.221,0V24.459c-2.985,0-5.97-.006-8.955,0a10.8,10.8,0,0,0-9.745,5.489c-.979,1.6-1.95,3.209-2.894,4.833a.941.941,0,0,1-.952.557c-1.538-.033-3.079-.024-4.618-.008a2.171,2.171,0,1,0-.013,4.341c.654.013,1.311,0,2.116,0-.555.751-1.033,1.376-1.489,2.017a14.642,14.642,0,0,0-2.826,8.357c-.067,3.825-.044,7.652-.01,11.478a6.279,6.279,0,0,0,5.424,6.259,28.322,28.322,0,0,0,6.294.042,6.138,6.138,0,0,0,5.462-4.863,13.5,13.5,0,0,0,.257-1.5H49.613V57.067H35.807a2.227,2.227,0,0,0-2.546,2.53c0,.611.015,1.222,0,1.833a2.158,2.158,0,0,1-2.172,2.152q-2.172.034-4.346,0a2.137,2.137,0,0,1-2.167-2.154c-.013-3.8-.036-7.606.02-11.408a9.694,9.694,0,0,1,1.721-5.355c.966-1.42,2.026-2.775,3.018-4.123,1.472.805,2.824,1.628,4.248,2.3a12.915,12.915,0,0,0,5.534,1.172c3.5.007,7,0,10.5,0V39.675q-5.045,0-10.088,0a11.705,11.705,0,0,1-7.651-2.864c.51-.859,1.025-1.729,1.545-2.6.477-.795.937-1.6,1.446-2.376" transform="translate(2.512 3.042)" fill="#15223f"/>
      <path id="Path_665" data-name="Path 665" d="M66.95,52.716a2.172,2.172,0,1,1,2.189-2.206,2.19,2.19,0,0,1-2.189,2.206m7.912-11.2c-.421-.579-.85-1.152-1.356-1.837.749,0,1.372,0,2,0a2.178,2.178,0,1,0,.012-4.346c-1.539-.008-3.08-.016-4.618.008a.8.8,0,0,1-.8-.459q-1.442-2.457-2.927-4.891a10.821,10.821,0,0,0-9.792-5.527q-5.507-.008-11.014,0v4.354c3.785,0,7.57-.012,11.356,0a6.189,6.189,0,0,1,5.387,2.9c1.083,1.639,2.045,3.359,3.089,5.09a12.067,12.067,0,0,1-7.646,2.877q-6.094-.012-12.186,0v4.337c4.2,0,8.393.012,12.591,0a14.7,14.7,0,0,0,8-2.443c.549-.353,1.093-.715,1.693-1.11,1.8,2.557,4.11,4.775,4.625,8.033a15.664,15.664,0,0,1,.209,2.359c.022,3.418.011,6.837.01,10.255a2.21,2.21,0,0,1-2.458,2.485c-1.312,0-2.625.009-3.939,0a2.184,2.184,0,0,1-2.3-2.306c-.008-.588,0-1.177,0-1.765a2.2,2.2,0,0,0-2.426-2.447q-5.365-.005-10.73,0H46.359v4.394h14.06a6.514,6.514,0,0,0,5.837,6.416c1.593.151,3.211.061,4.819.057a6.518,6.518,0,0,0,6.761-6.764q.012-5.264,0-10.528a15.213,15.213,0,0,0-2.974-9.131" transform="translate(5.766 3.042)" fill="#bbdcff"/>
      <g id="Group_16510" data-name="Group 16510" transform="translate(0 38.972)" style="isolation: isolate">
        <g id="Group_16509" data-name="Group 16509">
          <g id="Group_16508-2" data-name="Group 16508" clip-path="url(#clip-path-2)">
            <path id="Path_666" data-name="Path 666" d="M8.054,50.8a1.166,1.166,0,0,1-1.128-.983c-.2-.853-.39-1.708-.582-2.561a3.446,3.446,0,0,0-2.765-2.794c-.853-.2-1.708-.388-2.562-.582a1.161,1.161,0,0,1,0-2.3c.855-.193,1.709-.382,2.561-.582A3.45,3.45,0,0,0,6.345,38.2q.283-1.265.575-2.526a1.162,1.162,0,0,1,2.3,0c.2.853.383,1.709.582,2.561A3.45,3.45,0,0,0,12.6,41c.843.189,1.685.379,2.526.576a1.161,1.161,0,0,1,0,2.3c-.841.2-1.683.387-2.525.577a3.445,3.445,0,0,0-2.794,2.765c-.2.865-.388,1.733-.589,2.6a1.164,1.164,0,0,1-1.164.982" transform="translate(0 -34.66)" fill="#bbdcff"/>
          </g>
        </g>
      </g>
      <path id="Path_667" data-name="Path 667" d="M45.124,17.8c-.98,0-1.943.006-2.9,0a3.15,3.15,0,1,1,.038-6.288q6.053-.008,12.105,0a3.153,3.153,0,1,1-.006,6.288c-.937,0-1.874,0-2.851,0V74.408c1.042,0,2.1-.025,3.164.006a3.131,3.131,0,0,1,2.918,4.135,3.059,3.059,0,0,1-2.83,2.133c-4.3.027-8.595.037-12.892,0a3.084,3.084,0,0,1-2.978-3.146A3.125,3.125,0,0,1,41.9,74.416c1.047-.036,2.1-.007,3.207-.007,0-2.079.013-54.48.013-56.615" transform="translate(4.837 1.431)" fill="#15223f"/>
      <path id="Path_668" data-name="Path 668" d="M7.811,26.733A2.811,2.811,0,0,1,5,23.922v-3.4A20.551,20.551,0,0,1,25.528,0h3.394a2.811,2.811,0,1,1,0,5.622H25.528a14.922,14.922,0,0,0-14.906,14.9v3.4a2.811,2.811,0,0,1-2.811,2.811" transform="translate(0.622 0)" fill="#15223f"/>
      <path id="Path_669" data-name="Path 669" d="M28.923,87.51h-3.4A20.551,20.551,0,0,1,5,66.982V63.588a2.811,2.811,0,1,1,5.622,0v3.394a14.922,14.922,0,0,0,14.9,14.906h3.4a2.811,2.811,0,1,1,0,5.622" transform="translate(0.622 7.559)" fill="#15223f"/>
      <path id="Path_670" data-name="Path 670" d="M89.7,26.733a2.811,2.811,0,0,1-2.811-2.811v-3.4a14.922,14.922,0,0,0-14.906-14.9H68.588a2.811,2.811,0,0,1,0-5.622h3.394A20.551,20.551,0,0,1,92.51,20.527v3.4A2.811,2.811,0,0,1,89.7,26.733" transform="translate(8.181 0)" fill="#15223f"/>
      <path id="Path_671" data-name="Path 671" d="M71.983,87.51h-3.4a2.811,2.811,0,1,1,0-5.622h3.4A14.923,14.923,0,0,0,86.888,66.982V63.588a2.811,2.811,0,1,1,5.622,0v3.394A20.552,20.552,0,0,1,71.983,87.51" transform="translate(8.181 7.559)" fill="#15223f"/>
    </g>
  </g>
</svg>
