<svg xmlns="http://www.w3.org/2000/svg" viewBox="0 0 15.609 15">
  <g id="Group_16304" data-name="Group 16304" transform="translate(-1330 -656.5)">
    <g id="my-chats" transform="translate(1330 656.5)">
      <path id="Path_220" data-name="Path 220" d="M5.134,2.894a8.48,8.48,0,0,1,5.424-1,8.009,8.009,0,0,1,4.805,2.521A6.646,6.646,0,0,1,17.1,9.259a6.752,6.752,0,0,1-2.039,4.39l.193,2.375a.717.717,0,0,1-.967.729l-2.87-1.076a7.7,7.7,0,0,1-4.981-.23,7.567,7.567,0,0,1-4.109-3.41,6.477,6.477,0,0,1-.534-5.082A7.176,7.176,0,0,1,5.134,2.894Zm5.215.417a7.047,7.047,0,0,0-4.5.828A5.744,5.744,0,0,0,3.161,7.38a5.043,5.043,0,0,0,.419,3.964A6.133,6.133,0,0,0,6.918,14.1a6.25,6.25,0,0,0,4.295.142.717.717,0,0,1,.475.01l2.043.766L13.6,13.423a.717.717,0,0,1,.236-.592,5.359,5.359,0,0,0,1.828-3.658,5.213,5.213,0,0,0-1.37-3.8A6.576,6.576,0,0,0,10.349,3.311Z" transform="translate(-1.5 -1.8)" fill="#e00000" fill-rule="evenodd"/>
      <path id="Path_221" data-name="Path 221" d="M5.834,7.676a.717.717,0,0,1,.717-.717h5.155a.717.717,0,1,1,0,1.434H6.551A.717.717,0,0,1,5.834,7.676Z" transform="translate(-1.324 -1.591)" fill="#e00000"/>
      <path id="Path_222" data-name="Path 222" d="M5.834,10.283a.717.717,0,0,1,.717-.717H9.768a.717.717,0,0,1,0,1.434H6.551A.717.717,0,0,1,5.834,10.283Z" transform="translate(-1.324 -1.485)" fill="#e00000"/>
    </g>
  </g>
</svg>
