<svg xmlns="http://www.w3.org/2000/svg" xmlns:xlink="http://www.w3.org/1999/xlink" viewBox="0 0 1053 185.307">
  <defs>
    <clipPath id="clip-path">
      <rect id="Rectangle_6419" data-name="Rectangle 6419" width="210.298" height="185.307" fill="none"/>
    </clipPath>
    <clipPath id="clip-path-2">
      <path id="Path_730" data-name="Path 730" d="M0,6.624V143.64c0,3.8,3.386,6.7,7.527,6.455l195.49-11.421a6.3,6.3,0,0,0,5.733-6.326V13.295a6.134,6.134,0,0,0-5.733-6.2L7.527,0c-.1,0-.2-.005-.3-.005C3.223,0,0,2.915,0,6.624" transform="translate(0 0.003)" fill="none"/>
    </clipPath>
    <linearGradient id="linear-gradient" x1="0.032" y1="1.143" x2="0.033" y2="1.143" gradientUnits="objectBoundingBox">
      <stop offset="0" stop-color="#26264f"/>
      <stop offset="0.004" stop-color="#26264f"/>
      <stop offset="1" stop-color="#444b8c"/>
    </linearGradient>
    <clipPath id="clip-path-4">
      <rect id="Rectangle_6397" data-name="Rectangle 6397" width="180.257" height="102.3" fill="none"/>
    </clipPath>
    <clipPath id="clip-path-5">
      <rect id="Rectangle_6398" data-name="Rectangle 6398" width="139.843" height="79.79" fill="none"/>
    </clipPath>
    <clipPath id="clip-path-6">
      <rect id="Rectangle_6399" data-name="Rectangle 6399" width="32.112" height="21.002" fill="none"/>
    </clipPath>
    <clipPath id="clip-path-7">
      <rect id="Rectangle_6400" data-name="Rectangle 6400" width="32.112" height="21.692" fill="none"/>
    </clipPath>
    <clipPath id="clip-path-8">
      <rect id="Rectangle_6401" data-name="Rectangle 6401" width="32.112" height="21.086" fill="none"/>
    </clipPath>
    <clipPath id="clip-path-9">
      <path id="Path_755" data-name="Path 755" d="M1374.281,373.345c-.17.076.046,1,.167,1.414.251.855.521.938.5,1.33-.047.808-1.214.84-1.829,1.913a2.893,2.893,0,0,0,0,2.744,3.268,3.268,0,0,0,2.661,1.5,6.656,6.656,0,0,0,1.081-3.409c.081-3.076-2.135-5.493-2.547-5.494a.075.075,0,0,0-.031.006" transform="translate(-1372.771 -373.339)" fill="none"/>
    </clipPath>
    <linearGradient id="linear-gradient-2" x1="-11.188" y1="34.381" x2="-11.18" y2="34.381" gradientUnits="objectBoundingBox">
      <stop offset="0" stop-color="#311944"/>
      <stop offset="1" stop-color="#893976"/>
    </linearGradient>
    <clipPath id="clip-path-10">
      <path id="Path_756" data-name="Path 756" d="M2071.117,1316.435l-3.764,2.789.9,3.1,3.82-2.428,1.389-4.341Z" transform="translate(-2067.353 -1315.558)" fill="none"/>
    </clipPath>
    <linearGradient id="linear-gradient-3" x1="-21.244" y1="12.911" x2="-21.233" y2="12.911" xlink:href="#linear-gradient-2"/>
    <clipPath id="clip-path-11">
      <path id="Path_757" data-name="Path 757" d="M2017.363,2230.461s2.059,5.179,1.517,7.476a23.117,23.117,0,0,0,3.641-.325,25.1,25.1,0,0,1-1.062-3.532,34.788,34.788,0,0,1-.217-4.139Z" transform="translate(-2017.363 -2229.941)" fill="none"/>
    </clipPath>
    <linearGradient id="linear-gradient-4" x1="-27.13" y1="2.156" x2="-27.116" y2="2.156" xlink:href="#linear-gradient-2"/>
    <clipPath id="clip-path-13">
      <path id="Path_759" data-name="Path 759" d="M1636.97,2257.993s.176,1.7.527,4.214-.965,8.858-.965,8.858l1.43-2.47,2.384-2.081s2,1.294.65-.52c-1.58-1.814-.338-8.294-.338-8.294Z" transform="translate(-1636.531 -2257.701)" fill="none"/>
    </clipPath>
    <linearGradient id="linear-gradient-5" x1="-18.804" y1="1.153" x2="-18.793" y2="1.153" xlink:href="#linear-gradient-2"/>
    <clipPath id="clip-path-14">
      <path id="Path_760" data-name="Path 760" d="M1588.089,1299.162s-3.336,2.985-3.336,15.275,1.58,38.977,1.58,38.977l2.528,19.107a16.723,16.723,0,0,0,4.378-.434c1.58-7.2,4.155-19.375,2.926-29.559-.527-11.061,4.389-24.931,4.389-24.931s4.214,14.046,7.2,21.069,8.667,29.024,9.194,30.6c3.493.317,4.984-.607,4.984-.607s-2.239-23.677-4.346-32.631-1.931-30.55-5.443-36.695a28.918,28.918,0,0,0-10.159-1.452,87.467,87.467,0,0,0-13.895,1.276" transform="translate(-1584.753 -1297.886)" fill="none"/>
    </clipPath>
    <linearGradient id="linear-gradient-6" x1="-3.204" y1="1.174" x2="-3.202" y2="1.174" xlink:href="#linear-gradient-2"/>
    <clipPath id="clip-path-16">
      <rect id="Rectangle_6410" data-name="Rectangle 6410" width="37.179" height="71.346" fill="none"/>
    </clipPath>
    <clipPath id="clip-path-17">
      <path id="Path_762" data-name="Path 762" d="M1605.417,1321.681c1.04,6.761,3.12,10.4,8.322,15.083,4.161,3.12,1.04,9.882,2.6,15.083.52,1.56,2.08,3.12,2.6,4.681,1.936,3.871.128,8.606,1.005,12.7a5.567,5.567,0,0,0,1.985-.569s-2.24-23.677-4.346-32.631-1.931-30.55-5.443-36.695c-7.9-3.16-24.053-.175-24.053-.175s-3.336,2.985-3.336,15.275c0,1,.011,2.09.03,3.255,3.463,3.065,10.546,3.746,14.914.349a2.064,2.064,0,0,1,.835-.378l.023-.065.018.061c1.988-.363,4.394,2.219,4.845,4.023" transform="translate(-1584.752 -1297.886)" fill="none"/>
    </clipPath>
    <linearGradient id="linear-gradient-7" x1="-1.487" y1="1.147" x2="-1.486" y2="1.147" gradientUnits="objectBoundingBox">
      <stop offset="0" stop-color="#ffc444"/>
      <stop offset="0.996" stop-color="#f36f56"/>
      <stop offset="1" stop-color="#f36f56"/>
    </linearGradient>
    <clipPath id="clip-path-18">
      <path id="Path_768" data-name="Path 768" d="M1780.733,748.284a5.967,5.967,0,0,0,5.258,3.166,6.553,6.553,0,0,0,4.843-2.276l-.852-.621a5.992,5.992,0,0,1-3.665,1.247c-4.01-.211-4.336-1.9-4.336-1.9Z" transform="translate(-1780.733 -747.9)" fill="none"/>
    </clipPath>
    <linearGradient id="linear-gradient-8" x1="-12.765" y1="15.591" x2="-12.758" y2="15.591" gradientUnits="objectBoundingBox">
      <stop offset="0" stop-color="#e38ddd"/>
      <stop offset="0.004" stop-color="#e38ddd"/>
      <stop offset="1" stop-color="#9571f6"/>
    </linearGradient>
    <clipPath id="clip-path-19">
      <path id="Path_769" data-name="Path 769" d="M1802.055,622.883c-.46.088-.733.195-2.072,1.259a5.344,5.344,0,0,0-2.026,3.3c-.177,1.366,1.152,2.822,1.374,3.091l-.733,1.03c-1.563.339-1.969.684-1.987.964-.044.691,2.242,1.617,4.395,1.563,1.717-.044,3.569-.717,3.54-1.245-.013-.244-.432-.549-2.124-.846q.115-.5.229-1.007c1.941-3.966,2.412-7.154,1.772-7.6a6.256,6.256,0,0,0-1.67-.593l-.069,0Z" transform="translate(-1796.61 -622.788)" fill="none"/>
    </clipPath>
    <linearGradient id="linear-gradient-9" x1="-9.336" y1="10.444" x2="-9.33" y2="10.444" xlink:href="#linear-gradient-2"/>
    <clipPath id="clip-path-20">
      <path id="Path_770" data-name="Path 770" d="M1837.611,674.469c-.657.393-1.31,1.123-.842,1.45a1.085,1.085,0,0,0,1.472-.565c.19-.453-.03-.959-.386-.959a.474.474,0,0,0-.244.074" transform="translate(-1836.61 -674.395)" fill="none"/>
    </clipPath>
    <linearGradient id="linear-gradient-10" x1="-55.788" y1="51.272" x2="-55.757" y2="51.272" xlink:href="#linear-gradient-2"/>
    <clipPath id="clip-path-21">
      <path id="Path_771" data-name="Path 771" d="M1824.327,599.108a2.919,2.919,0,0,0-.641,2.633c.12.494.274.547.252.87-.062.909-1.718,1.305-1.625,1.763.066.327.927.208,1.076.618.163.45-.784.837-1.191,1.969-.762.51-1.243,1.779-1.41,3.478a15.47,15.47,0,0,0,.479,6.053c2.278,7.357,3.907,12.618,7.85,15.557,5.22,3.89,9.921.3,23.2-.27a63.393,63.393,0,0,1,16.292,1.294c5.847,1.2,9.045,2.4,12.961-.125,8.16-5.265,11.277-21.446,4.6-28.687-6.427-6.974-21.381-5.062-29.676.54-3.854,2.6-5.832,5.677-10.387,5.935-3.462.2-8.969-1.106-11.87-4.856-.365-.472-1.827-2.454-4.022-4.953a5.894,5.894,0,0,0-3.421-2.369,4.693,4.693,0,0,0-.75-.067,2.411,2.411,0,0,0-1.722.616" transform="translate(-1820.692 -598.492)" fill="none"/>
    </clipPath>
    <linearGradient id="linear-gradient-11" x1="-1.614" y1="2.216" x2="-1.613" y2="2.216" gradientUnits="objectBoundingBox">
      <stop offset="0" stop-color="#444b8c"/>
      <stop offset="0.996" stop-color="#26264f"/>
      <stop offset="1" stop-color="#26264f"/>
    </linearGradient>
    <clipPath id="clip-path-23">
      <rect id="Rectangle_6417" data-name="Rectangle 6417" width="58.233" height="42.748" fill="none"/>
    </clipPath>
    <clipPath id="clip-path-24">
      <path id="Path_773" data-name="Path 773" d="M1586.543,1176.184c-1.617-1.658.163-5-2.226-7.486-2.217-2.307-4.727-.443-8.3-2.428-4.577-2.546-3.316-7.207-7.689-9.712-3.144-1.8-4.622.135-9.51-.809a19.79,19.79,0,0,1-13.759-10.319,17.739,17.739,0,0,1-1.768-7.364c-2.195,3.921-4.471,7.678-4.771,14.02a30.166,30.166,0,0,0,1.009,9.194,31.746,31.746,0,0,0,8.228,7.284c5.725,3.483,9.045,2.876,17.266,5.126,13.448,3.68,14.645,8.063,21.313,6.947a18.051,18.051,0,0,0,10.385-5.877c-6.215,2.767-9.009,2.629-10.183,1.426" transform="translate(-1538.493 -1138.065)" fill="none"/>
    </clipPath>
    <linearGradient id="linear-gradient-12" x1="-1.52" y1="1.702" x2="-1.519" y2="1.702" xlink:href="#linear-gradient-8"/>
  </defs>
  <rect id="Rectangle_6359" data-name="Rectangle 6359" width="1053" height="58" rx="29" transform="translate(0 41.313)" fill="#f6f7f8"/>
  <g id="Group_16526" data-name="Group 16526" transform="translate(421)">
    <g id="Group_16641" data-name="Group 16641" clip-path="url(#clip-path)">
      <g id="Group_16589" data-name="Group 16589" transform="translate(0 0)">
        <g id="Group_16588" data-name="Group 16588" clip-path="url(#clip-path-2)">
          <rect id="Rectangle_6396" data-name="Rectangle 6396" width="223.242" height="171.217" transform="translate(-15.538 1.623) rotate(-5.964)" fill="url(#linear-gradient)"/>
        </g>
      </g>
      <g id="Group_16606" data-name="Group 16606" transform="translate(0 0)">
        <g id="Group_16605" data-name="Group 16605" clip-path="url(#clip-path)">
          <path id="Path_731" data-name="Path 731" d="M1125.6,1818.3a9.544,9.544,0,0,1-6.119-7.29l-4.548-23.615-38.9,1.449-4.788,24.6c-.67,3.446,2.014,6.9,5.105,8.171l16.276,6.682a20.255,20.255,0,0,0,9.516,1.447l34.4-3.087a2.185,2.185,0,0,0,1.929-1.984c.117-1.064.822-2.258-.137-2.592Z" transform="translate(-990.626 -1653.036)" fill="#52617c"/>
          <path id="Path_732" data-name="Path 732" d="M1142.127,1803.973a9.454,9.454,0,0,1-6.112-7.2l-4.543-23.318-37.954,1.433-4.783,24.292a7.178,7.178,0,0,0,4.191,8.067l16.26,6.6a20.45,20.45,0,0,0,9.506,1.429l34.363-3.049a2.17,2.17,0,0,0,1.927-1.959,2.23,2.23,0,0,0-1.445-2.372Z" transform="translate(-1006.764 -1640.146)" fill="#15223f"/>
          <path id="Path_733" data-name="Path 733" d="M28.117,150.095c-4.141.242-7.527-2.653-7.527-6.455V6.624c0-3.8,3.386-6.772,7.527-6.621L223.607,7.1a6.134,6.134,0,0,1,5.734,6.2V132.348a6.3,6.3,0,0,1-5.734,6.326Z" transform="translate(-19.042 0.003)" fill="#15223f"/>
          <path id="Path_734" data-name="Path 734" d="M266.825,49.23l-195.49-6.7a3.7,3.7,0,0,0-4.014,3.539V182.783a3.608,3.608,0,0,0,4.014,3.45l195.49-11.028a3.364,3.364,0,0,0,3.07-3.381V52.543a3.274,3.274,0,0,0-3.07-3.313" transform="translate(-62.26 -39.33)" fill="#15223f"/>
          <path id="Path_735" data-name="Path 735" d="M101.476,202.118a1.42,1.42,0,0,1-1.564-1.356V73.681a1.447,1.447,0,0,1,1.564-1.381l195.49,6.424a1.279,1.279,0,0,1,1.2,1.293v111.2a1.3,1.3,0,0,1-1.2,1.313Z" transform="translate(-92.402 -66.864)" fill="#b3b3b3"/>
          <g id="Group_16592" data-name="Group 16592" transform="translate(17.65 24.428)" opacity="0.68">
            <g id="Group_16591" data-name="Group 16591">
              <g id="Group_16590" data-name="Group 16590" clip-path="url(#clip-path-4)">
                <path id="Path_736" data-name="Path 736" d="M415.057,419.355,234.8,427.271v-102.3l180.257,3.784Z" transform="translate(-234.8 -324.972)" fill="#fff"/>
              </g>
            </g>
          </g>
          <path id="Path_737" data-name="Path 737" d="M415.057,175.175,234.8,170.992v-8.737l180.257,5.182Z" transform="translate(-217.15 -150.058)" fill="#15223f"/>
          <path id="Path_738" data-name="Path 738" d="M2426.73,265.3a.957.957,0,0,1-.972.976,1.018,1.018,0,0,1-.973-1.026.957.957,0,0,1,.973-.976,1.019,1.019,0,0,1,.972,1.026" transform="translate(-2242.514 -244.409)" fill="red"/>
          <path id="Path_739" data-name="Path 739" d="M2479.938,266.717a.953.953,0,0,1-.967.973,1.014,1.014,0,0,1-.968-1.023.952.952,0,0,1,.968-.973,1.015,1.015,0,0,1,.967,1.023" transform="translate(-2291.732 -245.721)" fill="red"/>
          <path id="Path_740" data-name="Path 740" d="M2532.844,268.124a.949.949,0,0,1-.961.97,1.01,1.01,0,0,1-.962-1.02.949.949,0,0,1,.962-.97,1.01,1.01,0,0,1,.961,1.02" transform="translate(-2340.672 -247.025)" fill="red"/>
          <g id="Group_16595" data-name="Group 16595" transform="translate(21.582 27.085)" opacity="0.68">
            <g id="Group_16594" data-name="Group 16594">
              <g id="Group_16593" data-name="Group 16593" clip-path="url(#clip-path-5)">
                <path id="Path_741" data-name="Path 741" d="M426.947,435.723,287.1,440.114v-79.79l139.843,2.706Z" transform="translate(-287.104 -360.323)" fill="#fff"/>
              </g>
            </g>
          </g>
          <path id="Path_742" data-name="Path 742" d="M2212.106,707.24l-32.112-.065v-1.567l32.112.1Z" transform="translate(-2016.125 -652.567)" fill="#fff"/>
          <path id="Path_743" data-name="Path 743" d="M2200.158,743.2l-20.164,0v-1.568l20.164.025Z" transform="translate(-2016.124 -685.878)" fill="#fff"/>
          <g id="Group_16598" data-name="Group 16598" transform="translate(163.87 60.48)" opacity="0.68">
            <g id="Group_16597" data-name="Group 16597">
              <g id="Group_16596" data-name="Group 16596" clip-path="url(#clip-path-6)">
                <path id="Path_744" data-name="Path 744" d="M2212.106,825.046l-32.112.538V804.65l32.112-.068Z" transform="translate(-2179.994 -804.581)" fill="#fff"/>
              </g>
            </g>
          </g>
          <path id="Path_745" data-name="Path 745" d="M2212.106,1107.834l-32.112.625v-1.568l32.112-.589Z" transform="translate(-2016.125 -1023.141)" fill="#fff"/>
          <path id="Path_746" data-name="Path 746" d="M2200.158,1146.276l-20.164.43v-1.568l20.164-.408Z" transform="translate(-2016.124 -1058.681)" fill="#fff"/>
          <g id="Group_16601" data-name="Group 16601" transform="translate(163.87 90.5)" opacity="0.68">
            <g id="Group_16600" data-name="Group 16600">
              <g id="Group_16599" data-name="Group 16599" clip-path="url(#clip-path-7)">
                <path id="Path_747" data-name="Path 747" d="M2212.106,1224.406l-32.112,1.228V1204.7l32.112-.758Z" transform="translate(-2179.994 -1203.942)" fill="#fff"/>
              </g>
            </g>
          </g>
          <path id="Path_748" data-name="Path 748" d="M2212.106,1507.194l-32.112,1.314v-1.568l32.112-1.279Z" transform="translate(-2016.125 -1392.481)" fill="#fff"/>
          <path id="Path_749" data-name="Path 749" d="M2200.158,1549.049l-20.164.863v-1.568l20.164-.841Z" transform="translate(-2016.124 -1431.178)" fill="#fff"/>
          <path id="Path_750" data-name="Path 750" d="M383.879,1433.027,287.1,1436.62v-5.245l96.775-3.269Z" transform="translate(-265.522 -1320.754)" fill="#fff"/>
          <path id="Path_751" data-name="Path 751" d="M1977.584,1413.53l-13.807.513v-4.825l13.807-.466Z" transform="translate(-1816.16 -1302.855)" fill="#fff"/>
          <path id="Path_752" data-name="Path 752" d="M1761.706,1420.747l-14.118.524v-4.879l14.118-.477Z" transform="translate(-1616.222 -1309.481)" fill="#fff"/>
          <path id="Path_753" data-name="Path 753" d="M331.379,1570.11l-44.275,1.822v-2.623l44.275-1.748Z" transform="translate(-265.522 -1449.727)" fill="#fff"/>
          <g id="Group_16604" data-name="Group 16604" transform="translate(163.87 29.839)" opacity="0.68">
            <g id="Group_16603" data-name="Group 16603">
              <g id="Group_16602" data-name="Group 16602" clip-path="url(#clip-path-8)">
                <path id="Path_754" data-name="Path 754" d="M2212.106,418.04l-32.112-.151V396.955l32.112.621Z" transform="translate(-2179.994 -396.955)" fill="#fff"/>
              </g>
            </g>
          </g>
        </g>
      </g>
      <g id="Group_16608" data-name="Group 16608" transform="translate(103.191 28.064)">
        <g id="Group_16607" data-name="Group 16607" clip-path="url(#clip-path-9)">
          <rect id="Rectangle_6403" data-name="Rectangle 6403" width="9.001" height="4.51" transform="translate(-0.342 8.898) rotate(-88.652)" fill="url(#linear-gradient-2)"/>
        </g>
      </g>
      <g id="Group_16610" data-name="Group 16610" transform="translate(155.403 98.89)">
        <g id="Group_16609" data-name="Group 16609" clip-path="url(#clip-path-10)">
          <rect id="Rectangle_6404" data-name="Rectangle 6404" width="7.288" height="6.69" transform="translate(-0.602 6.715) rotate(-84.877)" fill="url(#linear-gradient-3)"/>
        </g>
      </g>
      <g id="Group_16612" data-name="Group 16612" transform="translate(151.645 167.624)">
        <g id="Group_16611" data-name="Group 16611" clip-path="url(#clip-path-11)">
          <rect id="Rectangle_6405" data-name="Rectangle 6405" width="5.582" height="8.263" transform="translate(-0.431 0.023) rotate(-3.094)" fill="url(#linear-gradient-4)"/>
        </g>
      </g>
      <g id="Group_16614" data-name="Group 16614" transform="translate(0 0)">
        <g id="Group_16613" data-name="Group 16613" clip-path="url(#clip-path)">
          <path id="Path_758" data-name="Path 758" d="M1634.364,2397.7a1.626,1.626,0,0,1,.389.951,1.546,1.546,0,0,1-.117.637c-.351.924-.9,1.046-1.5,2.026-.364.6-.295.78-.628,1.05a2.18,2.18,0,0,1-1.43.382,25.37,25.37,0,0,1-3.308-.187q1.108-1.428,2.36-2.9.55-.643,1.1-1.255l2.172-.734.961.026" transform="translate(-1505.413 -2217.438)" fill="#26264f"/>
        </g>
      </g>
      <g id="Group_16616" data-name="Group 16616" transform="translate(123.018 169.711)">
        <g id="Group_16615" data-name="Group 16615" clip-path="url(#clip-path-13)">
          <rect id="Rectangle_6407" data-name="Rectangle 6407" width="6.523" height="13.659" transform="translate(-0.72 0.039) rotate(-3.094)" fill="url(#linear-gradient-5)"/>
        </g>
      </g>
      <g id="Group_16618" data-name="Group 16618" transform="translate(119.126 97.562)">
        <g id="Group_16617" data-name="Group 16617" clip-path="url(#clip-path-14)">
          <rect id="Rectangle_6408" data-name="Rectangle 6408" width="37.179" height="74.728" transform="translate(0 0)" fill="url(#linear-gradient-6)"/>
        </g>
      </g>
      <g id="Group_16625" data-name="Group 16625" transform="translate(0 0)">
        <g id="Group_16624" data-name="Group 16624" clip-path="url(#clip-path)">
          <path id="Path_761" data-name="Path 761" d="M1588.088,1299.162s-3.336,2.985-3.336,15.275,1.58,38.977,1.58,38.977l2.529,19.107a16.715,16.715,0,0,0,4.377-.434c1.58-7.2,4.155-19.375,2.926-29.559-.527-11.061,4.389-24.932,4.389-24.932s4.214,14.046,7.2,21.069,8.667,29.024,9.194,30.6c3.492.317,4.984-.607,4.984-.607s-2.24-23.677-4.346-32.631-1.931-30.55-5.443-36.7c-7.9-3.16-24.053-.175-24.053-.175" transform="translate(-1465.626 -1200.324)" fill="#e00000"/>
          <g id="Group_16623" data-name="Group 16623" transform="translate(119.126 97.563)" opacity="0.37" style="mix-blend-mode: multiply;isolation: isolate">
            <g id="Group_16622" data-name="Group 16622">
              <g id="Group_16621" data-name="Group 16621" clip-path="url(#clip-path-16)">
                <g id="Group_16620" data-name="Group 16620" transform="translate(0 0)">
                  <g id="Group_16619" data-name="Group 16619" clip-path="url(#clip-path-17)">
                    <rect id="Rectangle_6409" data-name="Rectangle 6409" width="69.318" height="81.791" transform="matrix(0.859, -0.512, 0.512, 0.859, -32.112, 17.41)" fill="url(#linear-gradient-7)"/>
                  </g>
                </g>
              </g>
            </g>
          </g>
          <path id="Path_763" data-name="Path 763" d="M2024.52,2362.466s-.513,0-.47.663-.231,2.943,2.377,3.049a7.98,7.98,0,0,0,3.1-.185,21.373,21.373,0,0,0-.684-2.181l-.834-1.069-2.245-.235Z" transform="translate(-1871.9 -2184.879)" fill="#26264f"/>
          <path id="Path_764" data-name="Path 764" d="M2031.389,2317.526a8.293,8.293,0,0,0-.674-2.115c-.46-1.036-.083-1.424-.522-2.367a2.812,2.812,0,0,0-.622-.942,2.7,2.7,0,0,0-1.842-.7,1.87,1.87,0,0,0-.867.2,2.025,2.025,0,0,0-.78.823,9.128,9.128,0,0,0-.628,1.864,4.607,4.607,0,0,0-.233,1.2c.684,0,3.314.107,3.87.513a2.179,2.179,0,0,1,.834,1.775c0,.684.342,1,.684.983a1.123,1.123,0,0,0,.781-1.239" transform="translate(-1872.985 -2137.651)" fill="#444b8c"/>
          <path id="Path_765" data-name="Path 765" d="M1628.706,2355.922c.587.009,1.018.477,1.343,1.6s1.885,2.124.065,1.885-3.142,2.34-3.792,3.294-2.4,1.8-2.352.869.813-1.367,1.03-2.321,2.366-5.352,3.706-5.331" transform="translate(-1501.896 -2178.828)" fill="#444b8c"/>
          <path id="Path_766" data-name="Path 766" d="M1819.245,813.846c.432-1.2,3.128-9.09-1.229-16.285a19.392,19.392,0,0,0-10.62-8.071c-5.358-1.582-8.043.451-9.733-1.42-2.869-3.174.381-13.988,6.666-16.154,7.085-2.441,15.584,6.947,19.028,13.113a28.432,28.432,0,0,1,3.145,17.786,27.753,27.753,0,0,1-3.429,9.6l-3.827,1.431" transform="translate(-1661.559 -713.524)" fill="#ffe5ab"/>
          <path id="Path_767" data-name="Path 767" d="M1562.029,755.361c-6.324-.253-11.2-.153-13.956,2.6-2.91,2.908.031,6.191-.6,13.8-.967,11.645-8.388,14.491-8.947,26.305a30.166,30.166,0,0,0,1.009,9.194,31.751,31.751,0,0,0,8.228,7.284c5.725,3.483,9.044,2.876,17.266,5.126,13.448,3.68,14.645,8.063,21.313,6.947,6.739-1.129,12.652-6.8,11.938-9.914-.428-1.865-3.145-1.337-6.272-4.182-4.031-3.666-2.477-7.166-5.542-11.106-4.4-5.659-10.535-2.2-14.287-7.1-3.795-4.961-2.29-14.738.909-20.067,2.089-3.481,2.984-7.56,4.762-11.209a2.534,2.534,0,0,0,.244-1.422c-.289-2.377-4.251-3.666-7.251-4.612a35.773,35.773,0,0,0-8.812-1.637" transform="translate(-1422.845 -698.496)" fill="#ffe5ab"/>
        </g>
      </g>
      <g id="Group_16627" data-name="Group 16627" transform="translate(133.858 56.22)">
        <g id="Group_16626" data-name="Group 16626" clip-path="url(#clip-path-18)">
          <rect id="Rectangle_6412" data-name="Rectangle 6412" width="10.472" height="8.434" transform="translate(-1.627 1.024) rotate(-32.176)" fill="url(#linear-gradient-8)"/>
        </g>
      </g>
      <g id="Group_16629" data-name="Group 16629" transform="translate(135.051 46.815)">
        <g id="Group_16628" data-name="Group 16628" clip-path="url(#clip-path-19)">
          <rect id="Rectangle_6413" data-name="Rectangle 6413" width="14.158" height="13.356" transform="translate(-5.273 7.886) rotate(-56.445)" fill="url(#linear-gradient-9)"/>
        </g>
      </g>
      <g id="Group_16631" data-name="Group 16631" transform="translate(138.058 50.694)">
        <g id="Group_16630" data-name="Group 16630" clip-path="url(#clip-path-20)">
          <rect id="Rectangle_6414" data-name="Rectangle 6414" width="2.466" height="2.633" transform="matrix(0.34, -0.94, 0.94, 0.34, -0.902, 1.637)" fill="url(#linear-gradient-10)"/>
        </g>
      </g>
      <g id="Group_16633" data-name="Group 16633" transform="translate(136.861 44.989)">
        <g id="Group_16632" data-name="Group 16632" clip-path="url(#clip-path-21)">
          <rect id="Rectangle_6415" data-name="Rectangle 6415" width="81.784" height="71.22" transform="matrix(0.846, -0.533, 0.533, 0.846, -17.571, 9.757)" fill="url(#linear-gradient-11)"/>
        </g>
      </g>
      <g id="Group_16640" data-name="Group 16640" transform="translate(0 0)">
        <g id="Group_16639" data-name="Group 16639" clip-path="url(#clip-path)">
          <path id="Path_772" data-name="Path 772" d="M1359.047,482.22A18.227,18.227,0,0,0,1374.6,502.7c5.524.835,7.906-1.546,9.836.076,3.276,2.753,1.535,13.908-4.395,16.913-6.684,3.387-16.387-4.75-20.642-10.388a28.43,28.43,0,0,1-5.547-17.189,27.753,27.753,0,0,1,2.085-9.979,4.928,4.928,0,0,1,3.108.088" transform="translate(-1252.08 -445.696)" fill="#ffe5ab"/>
          <g id="Group_16638" data-name="Group 16638" transform="translate(115.648 85.548)" opacity="0.3" style="mix-blend-mode: multiply;isolation: isolate">
            <g id="Group_16637" data-name="Group 16637">
              <g id="Group_16636" data-name="Group 16636" clip-path="url(#clip-path-23)">
                <g id="Group_16635" data-name="Group 16635" transform="translate(0 0)">
                  <g id="Group_16634" data-name="Group 16634" clip-path="url(#clip-path-24)">
                    <rect id="Rectangle_6416" data-name="Rectangle 6416" width="71.615" height="64.823" transform="translate(-17.338 8.355) rotate(-25.934)" fill="url(#linear-gradient-12)"/>
                  </g>
                </g>
              </g>
            </g>
          </g>
          <path id="Path_774" data-name="Path 774" d="M995.5,641.933a4.653,4.653,0,1,1,4.151-4.151,4.652,4.652,0,0,1-4.151,4.151" transform="translate(-915.924 -585.095)" fill="#15223f"/>
          <path id="Path_775" data-name="Path 775" d="M586.19,802.627a4.6,4.6,0,0,1-4.588-4.62V779.075a4.6,4.6,0,0,1,4.578-4.63h.009a4.517,4.517,0,0,1,4.434,4.511v19.168a4.517,4.517,0,0,1-4.434,4.511Z" transform="translate(-537.883 -716.23)" fill="red"/>
          <path id="Path_776" data-name="Path 776" d="M587.382,645.387a4.512,4.512,0,1,1,4.025-4.027,4.512,4.512,0,0,1-4.025,4.027" transform="translate(-538.627 -588.549)" fill="red"/>
          <path id="Path_777" data-name="Path 777" d="M623.9,851.989a4.482,4.482,0,0,1-3.19-1.319L608.744,838.7,596.773,850.67a4.51,4.51,0,0,1-6.378-6.378l15.159-15.159a4.518,4.518,0,0,1,6.38,0l15.159,15.159a4.508,4.508,0,0,1-3.19,7.7Z" transform="translate(-544.794 -765.587)" fill="red"/>
          <path id="Path_778" data-name="Path 778" d="M992.724,783.615a1.348,1.348,0,0,1-.4-.953v-3.587a4.516,4.516,0,0,1,4.511-4.511h.166a4.623,4.623,0,0,1,4.348,4.648v11.922a.459.459,0,0,1-.784.325Z" transform="translate(-917.736 -716.34)" fill="#15223f"/>
        </g>
      </g>
    </g>
  </g>
</svg>
