<svg xmlns="http://www.w3.org/2000/svg" width="16" height="16" viewBox="0 0 16 16">
  <g id="phone" transform="translate(20.365 -4.365) rotate(90)">
    <path id="Path_550" data-name="Path 550" d="M19.907,6.028l-.026-.017L16.54,4.365,12.933,9.173l1.659,2.212a3.416,3.416,0,0,1-3.207,3.207L9.173,12.934,4.365,16.54,6,19.853l.014.028.017.026a.968.968,0,0,0,.825.458h.862a12.65,12.65,0,0,0,12.65-12.65V6.853a.968.968,0,0,0-.457-.825ZM19.13,7.715A11.428,11.428,0,0,1,7.715,19.13h-.7L5.925,16.913l3.248-2.436,1.808,1.356h.206a4.651,4.651,0,0,0,4.646-4.646v-.206L14.477,9.173l2.436-3.248L19.13,7.018Z" fill="#fff"/>
  </g>
</svg>
