<svg xmlns="http://www.w3.org/2000/svg" width="14.502" height="12.553" viewBox="0 0 14.502 12.553">
  <path id="Path_530" data-name="Path 530" d="M2.468,8.118A7.8,7.8,0,0,1,8.551,4V1.4L13.1,5.952,8.551,10.5V7.836a13.2,13.2,0,0,0-1.4.072,8.257,8.257,0,0,0-3.6,1.177A7.648,7.648,0,0,0,1.4,11.15,10.831,10.831,0,0,1,2.468,8.118m4.679,1.2V10.5a1.4,1.4,0,0,0,2.4.992l4.549-4.548a1.4,1.4,0,0,0,0-1.984L9.543.411a1.4,1.4,0,0,0-2.4.992V2.851A9.074,9.074,0,0,0,2.459,5.678a11.147,11.147,0,0,0-2.431,5.2,1.4,1.4,0,0,0,2.518,1.091,6.174,6.174,0,0,1,4.6-2.646" transform="translate(0 0)" fill="#23262a" fill-rule="evenodd"/>
</svg>
