<svg xmlns="http://www.w3.org/2000/svg" width="15.035" height="15" viewBox="0 0 15.035 15">
  <g id="whatsapp" transform="translate(0 -0.333)">
    <path id="Path_551" data-name="Path 551" d="M12.835,2.516a7.145,7.145,0,0,1,2.2,5.264,7.145,7.145,0,0,1-2.2,5.264,7.253,7.253,0,0,1-5.3,2.183,7.231,7.231,0,0,1-3.556-.915L0,15.333,1.056,11.5A7.4,7.4,0,0,1,.07,7.763,7.154,7.154,0,0,1,2.254,2.516,7.2,7.2,0,0,1,7.535.333,7.253,7.253,0,0,1,12.835,2.516ZM7.535,13.96a6.031,6.031,0,0,0,4.4-1.813,5.943,5.943,0,0,0,1.831-4.384,5.943,5.943,0,0,0-1.831-4.384,6.031,6.031,0,0,0-4.4-1.813A5.972,5.972,0,0,0,3.151,3.379,5.972,5.972,0,0,0,1.338,7.763a6.1,6.1,0,0,0,.951,3.31l.141.211L1.8,13.573l2.359-.6.211.106A6.091,6.091,0,0,0,7.535,13.96Zm3.415-4.648a1.1,1.1,0,0,1,.352.246q.141.211-.106.88a1.211,1.211,0,0,1-.528.546,2.466,2.466,0,0,1-.739.335,3.141,3.141,0,0,1-1.162-.07q-.6-.211-1.056-.387-.282-.141-.546-.3t-.511-.317A4.6,4.6,0,0,1,6.2,9.911q-.211-.176-.4-.352t-.37-.37q-.176-.194-.3-.335t-.246-.3q-.123-.158-.194-.246a1.6,1.6,0,0,1-.123-.176l-.053-.088a3.258,3.258,0,0,1-.775-1.937A2.206,2.206,0,0,1,4.4,4.559a.633.633,0,0,1,.493-.246,1.481,1.481,0,0,1,.352.035.453.453,0,0,1,.423.317,3.031,3.031,0,0,1,.211.458l.246.616.106.3a.317.317,0,0,1,.035.317,1.142,1.142,0,0,1-.176.317l-.106.106L5.88,6.9l-.07.088Q5.6,7.2,5.7,7.376a5.343,5.343,0,0,0,1.056,1.3,8.072,8.072,0,0,0,1.514.915.326.326,0,0,0,.387-.035q.423-.528.6-.739a.319.319,0,0,1,.423-.106Q9.894,8.819,10.951,9.312Z" fill="#57af74"/>
  </g>
</svg>
