<svg xmlns="http://www.w3.org/2000/svg" viewBox="0 0 27.617 18.412">
  <g id="americanexpress-color" transform="translate(0 0)">
    <rect id="Rectangle" width="27" height="18" rx="4" transform="translate(0.34 0.33)" fill="#fff"/>
    <g id="amex" transform="translate(0 0)">
      <path id="Path" d="M5.109,10.3v4.695H9.862l.495-.7.483.7h2.906V13.935h.322a2.836,2.836,0,0,0,.863-.127v1.185H16.9v-.84l.667.84h8.987a1.927,1.927,0,0,0,1.047-.288v1.979a2.3,2.3,0,0,1-2.238,1.726H2.3A2.3,2.3,0,0,1,0,16.11V8.861H1.312l.27-.7h.644l.265.7H13.043v-.84l.667.84h2.767V8.435a2.3,2.3,0,0,0,1.392.426h1.651l.265-.7h.644l.282.7h2.819V7.952l.575.909h1.945V4.166H23.987v.955l-.616-.955H21.565V5.374l-.575-1.208H17.917a2.232,2.232,0,0,0-1.438.472V4.166H6.329L5.984,5.178,5.639,4.143h-2.3V5.351L2.8,4.143H.921L0,6.329V2.3A2.3,2.3,0,0,1,2.3,0H25.368a2.3,2.3,0,0,1,2.25,1.726V10.3H10.851l-.495.69-.483-.69Z" transform="translate(0 0)" fill="#296db6"/>
      <path id="Shape" d="M17.815,3.275q-.041,0-.083,0h-1.68V2.581h1.68a.3.3,0,0,0,.059.006.293.293,0,1,0-.059-.581h-.759a.9.9,0,0,1-1.013-.955A1,1,0,0,1,17.077.038h1.686l-.311.691h-1.4A.3.3,0,0,0,17,.723a.293.293,0,1,0,.059.581h.753V1.281a.917.917,0,0,1,.122-.008.89.89,0,0,1,.891.94,1.005,1.005,0,0,1-1,1.062Zm2.989-.01c-.034,0-.068,0-.1-.005H19.05V2.569h1.663a.288.288,0,0,0,.058.006.293.293,0,1,0-.058-.581H19.97a.9.9,0,0,1-1.012-.955,1,1,0,0,1,1-1.019,1.006,1.006,0,0,1,.115.007H21.76l-.311.7h-1.4L20.034.705a.293.293,0,1,0,0,.576h.783a.931.931,0,0,1,.943.541v.772A1.02,1.02,0,0,1,20.8,3.265ZM6.272,3.26h-.99L4.5,2.213,3.717,3.249H2.773L4.039,1.637,2.722,0H3.7l.8,1.023.806-1h.955l-1.3,1.61L6.27,3.258Zm4.258-.01H9.747V.038h1.761A1.044,1.044,0,0,1,11.63.031a1.031,1.031,0,0,1,.118,2.056l1.086,1.16-.982,0L10.886,2.1h-.356V3.249Zm0-2.556v.748h.908V1.407a.363.363,0,0,0,.053,0,.35.35,0,0,0,.35-.36.357.357,0,0,0-.4-.357Zm5.109,2.555H13.02V.038h2.618V.729L13.815.705v.576h1.778v.7H13.815v.575h1.824v.69Zm-8.441,0H6.41V.027H8.2V0c.03,0,.06,0,.089,0a1.032,1.032,0,0,1,.719.29,1.044,1.044,0,0,1,.32.8,1.073,1.073,0,0,1-1.071,1.1q-.04,0-.08,0H7.2V3.247ZM7.2.694v.817H8.13V1.488a.4.4,0,0,0,0-.794ZM2.607,3.249H0V0H2.607v.69L.783.705v.576H2.572v.7H.783v.575H2.607v.69Z" transform="translate(5.857 11.021)" fill="#296db6"/>
      <path id="Shape-2" data-name="Shape" d="M22.957,3.277h-.772V.032h.961L24.3,1.758l.219.369V.009h.8V3.254h-.949l-1.2-1.83-.207-.356V3.276Zm-.921,0H21.15L20.875,2.6H19.338l-.275.657h-.841L19.614.009H20.65l1.386,3.267ZM20.1.677h0l-.207.506-.3.759H20.6l-.311-.759L20.1.677ZM3.826,3.277H2.94L2.664,2.6H1.151l-.3.657H0L1.41.009H2.434L3.825,3.276ZM1.893.677h0l-.207.506-.317.759H2.411L2.1,1.183,1.893.677Zm15.82,2.58a1.439,1.439,0,0,1-1.43-1.6V1.609a1.468,1.468,0,0,1,1.461-1.6l.092,0h.909v.7h-.89a.815.815,0,0,0-.59.255.8.8,0,0,0-.211.644v.046a.806.806,0,0,0,.8.91h.3l-.317.691H17.79Zm-5.175,0h-.8V.009h1.755a1.02,1.02,0,0,1,1.151,1.024,1,1,0,0,1-.887,1.024l1.081,1.2-.977,0L12.894,2.1h-.356V3.254Zm0-2.556v.714h.908a.352.352,0,0,0,.4-.357A.363.363,0,0,0,13.487.7l-.041,0Zm-7.8,2.556H3.976V.009H5.248l.644,1.876.1.357.1-.357L6.732.009h1.26V3.253h-.76V.63l-.149.5L6.329,3.254H5.638L4.9,1.125,4.741.63V3.254Zm11.07,0h-.788V.009h.788V3.253Zm-4.592,0H8.63V.009h2.589V.7L9.4.711v.576h1.778v.7H9.4v.576h1.824v.69Z" transform="translate(0 4.882)" fill="#296db6"/>
    </g>
  </g>
</svg>
