<svg id="circlearrowright" xmlns="http://www.w3.org/2000/svg" viewBox="0 0 46.728 46.728">
  <path id="Trazado_157" data-name="Trazado 157" d="M23.364,46.728A23.292,23.292,0,0,1,3.126,35.092,22.952,22.952,0,0,1,0,23.364,23.292,23.292,0,0,1,11.636,3.126,22.952,22.952,0,0,1,23.364,0,23.292,23.292,0,0,1,43.6,11.636a22.952,22.952,0,0,1,3.126,11.728A23.292,23.292,0,0,1,35.092,43.6,22.952,22.952,0,0,1,23.364,46.728ZM37.921,23.09v-.183a.508.508,0,0,0-.046-.228.375.375,0,0,0-.023-.114.248.248,0,0,0-.046-.091.281.281,0,0,1-.046-.114.624.624,0,0,1-.023-.137,2.663,2.663,0,0,0-.593-1L28.429,12.5a2.966,2.966,0,0,0-5.065,2.1,2.859,2.859,0,0,0,.867,2.1l3.742,3.742H11.682a2.921,2.921,0,0,0,0,5.841H27.973l-3.742,3.742a2.969,2.969,0,0,0,4.2,4.2l8.716-8.716A2.756,2.756,0,0,0,37.921,23.09Z" transform="translate(0 0)" fill="#15223f"/>
</svg>
