<svg id="Group_16402" data-name="Group 16402" xmlns="http://www.w3.org/2000/svg" xmlns:xlink="http://www.w3.org/1999/xlink" viewBox="0 0 28.437 30">
  <defs>
    <clipPath id="clip-path">
      <rect id="Rectangle_6310" data-name="Rectangle 6310" width="28.437" height="30" fill="none"/>
    </clipPath>
  </defs>
  <g id="Group_16401" data-name="Group 16401" clip-path="url(#clip-path)">
    <path id="Path_597" data-name="Path 597" d="M22.084,30a3.347,3.347,0,0,1-3.192-2.8.463.463,0,0,0-.445-.335H9.981a.463.463,0,0,0-.455.379,3.245,3.245,0,0,1-1.406,2.214A3.062,3.062,0,0,1,6.377,30c-.067,0-.135,0-.2-.006a3.251,3.251,0,0,1-2.986-2.759.463.463,0,0,0-.456-.379H1.7a1.633,1.633,0,0,1-1.694-1.69l0-.554C0,23.453-.005,22.255.011,21.079a2.6,2.6,0,0,1,1.683-2.531.9.9,0,0,0,.563-.7,7.436,7.436,0,0,1,1.315-3.06A4,4,0,0,1,6.939,13.1c.949,0,1.888,0,2.828,0H15.6a4.7,4.7,0,0,1,3.416,1.407q.872.866,1.74,1.736.961.961,1.925,1.919a1.9,1.9,0,0,0,.607.4c.671.274,1.345.542,2.018.81q.647.258,1.293.517a2.7,2.7,0,0,1,1.84,2.736v.621c0,.633,0,1.265,0,1.9a1.631,1.631,0,0,1-1.712,1.706h-1a.464.464,0,0,0-.445.336C24.742,29.055,23.668,30,22.085,30Zm-.008-5.24a2.04,2.04,0,0,0-2.025,2.064,2.032,2.032,0,1,0,2.034-2.064Zm-15.717,0a2.032,2.032,0,0,0-1.448,3.461,2.018,2.018,0,0,0,1.439.608A2.032,2.032,0,0,0,7.8,25.368a2.016,2.016,0,0,0-1.44-.608Zm7.7.925q2.245,0,4.49.005a.848.848,0,0,0,.707-.379c.076-.1.145-.184.214-.273a4.325,4.325,0,0,1,.746-.818,3.093,3.093,0,0,1,1.874-.637,3.2,3.2,0,0,1,2.767,1.623.929.929,0,0,0,.657.467c.172.012.354.017.589.017l.339,0,.359,0a.463.463,0,0,0,.463-.463V24.5c0-.631,0-1.247,0-1.863a1.532,1.532,0,0,0-1.111-1.65q-.575-.232-1.153-.461c-.786-.313-1.6-.637-2.39-.968a1.876,1.876,0,0,1-.579-.382c-1.142-1.123-2.362-2.34-3.728-3.721a3.857,3.857,0,0,0-2.837-1.18h-.017q-1.867.007-3.734.006H7.035a3.9,3.9,0,0,0-.629.04A3.238,3.238,0,0,0,4,16.3a7.743,7.743,0,0,0-.719,2.6.6.6,0,0,1-.582.613,1.513,1.513,0,0,0-1.519,1.655q0,1.3,0,2.6v1.452a.463.463,0,0,0,.463.463l.678,0c.259,0,.458,0,.644-.012a.8.8,0,0,0,.6-.422,3.254,3.254,0,0,1,2.8-1.668,3.232,3.232,0,0,1,2.79,1.668.8.8,0,0,0,.754.435q2.082,0,4.158,0m-2.892-2.293q.234-1.11.467-2.221c.012-.058.02-.117.03-.2,0-.034.009-.072.015-.118a.463.463,0,0,0-.459-.527H9.688c.6-.656,1.22-1.315,1.818-1.955l1.669-1.786c-.147.556-.291,1.111-.44,1.681l-.191.733a.463.463,0,0,0,.448.58H13.4l.4,0,.39,0c.141,0,.267,0,.382,0-.921,1.037-1.864,2.09-2.778,3.109Zm14.073-13.3a.74.74,0,0,1-.55-.338,12.958,12.958,0,0,1-2.515-4.809,3.449,3.449,0,0,1,.58-3.247A3.2,3.2,0,0,1,25.235.522a3.162,3.162,0,0,1,1.086.192,3.294,3.294,0,0,1,2.113,3.246A7.515,7.515,0,0,1,27.35,7.315a27.95,27.95,0,0,1-1.6,2.451.676.676,0,0,1-.513.328m0-8.4a1.992,1.992,0,0,0-.3.022,2.052,2.052,0,0,0-1.729,2.374,9.518,9.518,0,0,0,1.622,3.876.464.464,0,0,0,.389.217h0a.464.464,0,0,0,.389-.211,10.561,10.561,0,0,0,1.479-3.1,3.976,3.976,0,0,0,.129-1.461A1.986,1.986,0,0,0,25.238,1.69m-3.95,8.394-.224,0-.234,0-5.712,0q-1.992,0-3.984,0a2.762,2.762,0,0,1-1.971-.8A2.645,2.645,0,0,1,8.4,7.387,2.675,2.675,0,0,1,11,4.723c.447-.007.936-.01,1.538-.01l.981,0,.983,0,.719,0a1.577,1.577,0,0,0,1.322-.7,1.447,1.447,0,0,0,.115-1.387A1.5,1.5,0,0,0,15.2,1.692H4.911c-.343,0-.709-.154-.71-.584A.527.527,0,0,1,4.371.7.8.8,0,0,1,4.908.524H10.2l1.532,0,1.53,0q1.015,0,2.029.008a2.677,2.677,0,0,1,.038,5.354c-.468.007-.98.01-1.611.01l-1.018,0-1.02,0h-.571A1.514,1.514,0,0,0,9.617,7.011,1.472,1.472,0,0,0,10.33,8.7a2.009,2.009,0,0,0,.9.206c2.5.007,5.044.007,7.5.007h2.722a1.23,1.23,0,0,1,.227.015.582.582,0,0,1-.089,1.151c-.1.006-.2.007-.3.007M1.107,2.217a1.112,1.112,0,1,1,.007,0Z" transform="translate(0)"/>
  </g>
</svg>
