<svg xmlns="http://www.w3.org/2000/svg" xmlns:xlink="http://www.w3.org/1999/xlink" width="37.711" height="30" viewBox="0 0 37.711 30">
  <defs>
    <clipPath id="clip-path">
      <rect id="Rectángulo_6238" data-name="Rectángulo 6238" width="37.711" height="30" fill="none"/>
    </clipPath>
  </defs>
  <g id="Grupo_16286" data-name="Grupo 16286" transform="translate(0 0)">
    <g id="Grupo_16285" data-name="Grupo 16285" transform="translate(0 0)" clip-path="url(#clip-path)">
      <path id="Trazado_533" data-name="Trazado 533" d="M4.855,30c-.383,0-.7,0-.991-.012a2.784,2.784,0,0,1-2.74-2.751c-.014-.616-.011-1.245-.008-1.854q0-.3,0-.59c0-.092,0-.185,0-.277a6.645,6.645,0,0,0-.572-3.327A3.664,3.664,0,0,1,.283,19.6c-.011-1.1.034-2.219.078-3.3q.013-.328.026-.656A1.334,1.334,0,0,1,.5,15.106a2.058,2.058,0,0,0-.2-2.293A2.009,2.009,0,0,1,.27,10.751,2.336,2.336,0,0,1,2.28,9.5,1.663,1.663,0,0,0,3.933,8.424c.828-1.658,1.735-3.395,2.773-5.31A5.428,5.428,0,0,1,11.685.04C14.24.013,16.752,0,19.153,0c2.425,0,4.823.014,7.128.042a5.581,5.581,0,0,1,5.2,3.4c.367.739.743,1.487,1.108,2.211.529,1.052,1.076,2.139,1.6,3.214a1.04,1.04,0,0,0,1.056.586h.015a2.561,2.561,0,0,1,2.04,1.1,2.148,2.148,0,0,1,.293,1.944c-.011.033-.022.067-.033.1s-.029.094-.042.121a1.735,1.735,0,0,0-.4,1.9c.025.109.051.221.071.33.446,2.46.775,5.066-.5,7.5a1.875,1.875,0,0,0-.154.852c0,.562,0,1.132,0,1.683,0,.615,0,1.251,0,1.875a2.877,2.877,0,0,1-3.114,3.083h-.164c-.334,0-.668,0-1,0s-.637,0-.912-.006a2.858,2.858,0,0,1-2.965-2.979c0-.273,0-.546,0-.84,0-.144,0-.294,0-.451v-.438H9.264v.438c0,.139,0,.275,0,.409,0,.281,0,.552,0,.824a2.828,2.828,0,0,1-3.082,3.084l-.558,0c-.256,0-.512,0-.769,0M2.6,10.548a.749.749,0,0,0-.347.079l-.106.054a1.93,1.93,0,0,0-.959.787c-.123.265-.3.938.758,1.452.458.223.568.412.272,1.028l-.035.073a6.967,6.967,0,0,0-.75,2.113,16.539,16.539,0,0,0-.049,3.333,7.337,7.337,0,0,0,.364,1.589c.07.226.136.44.193.655.032.124.071.244.108.361a2.433,2.433,0,0,1,.148.642c.02.9.018,1.828.015,2.721,0,.513,0,1.044,0,1.566a1.728,1.728,0,0,0,1.9,1.911c.364.006.732.009,1.092.009s.717,0,1.07-.009a1.732,1.732,0,0,0,1.905-1.9c.01-.414.008-.832.006-1.236,0-.225,0-.45,0-.675,0-.888.1-.98.981-.98H24.238q2.189,0,4.378,0c.714,0,.849.138.853.862,0,.268,0,.536,0,.8,0,.381,0,.774,0,1.163a1.771,1.771,0,0,0,1.861,1.9c.261.007.537.01.869.01.251,0,.5,0,.754,0l.415,0a1.823,1.823,0,0,0,2.084-2.072c0-.487,0-.982,0-1.46,0-.827-.006-1.682.016-2.519a2.126,2.126,0,0,1,.164-.615c.035-.1.072-.2.1-.3.065-.205.143-.409.226-.624a5.8,5.8,0,0,0,.421-1.483,14.915,14.915,0,0,0-.007-3.279,8.382,8.382,0,0,0-.781-2.493c-.326-.708-.25-.835.283-1.17.257-.161.786-.683.687-1.184a1.714,1.714,0,0,0-.887-.989,1.04,1.04,0,0,0-.489-.107,2.841,2.841,0,0,0-.576.075,2.181,2.181,0,0,1-.421.055h0c-.168,0-.291,0-.536-.488-.808-1.6-1.625-3.236-2.416-4.814L30.47,3.848a4.572,4.572,0,0,0-4.242-2.724c-2.3-.015-4.679-.023-7.078-.023s-4.886.008-7.407.023a4.47,4.47,0,0,0-4.1,2.534C6.91,5.039,6.173,6.448,5.459,7.812Q4.843,8.99,4.225,10.168c-.3.573-.407.573-.553.573a2.406,2.406,0,0,1-.569-.1l-.038-.01a1.805,1.805,0,0,0-.464-.08" transform="translate(0 0.001)"/>
    </g>
  </g>
</svg>
