<svg xmlns="http://www.w3.org/2000/svg" viewBox="0 0 19.482 18.09">
  <g id="check2-square" transform="translate(-4.5 -4.5)">
    <g id="Grupo_16865" data-name="Grupo 16865" transform="translate(4.5 4.5)">
      <path id="Trazado_807" data-name="Trazado 807" d="M6.587,22.59A2.087,2.087,0,0,1,4.5,20.5V6.587A2.087,2.087,0,0,1,6.587,4.5H17.719a.7.7,0,1,1,0,1.392H6.587a.7.7,0,0,0-.7.7V20.5a.7.7,0,0,0,.7.7H20.5a.7.7,0,0,0,.7-.7V13.545a.7.7,0,0,1,1.392,0V20.5A2.087,2.087,0,0,1,20.5,22.59Z" transform="translate(-4.5 -4.5)" fill="#15223f"/>
      <path id="Trazado_808" data-name="Trazado 808" d="M18.862,18.428,28.6,8.687a.7.7,0,1,0-.985-.985l-9.248,9.249-3.682-3.683a.7.7,0,0,0-.985.985l4.175,4.175a.7.7,0,0,0,.985,0Z" transform="translate(-9.324 -6.107)" fill="#15223f"/>
    </g>
  </g>
</svg>
