<svg xmlns="http://www.w3.org/2000/svg" width="26.117" height="26.117" viewBox="0 0 26.117 26.117">
  <path id="Trazado_463" data-name="Trazado 463" d="M53.117,41.924V38.193H49.2a9.268,9.268,0,0,0-1.366-3.27l2.78-2.78-2.638-2.638-2.78,2.78a9.268,9.268,0,0,0-3.27-1.366V27H38.193v3.919a9.268,9.268,0,0,0-3.27,1.366l-2.78-2.78-2.638,2.638,2.78,2.78a9.268,9.268,0,0,0-1.366,3.27H27v3.731h3.919a9.268,9.268,0,0,0,1.366,3.27l-2.78,2.78,2.638,2.638,2.78-2.78a9.268,9.268,0,0,0,3.27,1.366v3.919h3.731V49.2a9.268,9.268,0,0,0,3.27-1.366l2.78,2.78,2.638-2.638-2.78-2.78a9.268,9.268,0,0,0,1.366-3.27ZM40.059,45.655a5.6,5.6,0,1,1,5.6-5.6,5.6,5.6,0,0,1-5.6,5.6Z" transform="translate(-27 -27)"/>
</svg>
