<svg xmlns="http://www.w3.org/2000/svg" xmlns:xlink="http://www.w3.org/1999/xlink" viewBox="0 0 26.988 30">
  <defs>
    <clipPath id="clip-path">
      <rect id="Rectángulo_6239" data-name="Rectángulo 6239" width="26.988" height="30" fill="none"/>
    </clipPath>
  </defs>
  <g id="Grupo_16288" data-name="Grupo 16288" transform="translate(0.002)">
    <g id="Grupo_16287" data-name="Grupo 16287" transform="translate(-0.002)" clip-path="url(#clip-path)">
      <path id="Trazado_534" data-name="Trazado 534" d="M25.151,30H1.837a6.081,6.081,0,0,1-1.031-.516A2.165,2.165,0,0,1,0,27.627Q.01,16.016,0,4.4c0-.1,0-.2.006-.293a2.14,2.14,0,0,1,1.572-2,4.184,4.184,0,0,1,.954-.1c.5-.016,1.008,0,1.538,0,0-.26-.011-.483,0-.705a1.354,1.354,0,0,1,1.5-1.3,1.325,1.325,0,0,1,1.365,1.34c.005.212,0,.423,0,.636H20.02A6.262,6.262,0,0,1,20.092,1,1.384,1.384,0,0,1,21.73.015a1.348,1.348,0,0,1,1.182,1.319c.009.22,0,.44,0,.676.612,0,1.178-.023,1.742.009a2.924,2.924,0,0,1,1.021.2A2.178,2.178,0,0,1,26.988,4.4q-.01,11.6,0,23.193c0,.107,0,.215-.007.322a2.17,2.17,0,0,1-1.529,1.975c-.1.032-.2.07-.3.1M4.951,2.9c0,.378,0,.727,0,1.076,0,.483.061.559.532.674a.431.431,0,0,1,.356.493.409.409,0,0,1-.447.373A1.2,1.2,0,0,1,5.1,5.481,1.335,1.335,0,0,1,4.074,4.154c-.008-.415,0-.83,0-1.266-.6,0-1.157,0-1.712,0A1.334,1.334,0,0,0,.883,4.351q0,1.816,0,3.632c0,.094.01.189.016.309h.369q2.065,0,4.13,0a1.472,1.472,0,0,1,.349.026.428.428,0,0,1-.01.828,1.644,1.644,0,0,1-.349.022q-2.065,0-4.129,0H.9c-.006.12-.014.206-.014.292q0,8.245,0,16.49a1.311,1.311,0,0,0,1.407,1.41q8.45,0,16.9,0a1.009,1.009,0,0,0,1.1-1.116c0-.888,0-1.777,0-2.665a1.885,1.885,0,0,1,2.025-2.031c.869,0,1.738,0,2.607,0a1.03,1.03,0,0,0,1.183-1.182q0-5.433,0-10.866c0-.1-.01-.205-.017-.33H7.7a2.524,2.524,0,0,1-.38-.016A.427.427,0,0,1,7.3,8.314a2.1,2.1,0,0,1,.379-.02H26.106V7.983c0-1.211,0-2.421,0-3.632a1.333,1.333,0,0,0-1.478-1.463q-1.7,0-3.4,0h-.309c0,.389,0,.738,0,1.088,0,.5.038.549.526.674a.435.435,0,0,1-.1.864,1.18,1.18,0,0,1-.289-.034A1.309,1.309,0,0,1,20.046,4.21c-.01-.435,0-.869,0-1.312ZM26.106,23.075c-.133.125-.211.194-.284.268-1.367,1.367-2.741,2.726-4.1,4.1a2.559,2.559,0,0,1-1.934.8q-8.537-.015-17.074,0A2.876,2.876,0,0,1,.879,27.8a3.186,3.186,0,0,0,.055.364,1.318,1.318,0,0,0,1.35.953q11.2,0,22.4,0a1.31,1.31,0,0,0,1.416-1.4c.006-.713,0-1.425,0-2.138V23.075m-.7-.646c-1.007,0-2.076,0-3.145,0a1,1,0,0,0-1.086,1.1c0,.917,0,1.834,0,2.752v.381L25.4,22.428M6.082,2C6,1.616,6.252,1.174,5.816.959a.78.78,0,0,0-.656.032c-.372.24-.153.651-.218,1Zm14.837-.008h1.123c-.054-.365.155-.786-.233-1.009a.789.789,0,0,0-.681.006c-.376.233-.154.65-.209,1" transform="translate(0 0.001)"/>
      <path id="Trazado_535" data-name="Trazado 535" d="M35.57,212.759c-.332,0-.664,0-1,0a.835.835,0,0,1-.889-.876q-.017-1.025,0-2.05a.827.827,0,0,1,.837-.872q1.053-.032,2.108,0a.839.839,0,0,1,.852.865c.016.693.017,1.387,0,2.079a.841.841,0,0,1-.887.854c-.342,0-.683,0-1.025,0m-.994-.9h2.006v-2.016H34.576Z" transform="translate(-31.041 -192.593)"/>
      <path id="Trazado_536" data-name="Trazado 536" d="M188.135,212.768c-.342,0-.683,0-1.025,0a.8.8,0,0,1-.864-.774c-.029-.75-.027-1.5,0-2.253a.8.8,0,0,1,.84-.772q1.039-.026,2.079,0a.837.837,0,0,1,.862.881q.018,1.025,0,2.05a.838.838,0,0,1-.9.869c-.332,0-.664,0-1,0m1-2.906h-2.017v2.008h2.017Z" transform="translate(-171.653 -192.602)"/>
      <path id="Trazado_537" data-name="Trazado 537" d="M111.851,212.764c-.342,0-.683,0-1.025,0a.816.816,0,0,1-.859-.812q-.031-1.083,0-2.167a.809.809,0,0,1,.827-.818c.7-.022,1.406-.021,2.108,0a.833.833,0,0,1,.854.86q.025,1.039,0,2.079a.839.839,0,0,1-.909.86c-.332,0-.664,0-1,0m1-2.906h-2v2.011h2Z" transform="translate(-101.347 -192.598)"/>
      <path id="Trazado_538" data-name="Trazado 538" d="M33.712,141.487c0-.342-.008-.684,0-1.025a.822.822,0,0,1,.838-.867c.7-.021,1.406-.02,2.108,0a.819.819,0,0,1,.849.831q.032,1.068,0,2.137a.821.821,0,0,1-.854.824q-1.039.023-2.079,0a.831.831,0,0,1-.862-.876c-.01-.341,0-.683,0-1.025m.9,1h2v-2.005h-2Z" transform="translate(-31.071 -128.657)"/>
      <path id="Trazado_539" data-name="Trazado 539" d="M111.809,143.385c-.322,0-.644.006-.966,0a.844.844,0,0,1-.911-.889q-.02-1.01,0-2.02a.833.833,0,0,1,.878-.89c.683-.016,1.367-.017,2.049,0a.838.838,0,0,1,.872.9q.017,1,0,1.991a.855.855,0,0,1-.927.908c-.332.007-.664,0-1,0m1.021-2.9h-2v2.009h2Z" transform="translate(-101.319 -128.649)"/>
      <path id="Trazado_540" data-name="Trazado 540" d="M266.227,141.507c0,.342.008.684,0,1.025a.827.827,0,0,1-.845.862q-1.053.025-2.108,0a.8.8,0,0,1-.837-.807c-.027-.721-.027-1.445,0-2.166a.8.8,0,0,1,.828-.816c.712-.021,1.425-.022,2.137,0a.82.82,0,0,1,.827.877c.008.341,0,.683,0,1.025m-2.91.992h2.012v-2.008h-2.012Z" transform="translate(-241.88 -128.665)"/>
      <path id="Trazado_541" data-name="Trazado 541" d="M266.26,212.635c0,.332.006.664,0,1a.831.831,0,0,1-.851.886q-1.054.024-2.108,0a.794.794,0,0,1-.828-.783c-.03-.74-.029-1.483,0-2.224a.781.781,0,0,1,.8-.779q1.082-.034,2.166,0a.824.824,0,0,1,.824.881c0,.02,0,.039,0,.059q0,.483,0,.966m-2.909.994h2.006v-2.021h-2.006Z" transform="translate(-241.912 -194.222)"/>
      <path id="Trazado_542" data-name="Trazado 542" d="M189.956,141.485c0,.342.009.684,0,1.025a.834.834,0,0,1-.869.87q-1.024.021-2.05,0a.831.831,0,0,1-.878-.862q-.029-1.039,0-2.079a.82.82,0,0,1,.853-.854q1.039-.028,2.079,0a.837.837,0,0,1,.865.9c.008.332,0,.664,0,1m-2.91,1h2.011v-2.007h-2.011Z" transform="translate(-171.576 -128.649)"/>
      <path id="Trazado_543" data-name="Trazado 543" d="M33.722,280.41c0-.351-.01-.7,0-1.052a.831.831,0,0,1,.857-.848q1.037-.016,2.075,0a.839.839,0,0,1,.863.848q.029,1.052,0,2.1a.847.847,0,0,1-.892.85q-1.008.009-2.017,0a.851.851,0,0,1-.89-.879q0-.029,0-.059,0-.482,0-.965h0m2.911-1.008H34.62v2.017h2.013Z" transform="translate(-31.08 -256.707)"/>
      <path id="Trazado_544" data-name="Trazado 544" d="M111.847,282.311c-.341,0-.682.006-1.023,0a.825.825,0,0,1-.859-.814q-.031-1.08,0-2.162a.818.818,0,0,1,.846-.826q1.052-.016,2.1,0a.808.808,0,0,1,.83.781c.026.749.027,1.5,0,2.249a.816.816,0,0,1-.842.77c-.351.009-.7,0-1.052,0m1.011-2.911h-2v2.023h2Z" transform="translate(-101.345 -256.704)"/>
      <path id="Trazado_545" data-name="Trazado 545" d="M189.06,281.363v-2.026h-2.045c0,.184.009.367,0,.55a.417.417,0,0,1-.415.439.429.429,0,0,1-.454-.433c0-.019,0-.039,0-.058-.048-.906.085-1.472,1.319-1.4.516.029,1.035,0,1.552.006a.858.858,0,0,1,.934.928c.008.644.007,1.289,0,1.933a.864.864,0,0,1-.947.945c-.654,0-1.308,0-1.962,0a.852.852,0,0,1-.882-.766.421.421,0,0,1,.3-.5.429.429,0,0,1,.534.246c.034.062.113.14.173.14.623.01,1.246.006,1.9.006" transform="translate(-171.567 -256.635)"/>
    </g>
  </g>
</svg>
