<svg xmlns="http://www.w3.org/2000/svg" width="22.366" height="28.723" viewBox="0 0 22.366 28.723">
  <path id="encrypted" d="M10.268,18.727l-.016.088h3.061l-.016-.088L12.4,13.77a2.377,2.377,0,0,0,1.147-.808A2.252,2.252,0,0,0,10.186,9.98a2.234,2.234,0,0,0-.17,2.981,2.376,2.376,0,0,0,1.146.808ZM11.76,29.186l.022.007.022-.007a15.254,15.254,0,0,0,7.922-5.873,16.541,16.541,0,0,0,3.163-9.924V4.774l-.049-.018L11.809.639l-.026-.01-.026.01L.724,4.755l-.049.018v8.615a16.54,16.54,0,0,0,3.164,9.924A15.254,15.254,0,0,0,11.76,29.186ZM18.8,22.4a13.329,13.329,0,0,1-7.019,5.4,13.329,13.329,0,0,1-7.019-5.4,15.565,15.565,0,0,1-2.786-9.014V5.66l9.805-3.636L21.588,5.66v7.728A15.565,15.565,0,0,1,18.8,22.4Z" transform="translate(-0.6 -0.549)" fill="red" stroke="red" stroke-width="0.15"/>
</svg>
