<svg xmlns="http://www.w3.org/2000/svg" xmlns:xlink="http://www.w3.org/1999/xlink" viewBox="0 0 33.433 30">
  <defs>
    <clipPath id="clip-path">
      <rect id="Rectángulo_6240" data-name="Rectángulo 6240" width="33.433" height="30" fill="none"/>
    </clipPath>
  </defs>
  <g id="Grupo_16290" data-name="Grupo 16290" transform="translate(0 0)">
    <g id="Grupo_16289" data-name="Grupo 16289" transform="translate(0 0)" clip-path="url(#clip-path)">
      <path id="Trazado_546" data-name="Trazado 546" d="M0,29.107a.913.913,0,0,1,.955-.523c.41.018.82,0,1.262,0v-.451q0-12.489,0-24.978A3.047,3.047,0,0,1,3.359.612,2.925,2.925,0,0,1,5.245,0c4.234,0,8.467-.011,12.7,0a2.907,2.907,0,0,1,3.037,3.11q.007,6.2,0,12.407v.455c.366,0,.7,0,1.034,0A3.308,3.308,0,0,1,25.4,19.363c0,.631-.013,1.263.007,1.894a2.308,2.308,0,0,0,4.616-.071c.007-3.156,0-6.312,0-9.527a2.89,2.89,0,0,1-3.07.092,2.631,2.631,0,0,1-1.223-1.514,2.757,2.757,0,0,1,.245-2.325,2.9,2.9,0,0,1,1.943-1.359L23.688,1.716,24.739.794l1.738,1.979q1.874,2.135,3.748,4.269a4.646,4.646,0,0,1,1.2,3.189c0,3.635.005,7.27,0,10.905a3.7,3.7,0,0,1-7.391.41c-.047-.825-.012-1.654-.058-2.479a1.772,1.772,0,0,0-1.643-1.655c-.43-.034-.864-.006-1.321-.006V28.587h.4q5.518,0,11.036,0a1.955,1.955,0,0,1,.515.057.675.675,0,0,1,.474.668.686.686,0,0,1-.55.643,2.207,2.207,0,0,1-.421.037Q16.725,30,.988,30C.535,30,.17,29.9,0,29.433Zm19.591-.531V27.111q0-12,0-24a1.533,1.533,0,0,0-1.689-1.7q-6.3,0-12.6,0a2.342,2.342,0,0,0-.55.046,1.551,1.551,0,0,0-1.14,1.719q0,12.52,0,25.04v.358ZM29.808,9.318a1.4,1.4,0,0,0-1.421-1.391,1.414,1.414,0,0,0-1.4,1.419,1.434,1.434,0,0,0,1.429,1.4,1.419,1.419,0,0,0,1.393-1.428" transform="translate(0 0)"/>
      <path id="Trazado_547" data-name="Trazado 547" d="M61.468,48.614H55.494c-.69,0-.933-.235-.933-.914q0-3.884,0-7.769c0-.682.241-.917.929-.917H67.437c.672,0,.922.252.923.929q0,3.868,0,7.736c0,.69-.249.934-.951.934H61.468m5.468-8.172H55.976v6.746h10.96Z" transform="translate(-49.75 -35.575)"/>
    </g>
  </g>
</svg>
