<svg xmlns="http://www.w3.org/2000/svg" width="14.838" height="14.838" viewBox="0 0 14.838 14.838">
  <g id="Grupo_409" data-name="Grupo 409" transform="translate(-3008 -614)">
    <path id="Trazado_36" data-name="Trazado 36" d="M9.411,2a7.419,7.419,0,1,0,7.426,7.419A7.415,7.415,0,0,0,9.411,2Zm5.141,4.451H12.364A11.61,11.61,0,0,0,11.34,3.81,5.957,5.957,0,0,1,14.553,6.451ZM9.419,3.513a10.451,10.451,0,0,1,1.417,2.938H8A10.451,10.451,0,0,1,9.419,3.513ZM3.677,10.9a5.8,5.8,0,0,1,0-2.968H6.184a12.252,12.252,0,0,0-.1,1.484,12.252,12.252,0,0,0,.1,1.484Zm.608,1.484H6.474A11.61,11.61,0,0,0,7.5,15.027a5.925,5.925,0,0,1-3.212-2.641ZM6.474,6.451H4.285A5.925,5.925,0,0,1,7.5,3.81,11.61,11.61,0,0,0,6.474,6.451Zm2.945,8.873A10.451,10.451,0,0,1,8,12.386h2.834A10.451,10.451,0,0,1,9.419,15.324ZM11.155,10.9H7.683a10.915,10.915,0,0,1-.119-1.484,10.82,10.82,0,0,1,.119-1.484h3.472a10.82,10.82,0,0,1,.119,1.484A10.915,10.915,0,0,1,11.155,10.9Zm.185,4.125a11.61,11.61,0,0,0,1.024-2.641h2.189A5.957,5.957,0,0,1,11.34,15.027ZM12.653,10.9a12.252,12.252,0,0,0,.1-1.484,12.252,12.252,0,0,0-.1-1.484h2.508a5.8,5.8,0,0,1,0,2.968Z" transform="translate(3006 612)" fill="#15223f"/>
  </g>
</svg>
