<svg id="how-to" xmlns="http://www.w3.org/2000/svg" viewBox="0 0 230.022 73">
  <rect id="Rectángulo_597" data-name="Rectángulo 597" width="185.822" height="73" rx="4.911" fill="#e0e1e3"/>
  <g id="Grupo_554" data-name="Grupo 554">
    <rect id="Rectángulo_598" data-name="Rectángulo 598" width="94.358" height="25.198" rx="4.32" transform="translate(135.664 18.802)" fill="#fff"/>
    <rect id="Rectángulo_599" data-name="Rectángulo 599" width="93.638" height="25.198" rx="3.96" transform="translate(136.024 19.162)" fill="#fff"/>
    <path id="Trazado_320" data-name="Trazado 320" d="M149.583,25.762h-4.8a1.8,1.8,0,0,0-1.8,1.8v9.6a.6.6,0,0,0,.3.522.6.6,0,0,0,.6,0l3.3-1.908,3.3,1.908a.616.616,0,0,0,.6,0,.6.6,0,0,0,.3-.522v-9.6a1.8,1.8,0,0,0-1.8-1.8Z" fill="#e00000"/>
    <rect id="Rectángulo_600" data-name="Rectángulo 600" width="63" height="10" rx="5" transform="translate(158.383 26.761)" fill="#f7f7f8"/>
    <rect id="Rectángulo_601" data-name="Rectángulo 601" width="93.638" height="25.198" rx="3.96" transform="translate(136.024 19.162)" fill="none" stroke="#e0e1e3" stroke-width="0.72"/>
    <rect id="Rectángulo_602" data-name="Rectángulo 602" width="93.638" height="24.478" rx="3.96" transform="translate(136.024 19.162)" fill="none" stroke="#e0e1e3" stroke-width="0.72"/>
  </g>
  <rect id="Rectángulo_603" data-name="Rectángulo 603" width="30.866" height="8.431" rx="0.905" transform="translate(99.837 18.626)" fill="#f7f7f8" stroke="#f7f7f8" stroke-width="1.132" opacity="0.5"/>
  <rect id="Rectángulo_604" data-name="Rectángulo 604" width="17.93" height="2.08" rx="1.04" transform="translate(77.091 21.985)" fill="#f7f7f8" stroke="#f7f7f8" stroke-width="0.184" opacity="0.5"/>
  <rect id="Rectángulo_605" data-name="Rectángulo 605" width="19.062" height="2.08" rx="1.04" transform="translate(105.96 21.985)" fill="#f7f7f8" stroke="#f7f7f8" stroke-width="0.184"/>
  <rect id="Rectángulo_606" data-name="Rectángulo 606" width="33.963" height="22.642" rx="1.537" transform="translate(4.911 33.214)" fill="#f7f7f8" opacity="0.6"/>
  <rect id="Rectángulo_607" data-name="Rectángulo 607" width="55.473" height="4.528" rx="2.264" transform="translate(42.837 33.214)" fill="#f7f7f8" opacity="0.6"/>
  <rect id="Rectángulo_608" data-name="Rectángulo 608" width="83.776" height="3.396" rx="1.698" transform="translate(42.837 43.403)" fill="#f7f7f8" opacity="0.6"/>
  <rect id="Rectángulo_609" data-name="Rectángulo 609" width="75.285" height="3.396" rx="1.698" transform="translate(42.837 52.46)" fill="#f7f7f8" opacity="0.6"/>
  <rect id="Rectángulo_610" data-name="Rectángulo 610" width="41.989" height="9.822" rx="1.488" transform="translate(5.525 4.911)" fill="#fff" opacity="0.4"/>
  <rect id="Rectángulo_611" data-name="Rectángulo 611" width="41.989" height="9.733" rx="1.488" transform="translate(49.97 4.911)" fill="#fff" opacity="0.4"/>
  <rect id="Rectángulo_612" data-name="Rectángulo 612" width="41.989" height="9.733" rx="1.488" transform="translate(94.414 4.911)" fill="#fff" opacity="0.6"/>
  <rect id="Rectángulo_613" data-name="Rectángulo 613" width="41.989" height="9.733" rx="1.488" transform="translate(138.858 4.911)" fill="#fff" opacity="0.7"/>
  <g id="Grupo_555" data-name="Grupo 555" opacity="0.7">
    <rect id="Rectángulo_614" data-name="Rectángulo 614" width="34" height="10" rx="1.537" transform="translate(5 63)" fill="#f7f7f8" opacity="0.6"/>
    <rect id="Rectángulo_615" data-name="Rectángulo 615" width="55.473" height="4.528" rx="2.264" transform="translate(42.837 62.649)" fill="#f7f7f8" opacity="0.6"/>
  </g>
</svg>
