<svg xmlns="http://www.w3.org/2000/svg" viewBox="0 0 7.921 7.921">
  <g id="interacciones_icon" data-name="interacciones icon" transform="translate(-379 -660.386)">
    <path id="Trazado_797" data-name="Trazado 797" d="M13.436,14.46v-.283a.283.283,0,1,1,.566,0v2.829h.566V14.177a.849.849,0,0,0-.849-.849.838.838,0,0,0-.416.113.836.836,0,0,0-1.132-.283.847.847,0,0,0-.716-.4.837.837,0,0,0-.283.052V11.349a.849.849,0,1,0-1.7,0V14.49l-.632-.433h0a.848.848,0,0,0-1.1,1.287l1.822,1.662.381-.418-1.8-1.646a.28.28,0,0,1-.083-.2.283.283,0,0,1,.453-.226l1.528,1.045V11.349a.283.283,0,0,1,.566,0V14.46h.566v-.849a.283.283,0,0,1,.566,0v.849H12.3v-.566a.283.283,0,0,1,.566,0v.566Z" transform="translate(372.353 651.3)" fill="#15223f"/>
    <path id="Trazado_798" data-name="Trazado 798" d="M10.355,5.829h-1.7V5.263h1.7v-1.7H3.566v1.7H4.7v.566H3.566A.566.566,0,0,1,3,5.263v-1.7A.566.566,0,0,1,3.566,3h6.789a.566.566,0,0,1,.566.566v1.7A.566.566,0,0,1,10.355,5.829Z" transform="translate(376 657.386)" fill="#15223f"/>
  </g>
</svg>
