<svg id="lock-line" xmlns="http://www.w3.org/2000/svg" width="19.069" height="27.425" viewBox="0 0 19.069 27.425">
  <path id="Trazado_465" data-name="Trazado 465" d="M23,27.453a2.089,2.089,0,0,0-.945,3.944v2.479h1.734v-2.4A2.089,2.089,0,0,0,23,27.453Z" transform="translate(-13.391 -11.652)"/>
  <path id="Trazado_466" data-name="Trazado 466" d="M25.8,14.1v-3.71a7.108,7.108,0,0,0-6.934-7.246,7.108,7.108,0,0,0-6.934,7.246V14.1h-2.6V28.838a1.734,1.734,0,0,0,1.734,1.734h15.6A1.734,1.734,0,0,0,28.4,28.838V14.1Zm-12.135-3.71a5.374,5.374,0,0,1,5.2-5.513,5.374,5.374,0,0,1,5.2,5.513V14.1h-10.4Zm-2.6,18.445v-13h15.6v13Z" transform="translate(-9.333 -3.147)"/>
</svg>
