<svg id="Grupo_2" data-name="Grupo 2" xmlns="http://www.w3.org/2000/svg" width="127.349" height="39.637" viewBox="0 0 127.349 39.637">
  <g id="Grupo_1" data-name="Grupo 1" transform="translate(34.21)">
    <path id="Trazado_1" data-name="Trazado 1" d="M165.87,51.306a11.054,11.054,0,0,1,.922-4.5,11.787,11.787,0,0,1,6.171-6.159,11.442,11.442,0,0,1,8.912-.012,11.8,11.8,0,0,1,3.651,2.438,11.625,11.625,0,0,1,2.485,3.626,11.418,11.418,0,0,1,.969,4.438V59.5a3.01,3.01,0,0,1-.243,1.2,3.064,3.064,0,0,1-.654.982,3.1,3.1,0,0,1-.969.654,3.018,3.018,0,0,1-1.213.243,2.794,2.794,0,0,1-2.619-1.623,12.157,12.157,0,0,1-2.776,1.382,9.264,9.264,0,0,1-3.067.509,11.123,11.123,0,0,1-4.473-.91,11.867,11.867,0,0,1-3.673-2.473,11.731,11.731,0,0,1-2.5-3.673,11.081,11.081,0,0,1-.922-4.486Zm6.014.012a5.363,5.363,0,0,0,.437,2.151,5.661,5.661,0,0,0,1.19,1.761,5.5,5.5,0,0,0,3.913,1.6,5.6,5.6,0,0,0,2.174-.425,5.315,5.315,0,0,0,1.749-1.178,5.723,5.723,0,0,0,1.178-1.761,5.329,5.329,0,0,0,.437-2.151,5.4,5.4,0,0,0-.437-2.164,5.779,5.779,0,0,0-1.178-1.749,5.305,5.305,0,0,0-1.749-1.178,5.558,5.558,0,0,0-2.174-.425,5.5,5.5,0,0,0-3.913,1.6,5.655,5.655,0,0,0-1.19,1.749A5.337,5.337,0,0,0,171.884,51.319Z" transform="translate(-165.87 -31.542)" fill="#15223f"/>
    <path id="Trazado_2" data-name="Trazado 2" d="M288.746,52.687l5.068-11.2a2.91,2.91,0,0,1,.679-.969,2.982,2.982,0,0,1,.969-.619,2.914,2.914,0,0,1,1.128-.194,3.223,3.223,0,0,1,1.176.254,3.154,3.154,0,0,1,.994.7,2.95,2.95,0,0,1,.619.982,3,3,0,0,1,.194,1.141,2.951,2.951,0,0,1-.278,1.176L287.508,69.321a2.926,2.926,0,0,1-.716.982,3.4,3.4,0,0,1-.994.619,2.862,2.862,0,0,1-1.141.206,2.777,2.777,0,0,1-1.151-.278,2.487,2.487,0,0,1-1.466-1.625,3.289,3.289,0,0,1,.254-2.3l3.25-7.2-7.3-15.786a2.953,2.953,0,0,1-.278-1.176,3.013,3.013,0,0,1,.194-1.141,2.917,2.917,0,0,1,.619-.982,2.912,2.912,0,0,1,2.145-.957,2.784,2.784,0,0,1,1.128.206,3.068,3.068,0,0,1,1.648,1.6Z" transform="translate(-254.847 -31.491)" fill="#15223f"/>
    <path id="Trazado_3" data-name="Trazado 3" d="M404.13,28.073a2.87,2.87,0,0,1-.875,2.1,3.116,3.116,0,0,1-.957.631,3.135,3.135,0,0,1-2.692-.157,2.939,2.939,0,0,1-1.054-1.019,11.575,11.575,0,0,1-2.813,1.237,11.265,11.265,0,0,1-3.154.437,11.122,11.122,0,0,1-4.473-.91,11.866,11.866,0,0,1-3.673-2.473,11.733,11.733,0,0,1-2.5-3.673,11.406,11.406,0,0,1,0-8.984A11.787,11.787,0,0,1,388.113,9.1a11.122,11.122,0,0,1,4.473-.91A11.4,11.4,0,0,1,398.116,9.6V2.95a2.87,2.87,0,0,1,.875-2.1,3.115,3.115,0,0,1,.957-.631,3,3,0,0,1,1.176-.231A2.967,2.967,0,0,1,402.3.221a3.079,3.079,0,0,1,.957.631,2.889,2.889,0,0,1,.643.934,2.919,2.919,0,0,1,.231,1.163ZM387.5,21.9a5.624,5.624,0,0,0,1.188,1.757,5.492,5.492,0,0,0,3.9,1.6,5.583,5.583,0,0,0,2.17-.425,5.314,5.314,0,0,0,1.745-1.176,5.735,5.735,0,0,0,1.176-1.757,5.335,5.335,0,0,0,.437-2.147v-.219a5.5,5.5,0,0,0-.5-2.085,5.428,5.428,0,0,0-1.188-1.673,5.631,5.631,0,0,0-1.735-1.116,5.457,5.457,0,0,0-2.11-.412,5.538,5.538,0,0,0-2.147.425,5.433,5.433,0,0,0-1.757,1.176,5.668,5.668,0,0,0-1.188,1.745,5.516,5.516,0,0,0,0,4.3Z" transform="translate(-336.646 0.01)" fill="#15223f"/>
    <path id="Trazado_4" data-name="Trazado 4" d="M506.342,46.808a11.787,11.787,0,0,1,6.171-6.159,11.123,11.123,0,0,1,4.474-.91,11.24,11.24,0,0,1,4.5.91,11.61,11.61,0,0,1,3.661,2.485,11.854,11.854,0,0,1,2.473,3.673,11.549,11.549,0,0,1,0,8.984,11.583,11.583,0,0,1-6.134,6.146,11.183,11.183,0,0,1-4.5.91,11.067,11.067,0,0,1-4.474-.91,11.868,11.868,0,0,1-3.673-2.473,11.733,11.733,0,0,1-2.5-3.673,11.4,11.4,0,0,1,0-8.984Zm5.552,6.645a5.628,5.628,0,0,0,1.188,1.757,5.492,5.492,0,0,0,3.9,1.6,5.583,5.583,0,0,0,2.17-.425,5.314,5.314,0,0,0,1.745-1.176,5.734,5.734,0,0,0,1.176-1.757,5.515,5.515,0,0,0,0-4.3A5.752,5.752,0,0,0,520.9,47.4a5.314,5.314,0,0,0-1.745-1.176,5.532,5.532,0,0,0-2.17-.425,5.493,5.493,0,0,0-3.9,1.6,5.669,5.669,0,0,0-1.188,1.745,5.516,5.516,0,0,0,0,4.3Z" transform="translate(-435.389 -31.542)" fill="#15223f"/>
  </g>
  <path id="Trazado_5" data-name="Trazado 5" d="M120.5,8.606a3.638,3.638,0,1,1,3.246-3.246A3.641,3.641,0,0,1,120.5,8.606Z" transform="translate(-92.463 -1.07)" fill="#15223f"/>
  <path id="Trazado_6" data-name="Trazado 6" d="M3.587,63.8A3.6,3.6,0,0,1,0,60.184v-14.8a3.6,3.6,0,0,1,3.587-3.62,3.532,3.532,0,0,1,3.467,3.527V60.279a3.532,3.532,0,0,1-3.467,3.527Z" transform="translate(0 -33.151)" fill="red"/>
  <path id="Trazado_7" data-name="Trazado 7" d="M4.122,9.449A3.528,3.528,0,1,1,7.269,6.3,3.532,3.532,0,0,1,4.122,9.449Z" transform="translate(-0.184 -1.913)" fill="red"/>
  <path id="Trazado_8" data-name="Trazado 8" d="M29.369,75.862a3.505,3.505,0,0,1-2.494-1.031l-9.359-9.359L8.156,74.831a3.526,3.526,0,0,1-4.987-4.987L15.022,57.991a3.533,3.533,0,0,1,4.989,0L31.864,69.844a3.525,3.525,0,0,1-2.494,6.018Z" transform="translate(-1.697 -45.21)" fill="red"/>
  <path id="Trazado_9" data-name="Trazado 9" d="M117.359,48.85a1.054,1.054,0,0,1-.309-.745V45.3a3.531,3.531,0,0,1,3.527-3.527c.043,0,.087,0,.13,0a3.615,3.615,0,0,1,3.4,3.634v9.322a.359.359,0,0,1-.613.254Z" transform="translate(-92.909 -33.153)" fill="#15223f"/>
</svg>
