<svg xmlns="http://www.w3.org/2000/svg" xmlns:xlink="http://www.w3.org/1999/xlink" width="248.841" height="214.706" viewBox="0 0 248.841 214.706">
  <defs>
    <clipPath id="clip-path">
      <path id="Trazado_193" data-name="Trazado 193" d="M0,0H248.841V214.706H0Z" fill="#fff"/>
    </clipPath>
  </defs>
  <g id="Grupo_410" data-name="Grupo 410" clip-path="url(#clip-path)">
    <path id="Trazado_172" data-name="Trazado 172" d="M39.312,186.54H189.65c20.879,0,42.9-10.053,53.978-28.6,14.448-24.192-2.839-62.938-25.455-76.3-23.776-14.05-48.082-18.462-73.427-20.407-21.409-1.645-14.845-23.768-28.638-37.543-61.6-61.533-176.852,76.645-76.8,162.852Z" transform="translate(0 1.55)" fill="#f5f9fe"/>
    <g id="Grupo_409" data-name="Grupo 409" transform="translate(14.704 86.187)">
      <path id="Trazado_173" data-name="Trazado 173" d="M189.061,78.853,237.21,187.2H12.409L60.557,78.854h128.5Z" transform="translate(-12.409 -71.602)" fill="#e0e1e3"/>
      <path id="Trazado_174" data-name="Trazado 174" d="M179.468,78.853,191.3,105.477,174.345,118.44c-9.656,7.385-29.158,7.385-41.879,0L64.279,78.854H179.468Z" transform="translate(-2.815 -71.602)" fill="#c2c4c7"/>
      <path id="Trazado_175" data-name="Trazado 175" d="M88.874,133.192,76.323,128.9l53.991-56.167,9.7,2.147L88.874,133.192Z" transform="translate(-0.588 -72.734)" fill="#f4f4f5"/>
      <path id="Trazado_176" data-name="Trazado 176" d="M99.258,179.153H12.409l25.234-56.786Z" transform="translate(-12.409 -63.554)" fill="#c2c4c7"/>
      <path id="Trazado_177" data-name="Trazado 177" d="M122.671,176.059c-7.362,0-14.165-2.333-19.022-6.46L33.025,109.6l5.392-2.5L109.5,165.169a20.756,20.756,0,0,0,13.123,4.34,20.519,20.519,0,0,0,13.065-4.34L208.9,104.691l5.393,2.436L141.6,169.6c-4.8,4.127-11.573,6.46-18.936,6.46h0Z" transform="translate(-8.596 -66.823)" fill="#b0d0f9"/>
      <path id="Trazado_178" data-name="Trazado 178" d="M246.971,254.115,27.295,88.257,37.884,84.1,256.424,236.8l-9.452,17.319Z" transform="translate(-9.656 -70.632)" fill="#f4f4f5"/>
    </g>
    <path id="Trazado_179" data-name="Trazado 179" d="M164.29,79.667c-5.393,9.463-14.312,21.259-29.04,33.885q-6.2,5.3-12.824,10.073a13.8,13.8,0,0,1-19.506-3.411c-10.759-15.881-17.107-29.8-20.775-41.36h73.848a43.24,43.24,0,0,1,8.3.812v0Z" transform="translate(15.194 14.585)" fill="#23262a" opacity="0.14"/>
    <path id="Trazado_180" data-name="Trazado 180" d="M162.193,67.211c-1.186,9.883-6.261,29.725-26.67,54.6q-5.185,6.3-10.878,12.153a13.8,13.8,0,0,1-19.8.04C63.81,91.714,66.976,60.371,66.976,60.371a47.751,47.751,0,1,1,95.5,0,34.711,34.711,0,0,1-.286,6.841Z" transform="translate(12.377 2.329)" fill="#f6b2b2"/>
    <path id="Trazado_181" data-name="Trazado 181" d="M146.3,58.332a33.837,33.837,0,0,1-33.828,33.846c-.463,0-.927-.012-1.386-.028A33.846,33.846,0,1,1,146.271,56.97c.019.451.026.905.026,1.362Z" transform="translate(14.546 4.529)" fill="#fff"/>
    <path id="Trazado_182" data-name="Trazado 182" d="M13.518,56.751A12.015,12.015,0,1,0,1.51,44.735,12.012,12.012,0,0,0,13.518,56.751Zm39.607,0a8.818,8.818,0,1,0-8.814-8.817,8.816,8.816,0,0,0,8.814,8.817Z" transform="translate(0.279 6.052)" fill="#eff5fe"/>
    <path id="Trazado_183" data-name="Trazado 183" d="M31.937,58.5A17.636,17.636,0,1,0,14.311,40.867,17.631,17.631,0,0,0,31.937,58.5Z" transform="translate(2.647 4.297)" fill="#eff5fe"/>
    <path id="Trazado_184" data-name="Trazado 184" d="M51.251,54.553H11.644V44.576s37.43,2.53,39.607,9.977Z" transform="translate(2.154 8.245)" fill="#eff5fe"/>
    <path id="Trazado_185" data-name="Trazado 185" d="M22.015,84.7a6.859,6.859,0,1,0-5.089,1.309A6.87,6.87,0,0,0,22.015,84.7Zm18.526,1.369a5.125,5.125,0,1,0-5.037-5.04,5.039,5.039,0,0,0,5.037,5.04Z" transform="translate(2.04 13.38)" fill="#e4eefd"/>
    <path id="Trazado_186" data-name="Trazado 186" d="M28.427,87.076A10.083,10.083,0,1,0,18.349,76.994,10.08,10.08,0,0,0,28.427,87.076Z" transform="translate(3.394 12.376)" fill="#e4eefd"/>
    <path id="Trazado_187" data-name="Trazado 187" d="M39.468,88.572H16.825v-5.7s21.4,1.447,22.645,5.7ZM207.112,75.6a9.831,9.831,0,1,0-13.9,0,9.837,9.837,0,0,0,13.9,0Zm27.123,2.706a7.217,7.217,0,1,0-8.681-5.367,7.217,7.217,0,0,0,8.681,5.367Z" transform="translate(3.112 10.878)" fill="#e4eefd"/>
    <path id="Trazado_188" data-name="Trazado 188" d="M188.154,79.922a14.433,14.433,0,1,0-14.426-14.434A14.43,14.43,0,0,0,188.154,79.922Z" transform="translate(32.132 9.443)" fill="#e4eefd"/>
    <path id="Trazado_189" data-name="Trazado 189" d="M203.961,76.688H171.546V68.522S202.181,70.592,203.961,76.688Z" transform="translate(31.729 12.674)" fill="#e4eefd"/>
    <path id="Trazado_190" data-name="Trazado 190" d="M152.848,16.821a5.24,5.24,0,1,1,5.1-5.373,5.242,5.242,0,0,1-5.1,5.373Zm-.21-8.173a2.939,2.939,0,1,0,2.891,2.862,2.939,2.939,0,0,0-2.891-2.862Zm45.906,117.434a1.292,1.292,0,0,1-1.293-1.292V111.86a1.293,1.293,0,0,1,2.584,0v12.931a1.292,1.292,0,0,1-1.292,1.292Z" transform="translate(27.277 1.173)" fill="#d8e7fc"/>
    <path id="Trazado_191" data-name="Trazado 191" d="M201.925,116.515H189a1.292,1.292,0,1,1,0-2.584h12.924a1.292,1.292,0,1,1,0,2.584ZM166.883,24.407a1.371,1.371,0,1,1-1.4-1.263,1.371,1.371,0,0,1,1.4,1.263Z" transform="translate(30.36 4.281)" fill="#d8e7fc"/>
    <path id="Trazado_192" data-name="Trazado 192" d="M27.64,106.391a2.221,2.221,0,1,0-2.655,1.594,2.221,2.221,0,0,0,2.655-1.594Z" transform="translate(4.304 19.162)" fill="rgba(224,0,0,0.3)"/>
  </g>
</svg>
