<svg xmlns="http://www.w3.org/2000/svg" width="12.119" height="16.302" viewBox="0 0 12.119 16.302">
  <path id="Path_194" data-name="Path 194" d="M15.584,8.971a2.23,2.23,0,1,0,2.23,2.23A2.23,2.23,0,0,0,15.584,8.971Zm0,3.345A1.115,1.115,0,1,1,16.7,11.2a1.115,1.115,0,0,1-1.115,1.115Z" transform="translate(-9.524 -5.138)"/>
  <path id="Path_195" data-name="Path 195" d="M15.97,3.011A6.06,6.06,0,0,0,6.608,10.6L10.82,17.07a1.032,1.032,0,0,0,1.729,0L16.763,10.6A6.06,6.06,0,0,0,15.97,3.011Zm-.142,6.984-4.143,6.36L7.542,9.995a4.945,4.945,0,1,1,8.286,0Z" transform="translate(-5.626 -1.237)"/>
</svg>
