<svg id="mic" xmlns="http://www.w3.org/2000/svg" width="13.807" height="22.092" viewBox="0 0 13.807 22.092">
  <g id="Grupo_329" data-name="Grupo 329" transform="translate(0)">
    <path id="Trazado_24" data-name="Trazado 24" d="M9.69,19.5a.69.69,0,0,1,.69.69v1.381a5.523,5.523,0,1,0,11.046,0V20.19a.69.69,0,1,1,1.381,0v1.381a6.9,6.9,0,0,1-6.213,6.869v2.8h4.142a.69.69,0,1,1,0,1.381H11.071a.69.69,0,1,1,0-1.381h4.142v-2.8A6.9,6.9,0,0,1,9,21.571V20.19A.69.69,0,0,1,9.69,19.5Z" transform="translate(-9 -10.525)"/>
    <path id="Trazado_25" data-name="Trazado 25" d="M21.9,11.046a2.761,2.761,0,0,1-5.523,0v-6.9a2.761,2.761,0,0,1,5.523,0ZM19.142,0A4.142,4.142,0,0,0,15,4.142v6.9a4.142,4.142,0,1,0,8.284,0v-6.9A4.142,4.142,0,0,0,19.142,0Z" transform="translate(-12.239)"/>
  </g>
</svg>
