<svg xmlns="http://www.w3.org/2000/svg" xmlns:xlink="http://www.w3.org/1999/xlink" viewBox="0 0 34.922 30">
  <defs>
    <clipPath id="clip-path">
      <rect id="Rectángulo_6241" data-name="Rectángulo 6241" width="34.922" height="30" fill="none"/>
    </clipPath>
  </defs>
  <g id="Grupo_16292" data-name="Grupo 16292" transform="translate(0.001 0)">
    <g id="Grupo_16291" data-name="Grupo 16291" transform="translate(-0.001 0)" clip-path="url(#clip-path)">
      <path id="Trazado_548" data-name="Trazado 548" d="M1.146,18.033A16.333,16.333,0,0,0,5.529,28.614c.62-.622,1.216-1.216,1.806-1.816a.631.631,0,0,1,.67-.215.546.546,0,0,1,.247.893q-1.159,1.207-2.367,2.367c-.266.257-.552.191-.869-.131a17.113,17.113,0,0,1-3.285-4.665,17.449,17.449,0,1,1,32.742-11.4,17.072,17.072,0,0,1-4.506,16c-.427.46-.685.455-1.129.014q-1.035-1.03-2.066-2.064c-.319-.321-.351-.648-.1-.9s.575-.227.9.1c.6.595,1.187,1.2,1.808,1.823a16.34,16.34,0,0,0,4.38-10.581H31.794c-.214,0-.428.008-.641,0a.569.569,0,0,1-.585-.585.559.559,0,0,1,.585-.548c.772-.01,1.543,0,2.315,0h.3A16.381,16.381,0,0,0,29.389,6.345c-.613.614-1.2,1.223-1.811,1.8a.862.862,0,0,1-.62.225.55.55,0,0,1-.225-.971c.51-.531,1.036-1.046,1.555-1.568.09-.091.176-.186.264-.279A15.938,15.938,0,0,0,18.027,1.2q0,1.1,0,2.2c0,.131.007.262,0,.392a.568.568,0,0,1-.575.56.559.559,0,0,1-.556-.576c-.012-.724,0-1.448,0-2.173,0-.129,0-.258,0-.386A15.877,15.877,0,0,0,6.361,5.541c.141.148.282.3.428.446.467.473.941.94,1.4,1.418a.565.565,0,0,1,.042.852A.575.575,0,0,1,7.382,8.2c-.615-.61-1.221-1.227-1.831-1.842A16.055,16.055,0,0,0,1.173,16.893H3.12c.214,0,.428-.007.641,0a.569.569,0,0,1,.585.55.562.562,0,0,1-.586.583c-.772.011-1.543,0-2.315,0h-.3" transform="translate(0.001 0.001)"/>
      <path id="Trazado_549" data-name="Trazado 549" d="M113.346,112.717a3.382,3.382,0,1,1-.813.811c-.083-.088-.17-.182-.26-.273l-3.751-3.752c-.067-.067-.138-.131-.2-.2a.567.567,0,0,1-.019-.8.574.574,0,0,1,.829.006c.193.175.372.366.557.551l3.656,3.662m4.206,2.806a2.242,2.242,0,0,0-4.483-.093,2.242,2.242,0,1,0,4.483.093" transform="translate(-97.854 -98.015)"/>
    </g>
  </g>
</svg>
