<svg xmlns="http://www.w3.org/2000/svg" width="29.286" height="28.419" viewBox="0 0 29.286 28.419">
  <g id="Grupo_402" data-name="Grupo 402" transform="translate(-816 -3036.683)">
    <path id="Trazado_159" data-name="Trazado 159" d="M120.24,8.139A3.4,3.4,0,1,1,123.278,5.1,3.406,3.406,0,0,1,120.24,8.139Z" transform="translate(721.991 3035.333)" fill="#8d8d8d"/>
    <path id="Trazado_160" data-name="Trazado 160" d="M3.356,62.385A3.372,3.372,0,0,1,0,59V45.155a3.372,3.372,0,0,1,3.356-3.387,3.3,3.3,0,0,1,3.244,3.3V59.087a3.3,3.3,0,0,1-3.244,3.3Z" transform="translate(816 3002.715)" fill="#8d8d8d"/>
    <path id="Trazado_161" data-name="Trazado 161" d="M3.871,9A3.3,3.3,0,1,1,6.816,6.049,3.3,3.3,0,0,1,3.871,9Z" transform="translate(815.813 3034.476)" fill="#8d8d8d"/>
    <path id="Trazado_162" data-name="Trazado 162" d="M27.616,74.646a3.28,3.28,0,0,1-2.333-.965l-8.757-8.757L7.769,73.681A3.3,3.3,0,0,1,3.1,69.015l11.09-11.09a3.305,3.305,0,0,1,4.668,0l11.09,11.09a3.3,3.3,0,0,1-2.333,5.631Z" transform="translate(814.275 2990.454)" fill="#8d8d8d"/>
    <path id="Trazado_163" data-name="Trazado 163" d="M117.339,48.395a.986.986,0,0,1-.289-.7V45.07a3.3,3.3,0,0,1,3.3-3.3c.041,0,.081,0,.122,0a3.382,3.382,0,0,1,3.178,3.4v8.722a.335.335,0,0,1-.573.237Z" transform="translate(721.537 3002.713)" fill="#8d8d8d"/>
  </g>
</svg>
