<svg xmlns="http://www.w3.org/2000/svg" width="70" height="70" viewBox="0 0 70 70">
  <g id="Grupo_16794" data-name="Grupo 16794" transform="translate(-1640 -1207)">
    <rect id="Rectángulo_18" data-name="Rectángulo 18" width="70" height="70" rx="35" transform="translate(1640 1207)" fill="#d03e13"/>
    <g id="my-chats" transform="translate(1654.391 1222.195)">
      <path id="Trazado_220" data-name="Trazado 220" d="M11.1,4.688A22.394,22.394,0,0,1,25.419,2.042,21.149,21.149,0,0,1,38.109,8.7a17.551,17.551,0,0,1,4.578,12.8A17.831,17.831,0,0,1,37.3,33.092l.51,6.271a1.894,1.894,0,0,1-2.552,1.926l-7.58-2.842a20.332,20.332,0,0,1-13.152-.609,19.981,19.981,0,0,1-10.851-9A17.1,17.1,0,0,1,2.27,15.414,18.95,18.95,0,0,1,11.1,4.688Zm13.772,1.1a18.608,18.608,0,0,0-11.89,2.185,15.167,15.167,0,0,0-7.09,8.562A13.318,13.318,0,0,0,6.994,27a16.2,16.2,0,0,0,8.812,7.27,16.5,16.5,0,0,0,11.341.374,1.893,1.893,0,0,1,1.256.026L33.8,36.7l-.342-4.2a1.9,1.9,0,0,1,.623-1.563,14.151,14.151,0,0,0,4.828-9.659,13.767,13.767,0,0,0-3.618-10.042A17.366,17.366,0,0,0,24.867,5.789Z" transform="translate(-1.5 -1.8)" fill="#fff" fill-rule="evenodd"/>
      <path id="Trazado_221" data-name="Trazado 221" d="M5.834,8.852A1.894,1.894,0,0,1,7.727,6.959H21.34a1.894,1.894,0,1,1,0,3.787H7.727A1.894,1.894,0,0,1,5.834,8.852Z" transform="translate(6.075 7.217)" fill="#fff"/>
      <path id="Trazado_222" data-name="Trazado 222" d="M5.834,11.46A1.893,1.893,0,0,1,7.727,9.566h8.5a1.894,1.894,0,0,1,0,3.787h-8.5A1.893,1.893,0,0,1,5.834,11.46Z" transform="translate(6.075 11.774)" fill="#fff"/>
    </g>
  </g>
</svg>
