<svg id="Grupo_460" data-name="Grupo 460" xmlns="http://www.w3.org/2000/svg" viewBox="0 0 47 31">
  <g id="Grupo_454" data-name="Grupo 454" transform="translate(0 0)">
    <rect id="card_bg" width="47" height="31" rx="4" fill="#fff"/>
    <g id="paypal" transform="translate(16.197 6.12)">
      <path id="Path" d="M3.972,18.015l.338-2.126H0L2.474.174A.2.2,0,0,1,2.542.048.232.232,0,0,1,2.677,0h6c2,0,3.373.416,4.1,1.237a2.658,2.658,0,0,1,.648,1.227,4.272,4.272,0,0,1,0,1.691v.483l.338.193a2.406,2.406,0,0,1,.686.512A2.5,2.5,0,0,1,15,6.591a5.538,5.538,0,0,1-.077,1.8,6.263,6.263,0,0,1-.744,2.039,4.156,4.156,0,0,1-1.169,1.285,4.89,4.89,0,0,1-1.575.706,7.645,7.645,0,0,1-1.933.232H9.027a1.421,1.421,0,0,0-.908.329,1.372,1.372,0,0,0-.474.85v.193l-.59,3.75v.145a.145.145,0,0,1,0,.077H7Z" transform="translate(0.682 0.657)" fill="#253d80"/>
      <path id="Path-2" data-name="Path" d="M10.8,0l-.058.358c-.792,4.059-3.508,5.47-6.968,5.47H2.015a.86.86,0,0,0-.85.725l-.9,5.721L.005,13.9a.454.454,0,0,0,.445.522H3.581a.754.754,0,0,0,.744-.638v-.155l.59-3.74v-.2a.744.744,0,0,1,.735-.638h.512c3.025,0,5.4-1.227,6.089-4.832a4.1,4.1,0,0,0-.619-3.6A3.122,3.122,0,0,0,10.8,0Z" transform="translate(3.963 4.91)" fill="#189bd7"/>
      <path id="Path-3" data-name="Path" d="M8.737.281,8.37.184,7.964.107A9.723,9.723,0,0,0,6.417,0H1.7a.7.7,0,0,0-.319.068A.735.735,0,0,0,.966.629L0,6.978v.184a.86.86,0,0,1,.85-.725H2.609c3.46,0,6.176-1.411,6.968-5.47L9.636.609A4.33,4.33,0,0,0,8.988.339Z" transform="translate(5.196 4.3)" fill="#242e65"/>
      <path id="Path-4" data-name="Path" d="M6.162,4.929a.735.735,0,0,1,.416-.561A.7.7,0,0,1,6.9,4.3h4.716a9.723,9.723,0,0,1,1.546.106l.406.077.367.1.184.058a4.33,4.33,0,0,1,.648.271,3.866,3.866,0,0,0-.773-3.45C13.024.435,11.439,0,9.371,0H3.359a.86.86,0,0,0-.85.725l-2.5,15.86a.522.522,0,0,0,.512.6H4.229L5.2,11.279Z" transform="translate(0 0)" fill="#253d80"/>
    </g>
  </g>
</svg>
