<svg xmlns="http://www.w3.org/2000/svg" width="27.057" height="30.148" viewBox="0 0 27.057 30.148">
  <path id="Unión_12" data-name="Unión 12" d="M13.05,30.045A26.212,26.212,0,0,1,3.9,23.413a17.072,17.072,0,0,1-2.841-4.582A13.94,13.94,0,0,1,0,13.528,13.531,13.531,0,0,1,25.993,8.262a13.439,13.439,0,0,1,1.064,5.266A13.928,13.928,0,0,1,26,18.831a17.054,17.054,0,0,1-2.841,4.582,26.2,26.2,0,0,1-9.15,6.632,1.162,1.162,0,0,1-.957,0ZM2.319,13.528c0,5.582,4.179,10.856,11.209,14.183,7.03-3.328,11.21-8.6,11.21-14.183a11.209,11.209,0,0,0-22.419,0Zm5.411,0a5.8,5.8,0,1,1,5.8,5.8A5.8,5.8,0,0,1,7.73,13.528Zm2.319,0a3.479,3.479,0,1,0,3.479-3.479A3.483,3.483,0,0,0,10.049,13.528Z" fill="#fff"/>
</svg>
