<svg xmlns="http://www.w3.org/2000/svg" width="26.172" height="33.261" viewBox="0 0 26.172 33.261">
  <g id="quick-verification" transform="translate(0 -0.279)">
    <path id="Trazado_581" data-name="Trazado 581" d="M22.593,22.09a.012.012,0,0,1,0-.009v-.056l.061-14.8a.632.632,0,0,0-.717-.629,4.8,4.8,0,0,0-3.587,2.27,5.178,5.178,0,0,0-.716,1.887v.036l-.062,2.773a1.546,1.546,0,0,1-2.626,1.07L4.623,4.535a2.141,2.141,0,0,0-1.507-.616,2.171,2.171,0,0,0-1.543.648l-.14.14a2.162,2.162,0,0,0,.032,3.05L6.012,12.21a.147.147,0,0,1-.036.236,2.11,2.11,0,0,0-.558.412L5.278,13A2.153,2.153,0,0,0,4.7,14.88a.145.145,0,0,1-.125.168,2.143,2.143,0,0,0-1.278.63l-.14.143a2.145,2.145,0,0,0-.6,1.267.144.144,0,0,1-.15.129H2.3a2.135,2.135,0,0,0-1.543.648l-.14.143a2.162,2.162,0,0,0,.032,3.05l4.493,4.4a2.119,2.119,0,0,0,.784.49h0A.145.145,0,0,1,6,26.028a.65.65,0,0,0,.129.183c3.05,2.986,5.667,3.612,7.324,3.612a5.508,5.508,0,0,0,.931-.075.147.147,0,0,1,.13.039l3.259,3.185a2,2,0,0,0,2.828-.032l5-5.109A2,2,0,0,0,25.57,25Zm-16.411-8.2,0-.007.137-.137a.889.889,0,0,1,1.12-.125h0a.094.094,0,0,1,.024.017l4.317,4.228a.924.924,0,0,0,.082.068l.018.014.4.39A.9.9,0,0,1,12.3,19.6l-.14.143a.889.889,0,0,1-.63.268h-.011a.88.88,0,0,1-.623-.254l-4.7-4.6A.9.9,0,0,1,6.177,13.9ZM4.057,16.706l.14-.143a.895.895,0,0,1,1.264-.014l4.493,4.4a.9.9,0,0,1,.014,1.264l-.14.143a.89.89,0,0,1-.63.268H9.187a.88.88,0,0,1-.623-.254l-4.493-4.4A.9.9,0,0,1,4.057,16.706Zm3.225,7.833a.889.889,0,0,1-.63.268H6.642a.874.874,0,0,1-.623-.254l-4.493-4.4a.9.9,0,0,1-.014-1.264l.14-.143a.891.891,0,0,1,.637-.268.882.882,0,0,1,.626.254l4.493,4.4A.9.9,0,0,1,7.422,24.4Zm11.9,8.033a0,0,0,0,1,0,0l-4.086-4a.6.6,0,0,0-.648-.146l-.008,0a3.693,3.693,0,0,1-.984.115,5.77,5.77,0,0,1-1.117-.115,10.057,10.057,0,0,1-4.575-2.452.145.145,0,0,1,.018-.233,2.239,2.239,0,0,0,.408-.326l.14-.143a2.145,2.145,0,0,0,.6-1.267.144.144,0,0,1,.15-.129h.132a2.148,2.148,0,0,0,1.518-.648l.14-.143a2.149,2.149,0,0,0,.6-1.675.147.147,0,0,1,.14-.157,2.137,2.137,0,0,0,1.45-.644l.14-.143a2.162,2.162,0,0,0-.032-3.05l-4.7-4.607c-.057-.054-.118-.107-.186-.161l-.011-.011-5.925-5.8a.891.891,0,0,1-.018-1.256l.014-.014.129-.132A.895.895,0,0,1,3.735,5.43L15.125,16.577a.148.148,0,0,1,.023.182,3.948,3.948,0,0,0-.193,3.487,7.853,7.853,0,0,0,1.117,2.066.624.624,0,0,0,.494.24.617.617,0,0,0,.39-.136.635.635,0,0,0,.1-.888c-.021-.029-2.191-2.81-.494-4.546l1.684-1.722a2,2,0,0,0,.57-1.357l.062-3.014a.107.107,0,0,1,0-.02,3.755,3.755,0,0,1,2.3-2.8.145.145,0,0,1,.2.136l-.053,13.552a2,2,0,0,0,.6,1.438l1.853,1.812a2,2,0,0,1,.032,2.828l-4.627,4.734Z" fill="red"/>
    <path id="Trazado_582" data-name="Trazado 582" d="M10.535,4.385a0,0,0,0,0,0,0,.484.484,0,0,1-.18.65A.483.483,0,0,1,9.681,5L7.726,2.28a.483.483,0,0,1,.179-.652.488.488,0,0,1,.677.039l1.953,2.716A0,0,0,0,1,10.535,4.385Z" fill="red"/>
    <path id="Trazado_583" data-name="Trazado 583" d="M13.98,4.1a.536.536,0,0,1-1.038-.154l.48-3.315A.485.485,0,0,1,14,.285a.484.484,0,0,1,.458.5l-.479,3.311A.057.057,0,0,0,13.98,4.1Z" fill="red"/>
    <path id="Trazado_584" data-name="Trazado 584" d="M17.438,5.623a.537.537,0,0,1-.863-.6l1.9-2.753a.483.483,0,0,1,.673-.054.486.486,0,0,1,.19.652Z" fill="red"/>
  </g>
</svg>
