<svg id="Grupo_16795" data-name="Grupo 16795" xmlns="http://www.w3.org/2000/svg" viewBox="0 0 28.239 28.235">
  <g id="search" transform="translate(0 0)">
    <g id="Grupo_16404" data-name="Grupo 16404">
      <path id="Trazado_527" data-name="Trazado 527" d="M20.722,18.258a11.472,11.472,0,1,0-2.466,2.467h0a2.064,2.064,0,0,0,.173.2l6.795,6.795a1.765,1.765,0,0,0,2.5-2.5l-6.795-6.795a1.778,1.778,0,0,0-.2-.176Zm.455-6.784a9.707,9.707,0,1,1-9.707-9.707,9.707,9.707,0,0,1,9.707,9.707Z" transform="translate(0.003 -0.005)" fill="#afbbc6"/>
    </g>
  </g>
  <g id="car-sport-sharp" transform="translate(4.609 6.075)">
    <path id="Trazado_508" data-name="Trazado 508" d="M14.972,12.654a4.417,4.417,0,0,0-.931-.508c.147-.076.247-.092.247-.406,0-.343,0-.457-.23-.457h-.775l-.01-.021c-.5-1.092-.567-1.368-1.313-1.74A9.807,9.807,0,0,0,8.35,9a9.8,9.8,0,0,0-3.61.523c-.747.371-.728.562-1.313,1.74a.109.109,0,0,1-.011.021H2.64c-.227,0-.228.114-.228.457,0,.314.1.33.247.406a8.137,8.137,0,0,0-.931.508A6.215,6.215,0,0,0,1.5,14.937c0,1.37.114,2.74.114,2.74h.341c0,.4.059.457.23.457H4.468c.171,0,.228-.057.228-.457H12c0,.4.057.457.228.457h2.341c.114,0,.171-.086.171-.457h.343s.114-1.4.114-2.74A7.35,7.35,0,0,0,14.972,12.654ZM4.619,13.936a14.755,14.755,0,0,1-1.565.087c-.583,0-.6.037-.644-.327a2.06,2.06,0,0,1,.015-.5l.018-.087h.086A3.936,3.936,0,0,1,3.8,13.3a2.8,2.8,0,0,1,.859.43.411.411,0,0,1,.153.176Zm7.055,2.055-.126.316H5.154s.011-.017-.143-.319c-.114-.223.029-.366.254-.447a9.5,9.5,0,0,1,3.085-.6,8.082,8.082,0,0,1,3.1.6c.157.081.352.138.226.452Zm-7.336-3.9a2.746,2.746,0,0,1-.277,0c.074-.132.116-.28.189-.434A2.514,2.514,0,0,1,5.2,10.4,8.609,8.609,0,0,1,8.35,9.911,8.585,8.585,0,0,1,11.5,10.4a2.522,2.522,0,0,1,.954,1.266c.073.156.114.3.191.438-.057,0-.123,0-.279-.005Zm9.925,1.6c-.061.356,0,.328-.615.328a14.755,14.755,0,0,1-1.565-.087.123.123,0,0,1-.039-.2,2.678,2.678,0,0,1,.859-.43,3.7,3.7,0,0,1,1.287-.191.092.092,0,0,1,.088.086,2,2,0,0,1-.014.5Z" transform="translate(-1.5 -9)" fill="#afbbc6"/>
  </g>
</svg>
