<svg xmlns="http://www.w3.org/2000/svg" width="20.596" height="16.019" viewBox="0 0 20.596 16.019">
  <path id="Icon_fa-solid-address-card" data-name="Icon fa-solid-address-card" d="M2.288,2.25A2.291,2.291,0,0,0,0,4.538V15.98a2.291,2.291,0,0,0,2.288,2.288H18.307A2.291,2.291,0,0,0,20.6,15.98V4.538A2.291,2.291,0,0,0,18.307,2.25ZM5.149,11.4H7.437A2.86,2.86,0,0,1,10.3,14.264a.574.574,0,0,1-.572.572H2.861a.574.574,0,0,1-.572-.572A2.86,2.86,0,0,1,5.149,11.4ZM4,7.971a2.288,2.288,0,1,1,2.288,2.288A2.288,2.288,0,0,1,4,7.971Zm9.154-1.144h4.577a.572.572,0,1,1,0,1.144H13.158a.572.572,0,0,1,0-1.144Zm0,2.288h4.577a.572.572,0,1,1,0,1.144H13.158a.572.572,0,1,1,0-1.144Zm0,2.288h4.577a.572.572,0,1,1,0,1.144H13.158a.572.572,0,1,1,0-1.144Z" transform="translate(0 -2.25)" fill="#0f154b"/>
</svg>
