<svg xmlns="http://www.w3.org/2000/svg" width="17.001" height="19.43" viewBox="0 0 17.001 19.43">
  <path id="Icon_fa-solid-passport" data-name="Icon fa-solid-passport" d="M0,2.429A2.431,2.431,0,0,1,2.429,0H14.572A2.431,2.431,0,0,1,17,2.429V17a2.431,2.431,0,0,1-2.429,2.429H2.429A2.431,2.431,0,0,1,0,17ZM6.945,10.58A3.65,3.65,0,0,1,4.907,7.893H6.391A8.3,8.3,0,0,0,6.945,10.58Zm1.567.349H8.489a3.968,3.968,0,0,1-.345-.626,7,7,0,0,1-.539-2.41H9.392a6.912,6.912,0,0,1-.539,2.41,3.968,3.968,0,0,1-.345.626Zm1.545-.349a8.529,8.529,0,0,0,.554-2.687h1.484a3.65,3.65,0,0,1-2.038,2.687Zm.554-3.9a8.3,8.3,0,0,0-.554-2.687,3.65,3.65,0,0,1,2.038,2.687H10.611ZM8.489,3.643h.023a3.968,3.968,0,0,1,.345.626A7,7,0,0,1,9.4,6.679H7.609a6.912,6.912,0,0,1,.539-2.41,3.968,3.968,0,0,1,.345-.626Zm-1.545.349a8.529,8.529,0,0,0-.554,2.687H4.907A3.65,3.65,0,0,1,6.945,3.992Zm6.413,3.294A4.857,4.857,0,1,0,8.5,12.144,4.857,4.857,0,0,0,13.358,7.286ZM4.25,14.572a.607.607,0,0,0,0,1.214h8.5a.607.607,0,1,0,0-1.214Z" fill="#0f154b"/>
</svg>
