<svg xmlns="http://www.w3.org/2000/svg" xmlns:xlink="http://www.w3.org/1999/xlink" viewBox="0 0 153.795 35">

  <g id="Grupo_16282" data-name="Grupo 16282" transform="translate(-0 -0)">
    <g id="Grupo_16242" data-name="Grupo 16242" transform="translate(0 0)">
      <g id="Grupo_16241" data-name="Grupo 16241" transform="translate(0 0)" clip-path="url(#clip-path)">
        <path id="Trazado_522" data-name="Trazado 522" d="M8.792,92.381A46.862,46.862,0,0,0,19.308,93.9c0-.8.007-1.546,0-2.293-.006-.438.045-.846.493-1.054a1.022,1.022,0,0,1,1.138.264q4.165,3.344,8.341,6.676c.718.574.732,1.119.028,1.683q-4.206,3.37-8.416,6.736a.953.953,0,0,1-1.1.223.9.9,0,0,1-.485-.914c.006-.828,0-1.656,0-2.527-.927-.068-1.815-.122-2.7-.2a40.6,40.6,0,0,1-11.019-2.305A13.242,13.242,0,0,1,1.8,98.08,4.508,4.508,0,0,1,0,94.3c.055-1.963.06-3.931,0-5.894a4.482,4.482,0,0,1,1.743-3.755,16.538,16.538,0,0,1,5.974-2.926.843.843,0,0,1,1.053.72,2.87,2.87,0,0,1,.018.478q0,4.457,0,8.913Zm18.749,5.962-6.48-5.252c0,.559,0,1,0,1.448,0,.909-.272,1.179-1.17,1.159A48.236,48.236,0,0,1,6.84,93.633a16.09,16.09,0,0,1-4.622-2.262c-.121-.085-.245-.166-.434-.292,0,1.171.04,2.242-.012,3.308a2.562,2.562,0,0,0,.965,2.187,9.467,9.467,0,0,0,1.153.852A17.266,17.266,0,0,0,8.2,99.24a47.1,47.1,0,0,0,11.715,1.72c.846.029,1.145.327,1.149,1.175,0,.454,0,.907,0,1.463l6.48-5.254M7.008,91.826V83.809a11.834,11.834,0,0,0-4.461,2.481,1.936,1.936,0,0,0,.035,3.122,11.83,11.83,0,0,0,4.425,2.415" transform="translate(-0.001 -71.227)" fill="red"/>
        <path id="Trazado_523" data-name="Trazado 523" d="M244.713,91.517a14.413,14.413,0,0,1-4.952,2.584c-2.044.553-4.124.975-6.192,1.434a.87.87,0,0,1-1.085-.687.849.849,0,0,1,.75-1.028c1.326-.279,2.655-.545,3.982-.819.153-.032.3-.084.489-.136v-.529q0-4.384,0-8.768c0-1.269.407-1.569,1.627-1.178a16.954,16.954,0,0,1,4.955,2.333,4.82,4.82,0,0,1,2.212,4.349c-.089,1.976-.037,3.96-.013,5.94a4.138,4.138,0,0,1-1.249,3.057,12.078,12.078,0,0,1-4.481,2.685,35.829,35.829,0,0,1-7.227,1.806.91.91,0,0,1-1.122-.712c-.089-.546.218-.9.853-1.051,1.971-.453,3.957-.855,5.9-1.4a12.056,12.056,0,0,0,4.34-2.168,2.83,2.83,0,0,0,1.224-2.549c-.071-1.014-.015-2.036-.015-3.167M239.5,84.283V92.3a13.307,13.307,0,0,0,3.983-2.029c1.625-1.319,1.629-2.623,0-3.931a13.82,13.82,0,0,0-3.984-2.055" transform="translate(-202.633 -71.701)" fill="red"/>
        <path id="Trazado_524" data-name="Trazado 524" d="M147.975,31.706c.869,0,1.665,0,2.46,0a2,2,0,0,1,2.191,2.2c.005.7.011,1.4,0,2.107a1.994,1.994,0,0,1-2.109,2.1c-.734.013-1.469.014-2.2,0A1.983,1.983,0,0,1,146.222,36q-.016-3.4,0-6.8a2,2,0,0,1,2.176-2.173q1.58,0,3.16,0c.647,0,1.032.334,1.029.872s-.387.863-1.037.865c-1.006,0-2.011.014-3.017-.005-.4-.008-.582.1-.567.539.028.779.008,1.56.008,2.408m0,1.746c0,.892-.014,1.735.016,2.576,0,.112.226.3.353.31.717.03,1.437.012,2.155.016.261,0,.374-.112.371-.376-.007-.719-.006-1.437,0-2.156,0-.263-.113-.375-.375-.373-.814.006-1.628,0-2.52,0" transform="translate(-127.491 -23.563)" fill="red"/>
        <path id="Trazado_525" data-name="Trazado 525" d="M216.379,32.523c0,.99.012,1.981,0,2.97A2.511,2.511,0,0,1,214,38.071a9.04,9.04,0,0,1-1.768-.024,2.47,2.47,0,0,1-2.2-2.438q-.033-3.066,0-6.132a2.516,2.516,0,0,1,2.491-2.469c.463-.011.927-.012,1.389,0a2.522,2.522,0,0,1,2.462,2.448c.028,1.021.006,2.044.006,3.066h0m-1.687.1c0-.958.011-1.916,0-2.873-.01-.649-.3-.926-.946-.941-.367-.008-.734-.011-1.1,0a.8.8,0,0,0-.876.86q-.016,2.921,0,5.842a.82.82,0,0,0,.87.878c.334.015.67.006,1.005,0,.751-.006,1.045-.291,1.051-1.042.008-.91,0-1.819,0-2.729" transform="translate(-183.117 -23.542)" fill="red"/>
        <path id="Trazado_526" data-name="Trazado 526" d="M86.971,33.438c-1.251,0-2.431.007-3.611-.006a1.383,1.383,0,0,1-.64-.136.781.781,0,0,1-.4-.937.812.812,0,0,1,.832-.659c1.069-.009,2.139-.006,3.208-.007h.57c0-.911.018-1.768-.022-2.623-.005-.113-.305-.3-.472-.3-1.085-.028-2.17-.008-3.256-.019a.864.864,0,0,1-.322-1.676,1.153,1.153,0,0,1,.374-.056c1.149,0,2.3-.013,3.448,0a1.982,1.982,0,0,1,2,1.971q.037,3.567,0,7.135a1.942,1.942,0,0,1-1.9,1.962c-1.195.054-2.394.03-3.591.011a.872.872,0,0,1-.9-.868.9.9,0,0,1,.942-.881c.478-.017.958.007,1.436-.008.742-.022,1.483-.062,2.225-.094.027-.744.055-1.487.079-2.231.006-.172,0-.345,0-.575" transform="translate(-71.751 -23.55)" fill="red"/>
        <path id="Trazado_527" data-name="Trazado 527" d="M264.868,0a2.358,2.358,0,1,1-.02,4.715,2.336,2.336,0,0,1-2.343-2.343A2.333,2.333,0,0,1,264.868,0m-.619,2.358a.605.605,0,0,0,.608.6.6.6,0,0,0,.593-.574.619.619,0,0,0-.583-.632.634.634,0,0,0-.618.6" transform="translate(-228.891 0)" fill="red"/>
      </g>
    </g>
  </g>
</svg>
