<svg xmlns="http://www.w3.org/2000/svg" width="52" height="52" viewBox="0 0 52 52">
  <g id="Grupo_17021" data-name="Grupo 17021" transform="translate(-5145 -3295)">
    <circle id="Elipse_125" data-name="Elipse 125" cx="26" cy="26" r="26" transform="translate(5145 3295)" fill="#15223f"/>
    <path id="Unión_11" data-name="Unión 11" d="M19.982,24.228V22.8a8.6,8.6,0,0,0-17.2,0v1.428a1.391,1.391,0,0,1-2.783,0V22.8A11.413,11.413,0,0,1,6.689,12.424a7.1,7.1,0,1,1,9.387,0A11.413,11.413,0,0,1,22.765,22.8v1.428a1.391,1.391,0,0,1-2.783,0ZM7.064,7.1a4.318,4.318,0,1,0,4.318-4.317A4.323,4.323,0,0,0,7.064,7.1Zm19.855,7.546V11.8H24.07a1.59,1.59,0,0,1,0-3.181h2.849V5.768a1.59,1.59,0,1,1,3.181,0V8.617h2.849a1.59,1.59,0,1,1,0,3.181H30.1v2.849a1.59,1.59,0,1,1-3.181,0Z" transform="translate(5156 3308)" fill="#fff"/>
  </g>
</svg>
