<svg xmlns="http://www.w3.org/2000/svg" viewBox="0 0 45.923 43.601">
  <g id="Grupo_545" data-name="Grupo 545" transform="translate(-764.216 -961.989)">
    <g id="Grupo_258" data-name="Grupo 258" transform="translate(764.216 961.989)">
      <path id="Trazado_239" data-name="Trazado 239" d="M27.1,1.727A5.1,5.1,0,0,1,34.44,4.119l.075.18a5.1,5.1,0,0,0,4.32,3.114l.215.016a5.1,5.1,0,0,1,4.568,6.306h0A5.1,5.1,0,0,0,45.3,18.869l.01.008a5.1,5.1,0,0,1,0,7.826l-.01.008a5.1,5.1,0,0,0-1.681,5.134h0a5.1,5.1,0,0,1-4.568,6.306l-.215.016a5.1,5.1,0,0,0-4.32,3.114l-.075.18A5.1,5.1,0,0,1,27.1,43.853l-.28-.17a5.1,5.1,0,0,0-5.278,0l-.28.17a5.1,5.1,0,0,1-7.343-2.392l-.075-.18a5.1,5.1,0,0,0-4.32-3.114L9.3,38.151a5.1,5.1,0,0,1-4.568-6.306h0a5.1,5.1,0,0,0-1.681-5.134l-.01-.008a5.1,5.1,0,0,1,0-7.826l.01-.008a5.1,5.1,0,0,0,1.681-5.134h0A5.1,5.1,0,0,1,9.3,7.429l.215-.016A5.1,5.1,0,0,0,13.84,4.3l.075-.18a5.1,5.1,0,0,1,7.343-2.392l.28.17a5.1,5.1,0,0,0,5.278,0Z" transform="translate(-1.216 -0.989)" fill="#1270ec"/>
      <path id="Trazado_25" data-name="Trazado 25" d="M52.736,83.477a1.873,1.873,0,0,1-1.329-.55L46.55,78.07a1.879,1.879,0,0,1,2.657-2.657l3.529,3.529,8.386-8.386a1.879,1.879,0,0,1,2.657,2.657l-9.715,9.715A1.873,1.873,0,0,1,52.736,83.477Z" transform="translate(-32.868 -55.316)" fill="#fff"/>
    </g>
  </g>
</svg>
