<svg id="Grupo_455" data-name="Grupo 455" xmlns="http://www.w3.org/2000/svg" viewBox="0 0 47 31">
  <g id="visa-color_large" transform="translate(0 0)">
    <rect id="card_bg" width="47" height="31" rx="4" fill="#2a2a6c"/>
    <path id="visa-logo" d="M16.443,9.2a6.888,6.888,0,0,1-2.516-.474l.416-1.933a4.851,4.851,0,0,0,2.3.581H16.7c.688-.01,1.382-.286,1.382-.879.009-.379-.316-.68-1.2-1.112-.867-.424-2.02-1.137-2.02-2.426C14.864,1.216,16.454,0,18.73,0a6.2,6.2,0,0,1,2.165.4l-.405,1.933a4.361,4.361,0,0,0-1.856-.418c-.142,0-.285.007-.426.021-.668.088-.966.438-.966.745,0,.375.479.625,1.085.943.962.5,2.159,1.13,2.152,2.6l.049-.077C20.518,8,18.935,9.2,16.5,9.2Zm6.4-.077H20.412L23.882.841a1.05,1.05,0,0,1,.966-.658h1.933l1.874,8.939H26.51L26.23,7.79h-2.91l-.473,1.333Zm2.3-6.524L23.929,5.953h1.923ZM12.274,9.095H9.954L11.888.155h2.319L12.274,9.094ZM7.2,9.065H4.678L2.832,1.923a.972.972,0,0,0-.551-.783A9.584,9.584,0,0,0,0,.386L.058.125H3.992a1.08,1.08,0,0,1,1.072.909L6.03,6.2,8.437.125H10.95L7.2,9.065Z" transform="translate(10.047 11.163)" fill="#fff"/>
  </g>
</svg>
