<svg xmlns="http://www.w3.org/2000/svg" viewBox="0 0 37.297 32.259">
  <g id="wallet" transform="translate(-1.5 -4.5)">
    <path id="Trazado_891" data-name="Trazado 891" d="M38.254,10.01a1.849,1.849,0,0,0-1.318-.547H35.62v-3.1A1.863,1.863,0,0,0,33.759,4.5H6.977A5.477,5.477,0,0,0,1.5,9.977V31.282a5.477,5.477,0,0,0,5.477,5.477H36.863A1.865,1.865,0,0,0,38.724,34.9L38.8,11.33a1.848,1.848,0,0,0-.543-1.32Zm-2.01,24.267H6.977a3,3,0,0,1-3-3V9.977a3,3,0,0,1,3-3H33.139V9.463H7.083v2.481h29.23Z" fill="#15223f"/>
    <path id="Trazado_892" data-name="Trazado 892" d="M36.75,24.75h2.481v2.481H36.75Z" transform="translate(-6.093 -3.5)" fill="#15223f"/>
  </g>
</svg>
