<svg id="Grupo_17082" data-name="Grupo 17082" xmlns="http://www.w3.org/2000/svg" viewBox="0 0 72.636 17.923">
  <g id="Grupo_17080" data-name="Grupo 17080" transform="translate(0 0)">
    <path id="Trazado_1" data-name="Trazado 1" d="M165.87,45.007a5.034,5.034,0,0,1,.42-2.048,5.368,5.368,0,0,1,2.81-2.8,5.211,5.211,0,0,1,4.059-.006,5.373,5.373,0,0,1,1.662,1.11,5.294,5.294,0,0,1,1.132,1.651,5.2,5.2,0,0,1,.441,2.021v3.81a1.371,1.371,0,0,1-.111.547,1.4,1.4,0,0,1-.3.447,1.412,1.412,0,0,1-.441.3,1.375,1.375,0,0,1-.552.111A1.272,1.272,0,0,1,173.8,49.4a5.537,5.537,0,0,1-1.264.629,4.219,4.219,0,0,1-1.4.232,5.065,5.065,0,0,1-2.037-.414,5.4,5.4,0,0,1-1.673-1.126,5.342,5.342,0,0,1-1.137-1.673,5.046,5.046,0,0,1-.42-2.043Zm2.739.006a2.442,2.442,0,0,0,.2.98,2.578,2.578,0,0,0,.542.8,2.506,2.506,0,0,0,1.782.73,2.552,2.552,0,0,0,.99-.193,2.421,2.421,0,0,0,.8-.536,2.606,2.606,0,0,0,.536-.8,2.427,2.427,0,0,0,.2-.98,2.457,2.457,0,0,0-.2-.985,2.631,2.631,0,0,0-.536-.8,2.416,2.416,0,0,0-.8-.536,2.531,2.531,0,0,0-.99-.193,2.506,2.506,0,0,0-1.782.73,2.576,2.576,0,0,0-.542.8A2.43,2.43,0,0,0,168.609,45.013Z" transform="translate(-150.291 -36.134)" fill="#15223f"/>
    <path id="Trazado_2" data-name="Trazado 2" d="M282.875,45.6l2.308-5.1a1.325,1.325,0,0,1,.309-.441,1.358,1.358,0,0,1,.441-.282,1.327,1.327,0,0,1,.514-.088,1.468,1.468,0,0,1,.535.116,1.436,1.436,0,0,1,.453.32,1.343,1.343,0,0,1,.282.447,1.368,1.368,0,0,1,.088.519,1.345,1.345,0,0,1-.127.535l-5.367,11.551a1.333,1.333,0,0,1-.326.447,1.55,1.55,0,0,1-.453.282,1.3,1.3,0,0,1-.519.094,1.265,1.265,0,0,1-.524-.127,1.133,1.133,0,0,1-.668-.74,1.5,1.5,0,0,1,.116-1.049l1.48-3.28-3.324-7.189a1.346,1.346,0,0,1-.127-.535,1.372,1.372,0,0,1,.088-.519,1.328,1.328,0,0,1,.282-.447,1.326,1.326,0,0,1,.977-.436,1.268,1.268,0,0,1,.514.094,1.4,1.4,0,0,1,.75.729Z" transform="translate(-251.859 -36.077)" fill="#15223f"/>
    <path id="Trazado_5" data-name="Trazado 5" d="M118.315,4.654a1.657,1.657,0,1,1,1.478-1.478A1.658,1.658,0,0,1,118.315,4.654Z" transform="translate(-105.548 -1.35)" fill="#15223f"/>
    <path id="Trazado_6" data-name="Trazado 6" d="M1.633,51.8A1.641,1.641,0,0,1,0,50.154V43.416a1.641,1.641,0,0,1,1.633-1.648,1.608,1.608,0,0,1,1.579,1.606V50.2A1.608,1.608,0,0,1,1.633,51.8Z" transform="translate(0 -37.971)" fill="red"/>
    <path id="Trazado_7" data-name="Trazado 7" d="M2,5.617A1.607,1.607,0,1,1,3.437,4.183,1.609,1.609,0,0,1,2,5.617Z" transform="translate(-0.211 -2.312)" fill="red"/>
    <path id="Trazado_8" data-name="Trazado 8" d="M14.539,65.568A1.6,1.6,0,0,1,13.4,65.1L9.141,60.836,4.878,65.1a1.606,1.606,0,1,1-2.271-2.271l5.4-5.4a1.609,1.609,0,0,1,2.272,0l5.4,5.4a1.605,1.605,0,0,1-1.136,2.741Z" transform="translate(-1.937 -51.737)" fill="red"/>
    <path id="Trazado_9" data-name="Trazado 9" d="M117.191,44.994a.48.48,0,0,1-.141-.339V43.376a1.608,1.608,0,0,1,1.606-1.606h.059a1.646,1.646,0,0,1,1.547,1.655v4.245a.163.163,0,0,1-.279.116Z" transform="translate(-106.056 -37.974)" fill="#15223f"/>
  </g>
  <g id="Grupo_17081" data-name="Grupo 17081" transform="translate(37.57 1.984)">
    <path id="Trazado_878" data-name="Trazado 878" d="M-23.857-9.822a3.717,3.717,0,0,0,3-1.463l-.6-.369a2.98,2.98,0,0,1-2.4,1.193,3.419,3.419,0,0,1-3.418-3.6,3.405,3.405,0,0,1,3.418-3.6,2.98,2.98,0,0,1,2.4,1.193l.59-.381a3.682,3.682,0,0,0-2.988-1.451,4.074,4.074,0,0,0-4.156,4.242A4.074,4.074,0,0,0-23.857-9.822Zm8.791-.148V-14.15c0-1.328-.959-1.906-2.164-1.906a2.884,2.884,0,0,0-2.287,1l.357.443a2.317,2.317,0,0,1,1.869-.873A1.408,1.408,0,0,1-15.7-14.125v1.2a2.569,2.569,0,0,0-2.017-.848A1.964,1.964,0,0,0-19.8-11.8a1.989,1.989,0,0,0,2.078,1.98A2.586,2.586,0,0,0-15.7-10.67v.7Zm-2.435-.357a1.488,1.488,0,0,1-1.623-1.463A1.49,1.49,0,0,1-17.5-13.265a2.195,2.195,0,0,1,1.8.824v1.3A2.22,2.22,0,0,1-17.5-10.326Zm6.2.5c1.488,0,2.226-.787,2.226-1.746,0-2.287-3.738-1.377-3.738-2.865,0-.615.553-1.082,1.475-1.082a2.164,2.164,0,0,1,1.771.787l.357-.455a2.731,2.731,0,0,0-2.127-.873c-1.34,0-2.115.738-2.115,1.648,0,2.139,3.75,1.217,3.75,2.84,0,.689-.59,1.2-1.586,1.2a2.474,2.474,0,0,1-1.918-.873l-.381.467A2.846,2.846,0,0,0-11.3-9.822Zm8.521-.148V-14.15a1.657,1.657,0,0,0-1.869-1.906A3.01,3.01,0,0,0-6.79-15.011v-3.16h-.639v8.2h.639v-4.488a2.542,2.542,0,0,1,1.93-1.021c.861,0,1.439.32,1.439,1.463v4.045Z" transform="translate(32.567 21.038)" fill="#15223f"/>
    <g id="Trazado_879" data-name="Trazado 879" fill="none">
      <path d="M2.277,0H32.789a2.277,2.277,0,0,1,2.277,2.277V12.3a2.277,2.277,0,0,1-2.277,2.277H2.277A2.277,2.277,0,0,1,0,12.3V2.277A2.277,2.277,0,0,1,2.277,0Z" stroke="none"/>
      <path d="M 2.276996612548828 0.5000019073486328 C 1.297157287597656 0.5000019073486328 0.4999961853027344 1.297151565551758 0.4999961853027344 2.276991844177246 L 0.4999961853027344 12.29577159881592 C 0.4999961853027344 13.27561187744141 1.297157287597656 14.07276153564453 2.276996612548828 14.07276153564453 L 32.78871536254883 14.07276153564453 C 33.7685546875 14.07276153564453 34.56571578979492 13.27561187744141 34.56571578979492 12.29577159881592 L 34.56571578979492 2.276991844177246 C 34.56571578979492 1.297151565551758 33.7685546875 0.5000019073486328 32.78871536254883 0.5000019073486328 L 2.276996612548828 0.5000019073486328 M 2.276996612548828 1.9073486328125e-06 L 32.78871536254883 1.9073486328125e-06 C 34.0462646484375 1.9073486328125e-06 35.06571578979492 1.019441604614258 35.06571578979492 2.276991844177246 L 35.06571578979492 12.29577159881592 C 35.06571578979492 13.55332183837891 34.0462646484375 14.57276153564453 32.78871536254883 14.57276153564453 L 2.276996612548828 14.57276153564453 C 1.019447326660156 14.57276153564453 -3.814697265625e-06 13.55332183837891 -3.814697265625e-06 12.29577159881592 L -3.814697265625e-06 2.276991844177246 C -3.814697265625e-06 1.019441604614258 1.019447326660156 1.9073486328125e-06 2.276996612548828 1.9073486328125e-06 Z" stroke="none" fill="#15223f"/>
    </g>
  </g>
</svg>
