<svg width="16" height="16" viewBox="0 0 16 16" fill="none" xmlns="http://www.w3.org/2000/svg">
<path d="M5.625 2.80797H5.5C5.56875 2.80797 5.625 2.75097 5.625 2.6813V2.80797H10.375V2.6813C10.375 2.75097 10.4312 2.80797 10.5 2.80797H10.375V3.94797H11.5V2.6813C11.5 2.12239 11.0516 1.66797 10.5 1.66797H5.5C4.94844 1.66797 4.5 2.12239 4.5 2.6813V3.94797H5.625V2.80797ZM13.5 3.94797H2.5C2.22344 3.94797 2 4.17439 2 4.45464V4.9613C2 5.03097 2.05625 5.08797 2.125 5.08797H3.06875L3.45469 13.3688C3.47969 13.9087 3.92031 14.3346 4.45312 14.3346H11.5469C12.0813 14.3346 12.5203 13.9103 12.5453 13.3688L12.9312 5.08797H13.875C13.9438 5.08797 14 5.03097 14 4.9613V4.45464C14 4.17439 13.7766 3.94797 13.5 3.94797ZM11.4266 13.1946H4.57344L4.19531 5.08797H11.8047L11.4266 13.1946Z" fill="#23262A"/>
</svg>
