<svg width="20" height="20" viewBox="0 0 20 20" fill="none" xmlns="http://www.w3.org/2000/svg">
<mask id="mask0_5308_5522" style="mask-type:alpha" maskUnits="userSpaceOnUse" x="0" y="0" width="20" height="20">
<rect width="20" height="20" fill="#D9D9D9"/>
</mask>
<g mask="url(#mask0_5308_5522)">
<path d="M4.29488 15.8332H5.32532L13.0417 8.1168L12.0113 7.08634L4.29488 14.8027V15.8332ZM15.7147 7.21297L12.9023 4.42616L13.9888 3.33964C14.2335 3.09498 14.531 2.97266 14.8814 2.97266C15.2318 2.97266 15.5294 3.09498 15.774 3.33964L16.7884 4.35403C17.0331 4.59868 17.1597 4.89195 17.1682 5.23382C17.1768 5.5757 17.0587 5.86896 16.8141 6.11361L15.7147 7.21297ZM14.8109 8.12962L5.85736 17.0832H3.04492V14.2707L11.9984 5.31716L14.8109 8.12962Z" fill="#23262A"/>
</g>
</svg>
