<svg width="36" height="24" viewBox="0 0 36 24" fill="none" xmlns="http://www.w3.org/2000/svg">
<path d="M9.23077 18.4591L6.3 15.8284C5.19231 14.8284 4.24231 13.9361 3.45 13.1514C2.65769 12.3668 2.00385 11.6284 1.48846 10.9361C0.973077 10.2438 0.596154 9.57452 0.357692 8.92837C0.119231 8.28221 0 7.60529 0 6.8976C0 5.45144 0.484615 4.2476 1.45385 3.28606C2.42308 2.32452 3.63077 1.84375 5.07692 1.84375C5.87692 1.84375 6.63846 2.01298 7.36154 2.35144C8.08461 2.6899 8.70769 3.16683 9.23077 3.78221C9.75385 3.16683 10.3769 2.6899 11.1 2.35144C11.8231 2.01298 12.5846 1.84375 13.3846 1.84375C14.6308 1.84375 15.6769 2.19375 16.5231 2.89375C17.3692 3.59375 17.9462 4.47452 18.2538 5.53606H16.2923C16.0154 4.92067 15.6077 4.45913 15.0692 4.15144C14.5308 3.84375 13.9692 3.6899 13.3846 3.6899C12.6 3.6899 11.9231 3.90144 11.3538 4.32452C10.7846 4.7476 10.2538 5.30529 9.76154 5.9976H8.7C8.22308 5.30529 7.68077 4.7476 7.07308 4.32452C6.46538 3.90144 5.8 3.6899 5.07692 3.6899C4.2 3.6899 3.44231 3.99375 2.80385 4.60144C2.16538 5.20913 1.84615 5.97452 1.84615 6.8976C1.84615 7.40529 1.95385 7.92067 2.16923 8.44375C2.38462 8.96683 2.76923 9.57067 3.32308 10.2553C3.87692 10.9399 4.63077 11.7399 5.58462 12.6553C6.53846 13.5707 7.75385 14.6745 9.23077 15.9668V18.4591Z" fill="#B0D0F9"/>
<mask id="mask0_2001_65986" style="mask-type:alpha" maskUnits="userSpaceOnUse" x="8" y="7" width="29" height="19">
<rect x="8" y="7" width="29" height="19" fill="#D9D9D9"/>
</mask>
<g mask="url(#mask0_2001_65986)">
<path d="M21.779 15.1424C22.2624 14.5847 22.6342 13.9702 22.8944 13.2987C23.1547 12.6273 23.2848 11.9313 23.2848 11.2107C23.2848 10.4966 23.1547 9.80687 22.8944 9.14149C22.6342 8.47609 22.2624 7.85525 21.779 7.27897C21.9278 7.24179 22.0672 7.21855 22.1973 7.20925C22.3274 7.19996 22.4669 7.19531 22.6156 7.19531C23.731 7.19531 24.679 7.5857 25.4598 8.36647C26.2406 9.14724 26.631 10.0953 26.631 11.2107C26.631 12.3261 26.2406 13.2742 25.4598 14.0549C24.679 14.8357 23.731 15.2261 22.6156 15.2261C22.4669 15.2261 22.3228 15.2214 22.1834 15.2121C22.0439 15.2028 21.9092 15.1796 21.779 15.1424ZM27.3002 23.2569V20.6915C27.3002 19.9293 27.1236 19.2182 26.7704 18.5583C26.4172 17.8984 25.9245 17.336 25.2925 16.8713C26.5566 17.1687 27.7649 17.5777 28.9175 18.0982C30.0701 18.6187 30.6463 19.4831 30.6463 20.6915V23.2569H27.3002ZM30.981 16.5645V14.2222H28.6386V12.2145H30.981V9.87224H32.9886V12.2145H35.331V14.2222H32.9886V16.5645H30.981ZM17.2617 15.2261C16.1463 15.2261 15.1983 14.8357 14.4175 14.0549C13.6367 13.2742 13.2463 12.3261 13.2463 11.2107C13.2463 10.0953 13.6367 9.14724 14.4175 8.36647C15.1983 7.5857 16.1463 7.19531 17.2617 7.19531C18.3771 7.19531 19.3252 7.5857 20.106 8.36647C20.8867 9.14724 21.2771 10.0953 21.2771 11.2107C21.2771 12.3261 20.8867 13.2742 20.106 14.0549C19.3252 14.8357 18.3771 15.2261 17.2617 15.2261ZM9.23096 23.2569V20.6915C9.23096 20.2192 9.34714 19.7851 9.57951 19.3892C9.81189 18.9933 10.1326 18.6652 10.5415 18.4049C11.5454 17.7729 12.6193 17.3081 13.7633 17.0107C14.9073 16.7133 16.0691 16.5645 17.2488 16.5645C18.4286 16.5645 19.5854 16.7226 20.7194 17.0386C21.8534 17.3546 22.9409 17.8101 23.9819 18.4049C24.3723 18.6652 24.6883 18.9933 24.93 19.3892C25.1717 19.7851 25.2925 20.2192 25.2925 20.6915V23.2569H9.23096ZM17.2479 13.2184C17.7962 13.2184 18.2702 13.0232 18.6699 12.6327C19.0696 12.2422 19.2694 11.7728 19.2694 11.2245C19.2694 10.6762 19.0696 10.2022 18.6699 9.80252C18.2702 9.40285 17.7962 9.20301 17.2479 9.20301C16.6996 9.20301 16.2302 9.40285 15.8397 9.80252C15.4493 10.2022 15.254 10.6762 15.254 11.2245C15.254 11.7728 15.4493 12.2422 15.8397 12.6327C16.2302 13.0232 16.6996 13.2184 17.2479 13.2184ZM11.2386 21.2492H23.2848V20.6915C23.2848 20.5786 23.2569 20.4761 23.2011 20.3838C23.1454 20.2915 23.071 20.2081 22.9781 20.1338C22.0858 19.6504 21.1609 19.2694 20.2036 18.9905C19.2462 18.7117 18.2609 18.5722 17.2478 18.5722C16.2346 18.5722 15.2494 18.707 14.292 18.9766C13.3346 19.2461 12.4191 19.6319 11.5454 20.1338C11.4524 20.2081 11.3781 20.2915 11.3223 20.3838C11.2665 20.4761 11.2386 20.5786 11.2386 20.6915V21.2492Z" fill="#89B8F6"/>
</g>
</svg>
