<svg width="16" height="17" viewBox="0 0 16 17" fill="none" xmlns="http://www.w3.org/2000/svg">
<mask id="mask0_1987_27079" style="mask-type:alpha" maskUnits="userSpaceOnUse" x="0" y="0" width="16" height="17">
<rect y="0.517578" width="16" height="16" fill="#23262A"/>
</mask>
<g mask="url(#mask0_1987_27079)">
<path d="M0.668091 13.8561V11.9895C0.668091 11.6117 0.765313 11.2645 0.959758 10.9478C1.1542 10.6311 1.41254 10.3895 1.73476 10.2228C2.42365 9.87834 3.12365 9.62001 3.83476 9.44778C4.54587 9.27556 5.26809 9.18945 6.00143 9.18945C6.73476 9.18945 7.45698 9.27556 8.16809 9.44778C8.8792 9.62001 9.5792 9.87834 10.2681 10.2228C10.5903 10.3895 10.8486 10.6311 11.0431 10.9478C11.2375 11.2645 11.3348 11.6117 11.3348 11.9895V13.8561H0.668091ZM12.6681 13.8561V11.8561C12.6681 11.3672 12.532 10.8978 12.2598 10.4478C11.9875 9.99779 11.6014 9.61167 11.1014 9.28945C11.6681 9.35612 12.2014 9.47001 12.7014 9.63112C13.2014 9.79223 13.6681 9.98945 14.1014 10.2228C14.5014 10.445 14.807 10.6922 15.0181 10.9645C15.2292 11.2367 15.3348 11.5339 15.3348 11.8561V13.8561H12.6681ZM6.00143 8.52279C5.26809 8.52279 4.64031 8.26167 4.11809 7.73945C3.59587 7.21723 3.33476 6.58945 3.33476 5.85612C3.33476 5.12279 3.59587 4.49501 4.11809 3.97279C4.64031 3.45056 5.26809 3.18945 6.00143 3.18945C6.73476 3.18945 7.36254 3.45056 7.88476 3.97279C8.40698 4.49501 8.66809 5.12279 8.66809 5.85612C8.66809 6.58945 8.40698 7.21723 7.88476 7.73945C7.36254 8.26167 6.73476 8.52279 6.00143 8.52279ZM12.6681 5.85612C12.6681 6.58945 12.407 7.21723 11.8848 7.73945C11.3625 8.26167 10.7348 8.52279 10.0014 8.52279C9.8792 8.52279 9.72365 8.5089 9.53476 8.48112C9.34587 8.45334 9.19032 8.42279 9.06809 8.38945C9.36809 8.0339 9.59865 7.63945 9.75976 7.20612C9.92087 6.77279 10.0014 6.32279 10.0014 5.85612C10.0014 5.38945 9.92087 4.93945 9.75976 4.50612C9.59865 4.07279 9.36809 3.67834 9.06809 3.32279C9.22365 3.26723 9.3792 3.23112 9.53476 3.21445C9.69032 3.19779 9.84587 3.18945 10.0014 3.18945C10.7348 3.18945 11.3625 3.45056 11.8848 3.97279C12.407 4.49501 12.6681 5.12279 12.6681 5.85612ZM2.00142 12.5228H10.0014V11.9895C10.0014 11.8672 9.97087 11.7561 9.90976 11.6561C9.84865 11.5561 9.76809 11.4783 9.66809 11.4228C9.06809 11.1228 8.46254 10.8978 7.85143 10.7478C7.24031 10.5978 6.62365 10.5228 6.00143 10.5228C5.3792 10.5228 4.76254 10.5978 4.15142 10.7478C3.54031 10.8978 2.93476 11.1228 2.33476 11.4228C2.23476 11.4783 2.1542 11.5561 2.09309 11.6561C2.03198 11.7561 2.00142 11.8672 2.00142 11.9895V12.5228ZM6.00143 7.18945C6.36809 7.18945 6.68198 7.0589 6.94309 6.79779C7.2042 6.53667 7.33476 6.22279 7.33476 5.85612C7.33476 5.48945 7.2042 5.17556 6.94309 4.91445C6.68198 4.65334 6.36809 4.52279 6.00143 4.52279C5.63476 4.52279 5.32087 4.65334 5.05976 4.91445C4.79865 5.17556 4.66809 5.48945 4.66809 5.85612C4.66809 6.22279 4.79865 6.53667 5.05976 6.79779C5.32087 7.0589 5.63476 7.18945 6.00143 7.18945Z" fill="#464C55"/>
</g>
</svg>
