<svg width="20" height="20" viewBox="0 0 20 20" fill="none" xmlns="http://www.w3.org/2000/svg">
<path fill-rule="evenodd" clip-rule="evenodd" d="M4.54709 11.3214C5.79851 9.00812 7.95462 7.13328 11.4817 6.62942V3.66645L16.6669 8.85164L11.4817 14.0368V10.9998C10.9236 10.9998 10.3906 11.0267 9.8817 11.0813C8.29379 11.2516 6.93917 11.6914 5.77935 12.4236C4.84416 13.014 4.03562 13.7947 3.33355 14.7776C3.57042 13.5932 3.95879 12.4088 4.54709 11.3214ZM9.8817 12.691V14.0368C9.8817 14.684 10.2715 15.2674 10.8694 15.515C11.4673 15.7627 12.1555 15.6258 12.6131 15.1682L17.7983 9.98301C18.4231 9.35817 18.4231 8.34511 17.7983 7.72027L12.6131 2.53508C12.1555 2.07749 11.4673 1.9406 10.8694 2.18825C10.2715 2.4359 9.8817 3.01931 9.8817 3.66645V5.31638C7.60068 5.89814 5.84107 7.04822 4.53683 8.53877C3.00575 10.2886 2.17249 12.4244 1.76462 14.4638C1.6167 15.2034 2.0054 15.9459 2.6975 16.2457C3.3896 16.5455 4.19712 16.3213 4.63552 15.7075C5.87201 13.9765 7.49416 12.9828 9.8817 12.691Z" fill="#23262A"/>
</svg>
