<svg id="Grupo_16388" data-name="Grupo 16388" xmlns="http://www.w3.org/2000/svg" xmlns:xlink="http://www.w3.org/1999/xlink" viewBox="0 0 34.8 25">
  <defs>
    <clipPath id="clip-path">
      <rect id="Rectángulo_664" data-name="Rectángulo 664" width="34.8" height="25" fill="none"/>
    </clipPath>
  </defs>
  <g id="Grupo_16387" data-name="Grupo 16387" transform="translate(0 0)" clip-path="url(#clip-path)">
    <path id="Trazado_518" data-name="Trazado 518" d="M17.4,25c5.76,0,10.869-2.011,14.037-5.11l-2.853.013a17.3,17.3,0,0,1-11.113,3.7c-8.339,0-14.849-4.97-14.849-11.1,0-7.071,6.51-11.1,14.849-11.1.531,0,.955.246.637.706-1.733,2.086-6.666,8.8-7.567,10.254-1.776,2.867-1.733,6.4,2.617,6.646H31.446a1.586,1.586,0,0,0,1.509-.9A9.336,9.336,0,0,0,34.8,12.5c0-5.269-3.711-9.218-9.166-11.16L24.789,2.6c4.533,1.671,7.532,5.052,7.532,9.9a8.606,8.606,0,0,1-.357,2.45c-.2.683-.6,1.263-1.349,1.263h-14.6c-1.87,0-1.148-1.929-.455-2.864a118.122,118.122,0,0,1,7.829-10.7c.337-.513,1.284-1.573-.021-1.98A25.937,25.937,0,0,0,17.4,0C7.791,0,.005,4.934,0,12.5,0,20.137,7.791,25,17.4,25" transform="translate(0 0)" fill="#9fa0a0" fill-rule="evenodd"/>
  </g>
</svg>
