<svg id="Grupo_16386" data-name="Grupo 16386" xmlns="http://www.w3.org/2000/svg" viewBox="0 0 37.974 25">
  <path id="Trazado_516" data-name="Trazado 516" d="M18.387,19.39l-.358-.216-.323-.322-.287-.5-.356-.767-.181-.5-.177-.5L16.4,15.47l-.2-1.145-.089-1.162-.038-.609.806.107.163.036.947.089.949.037h.947l.592-.037.375-.037.18-.019.769-.088-.037.519-.106,1.074-.215,1.218-.322,1.2-.089.231-.3.841-.252.556-.108.25-.323.464-.374.322-.45.163-.267.017H18.8Zm-1.505,3.848-.7-.072L14.985,23l-1.2-.267-1.2-.342L11.443,22l-1.127-.485-1.361-.679-1.307-.823L6.4,18.977l-.984-1.036L4.661,16.92l-.608-1.074L3.534,14.72l-.287-.913-.214-.931-.107-.948-.018-.948.071-.823.2-.806.285-.77.393-.716.5-.66.573-.592.143.625.251.574.322.553.394.5L6.5,9.3l.5.357.895.609,1.019.536,1.11.448,1.379.431,1.556.392,1.4.287-.037,1.235.054,1.234.127,1.218.16,1.143.25,1.129.324,1.093.411,1.056.519,1.037.572.931.143.179.537.662Zm4.153-.556.052-.106.518-.824.449-.877.34-1,.3-1.02.268-1.021.215-1.036.179-1.039.126-1.056.088-1.126.037-1.128.9-.268.107-.036.986-.286.947-.322.895-.322.949-.32.876-.414.859-.517.77-.609.7-.7.537-.661.449-.716.356-.772.556.7.465.751.411.788.322.839.2.717.123.734.055.733-.019.753-.087.734-.144.734L34.6,14.7l-.267.681-.5.983-.589.9-.646.8-.8.751-1,.787-1.217.806-1.343.752-1.377.661-1.233.449-1.11.34-.143.035-1.27.3L21.8,23.2l-.769.107-.52.071ZM18.119,9.672l-.878-.053-.359-.037-.519-.052.108-.681.161-.662.2-.715.053-.108.2-.483.306-.627.285-.538.286-.339.394-.25L18.779,5h.446l.432.16.357.252.268.356.2.324.071.161.3.608.18.43.089.214.2.646.162.679.123.679-.57.072-.3.037-.252.017-.626.036L19,9.692h-.037Zm-4.366-.518L12.91,9.01l-.822-.233-.823-.285-.787-.339-.645-.36-.483-.34L8.955,7.1l-.286-.41-.2-.449-.072-.5.072-.5.179-.482.286-.429L9.4,3.929l.644-.395.967-.428,1.021-.411,1.092-.341,1.163-.269,1.146-.142.806-.052.642-.037h.163l.806-.017h.8l-.431.266-.392.286-.413.34-.374.412-.163.215-.213.269-.357.573-.395.662-.377.84-.321.876-.249.878-.216.895-.142.913Zm9.483-.626-.143-.841-.214-.805-.268-.787-.324-.768-.358-.753-.34-.608-.286-.43-.268-.34-.054-.07-.375-.378-.126-.107-.268-.232-.429-.3-.447-.266,1.145.053H20.5l.539.035.644.054,1.163.142L24,2.3l.5.108.644.143,1.147.268.964.288.717.267.537.322.447.394.358.484.25.538.108.555-.018.482-.16.428-.289.395-.5.411-.823.466-.877.376-.9.358-.913.3-.7.2-.232.054-.931.215ZM18.95,0,17.018.052l-.144.018-1.807.2L13.152.59l-1.861.464-1.754.59-1.665.7-1.557.824-1.4.929L3.65,5.1,2.577,6.191,1.646,7.373.93,8.589l-.322.734-.268.768-.2.787-.106.805L0,12.489l.036.806.106.8.2.789.268.786.322.717.715,1.236.932,1.163L3.65,19.88l1.271,1,1.4.931,1.557.843,1.665.68,1.754.589,1.79.447,1.79.322,1.825.214h.178L18.521,25h.429l1.379-.02.143-.017.555-.034,1.109-.11,1.824-.251.538-.125,1.255-.248.894-.251.911-.286,1.451-.574,1.4-.662,1.341-.75,1.29-.86,1.252-.93,1.128-1.091.913-1.163.715-1.236.34-.717.251-.786.2-.789.125-.8.019-.806-.019-.805-.125-.805-.2-.787-.251-.768-.34-.734-.715-1.216-.913-1.165L34.321,5.1l-1.252-1-1.413-.929-1.541-.824-1.663-.7-1.772-.59L24.82.59,24.5.536,22.924.268l-1.9-.2L20.954.052,20.472.035,19,0Z" fill="#9fa0a0"/>
  <path id="Trazado_517" data-name="Trazado 517" d="M18.387,19.39l-.358-.216-.323-.322-.287-.5-.356-.767-.181-.5-.177-.5L16.4,15.47l-.2-1.145-.089-1.162-.038-.609.806.107.163.036.947.089.949.037h.947l.592-.037.375-.037.18-.019.769-.088-.037.519-.106,1.074-.215,1.218-.322,1.2-.089.231-.3.841-.252.556-.108.25-.323.464-.374.322-.45.163-.267.017H18.8Zm-1.505,3.848-.7-.072L14.985,23l-1.2-.267-1.2-.342L11.443,22l-1.127-.485-1.361-.679-1.307-.823L6.4,18.977l-.984-1.036L4.661,16.92l-.608-1.074L3.534,14.72l-.287-.913-.214-.931-.107-.948-.018-.948.071-.823.2-.806.285-.77.393-.716.5-.66.573-.592.143.625.251.574.322.553.394.5L6.5,9.3l.5.357.895.609,1.019.536,1.11.448,1.379.431,1.556.392,1.4.287-.037,1.235.054,1.234.127,1.218.16,1.143.25,1.129.324,1.093.411,1.056.519,1.037.572.931.143.179.537.662Zm4.153-.556.052-.106.518-.824.449-.877.34-1,.3-1.02.268-1.021.215-1.036.179-1.039.126-1.056.088-1.126.037-1.128.9-.268.107-.036.986-.286.947-.322.895-.322.949-.32.876-.414.859-.517.77-.609.7-.7.537-.661.449-.716.356-.772.556.7.465.751.411.788.322.839.2.717.123.734.055.733-.019.753-.087.734-.144.734L34.6,14.7l-.267.681-.5.983-.589.9-.646.8-.8.751-1,.787-1.217.806-1.343.752-1.377.661-1.233.449-1.11.34-.143.035-1.27.3L21.8,23.2l-.769.107-.52.071ZM18.119,9.672l-.878-.053-.359-.037-.519-.052.108-.681.161-.662.2-.715.053-.108.2-.483.306-.627.285-.538.286-.339.394-.25L18.779,5h.446l.432.16.357.252.268.356.2.324.071.161.3.608.18.43.089.214.2.646.162.679.123.679-.57.072-.3.037-.252.017-.626.036L19,9.692h-.037Zm-4.366-.518L12.91,9.01l-.822-.233-.823-.285-.787-.339-.645-.36-.483-.34L8.955,7.1l-.286-.41-.2-.449-.072-.5.072-.5.179-.482.286-.429L9.4,3.929l.644-.395.967-.428,1.021-.411,1.092-.341,1.163-.269,1.146-.142.806-.052.642-.037h.163l.806-.017h.8l-.431.266-.392.286-.413.34-.374.412-.163.215-.213.269-.357.573-.395.662-.377.84-.321.876-.249.878-.216.895-.142.913Zm9.483-.626-.143-.841-.214-.805-.268-.787-.324-.768-.358-.753-.34-.608-.286-.43-.268-.34-.054-.07-.375-.378-.126-.107-.268-.232-.429-.3-.447-.266,1.145.053H20.5l.539.035.644.054,1.163.142L24,2.3l.5.108.644.143,1.147.268.964.288.717.267.537.322.447.394.358.484.25.538.108.555-.018.482-.16.428-.289.395-.5.411-.823.466-.877.376-.9.358-.913.3-.7.2-.232.054-.931.215ZM18.95,0,17.018.052l-.144.018-1.807.2L13.152.59l-1.861.464-1.754.59-1.665.7-1.557.824-1.4.929L3.65,5.1,2.577,6.191,1.646,7.373.93,8.589l-.322.734-.268.768-.2.787-.106.805L0,12.489l.036.806.106.8.2.789.268.786.322.717.715,1.236.932,1.163L3.65,19.88l1.271,1,1.4.931,1.557.843,1.665.68,1.754.589,1.79.447,1.79.322,1.825.214h.178L18.521,25h.429l1.379-.02.143-.017.555-.034,1.109-.11,1.824-.251.538-.125,1.255-.248.894-.251.911-.286,1.451-.574,1.4-.662,1.341-.75,1.29-.86,1.252-.93,1.128-1.091.913-1.163.715-1.236.34-.717.251-.786.2-.789.125-.8.019-.806-.019-.805-.125-.805-.2-.787-.251-.768-.34-.734-.715-1.216-.913-1.165L34.321,5.1l-1.252-1-1.413-.929-1.541-.824-1.663-.7-1.772-.59L24.82.59,24.5.536,22.924.268l-1.9-.2L20.954.052,20.472.035,19,0Z" fill="#9fa0a0"/>
</svg>
