<svg xmlns="http://www.w3.org/2000/svg" viewBox="0 0 327.453 174.717">
  <g id="empty-state" transform="translate(0)">
    <path id="Trazado_240" data-name="Trazado 240" d="M79.1,211.455a3.641,3.641,0,0,1-.988-2.976,185.186,185.186,0,0,1,2.52-32.7A35.156,35.156,0,0,1,82.6,168.05c2.009-4.857,5.9-8.85,9.708-12.729,6.471-6.6,13.027-13.354,16.914-21.441,3.205-6.668,4.5-14.054,8.359-20.431,4.751-7.845,13.4-13.669,23.064-15.54,9-1.74,18.442-.153,27.032,2.825a104.444,104.444,0,0,1,19.8,9.521c4.237,2.565,8.366,5.361,13.075,7.13,5.41,2.032,11.33,2.612,17.013,3.9,22.467,5.088,40.268,35.745,42.889,51.014,2.1,12.215,2.239,21.928-4.614,31.245-4.753,5.4-8.872,7.912-10.744,7.912Z" transform="translate(-33.362 -41.515)" fill="#d8e7fc" opacity="0.3"/>
    <path id="Trazado_241" data-name="Trazado 241" d="M1.77,297.609C.2,297.548.045,297.443.023,297.35c-.23-.949,1.261-1.9,4.455-2.837a19.052,19.052,0,0,1,3.47-.67c3.552-.421,10.436-.768,17.164-1.1,11.441-.572,23.031-1.158,29.9-1.86,5.666-.579,7.95-1.219,14.779-1.772,8.4-.681,23.684-1.186,40.778-1.348,15.9-.151,32.606-.014,47.792.245,12.364.211,24,.5,35,.826,7.491.223,14.792.465,23.117.619,9.566.176,20.031.227,30.078.338,39.723.442,71.2,3.1,75.828,4.426,3.707,1.059,3.96,1.9-8.156,2.71-8.4.469-15.685.686-18.995.686Z" transform="translate(0 -122.892)" fill="#d8e7fc" opacity="0.3"/>
    <path id="Trazado_242" data-name="Trazado 242" d="M342.433,174.088H365.4c-.049,0,40.352-11.452,37.695-48.434a68.848,68.848,0,0,0-2.468-12.356c-2.527-7.766-7.425-14.15-12.212-20.351C380.269,82.4,372.022,71.6,367.132,58.665,363.1,48,361.476,36.2,356.617,26,350.64,13.457,339.766,4.145,327.6,1.154,316.288-1.628,304.4.909,293.6,5.671a121.9,121.9,0,0,0-24.9,15.223c-5.33,4.1-10.525,8.572-16.448,11.4-6.806,3.249-14.252,4.177-21.4,6.233-28.263,8.135-52.2,37.314-53.482,70.788,0,37.034,18.433,56.642,24.536,64.773H342.433Z" transform="translate(-75.763)" fill="#d8e7fc" opacity="0.3"/>
    <path id="Trazado_243" data-name="Trazado 243" d="M244.108,36.5H389.9v93.647a5.647,5.647,0,0,1-5.647,5.647h-134.5a5.647,5.647,0,0,1-5.646-5.647Z" transform="translate(-104.273 -15.593)" fill="#fff" stroke="#e9f2ff" stroke-width="0.616"/>
    <path id="Trazado_244" data-name="Trazado 244" d="M310,100.273a11.272,11.272,0,1,0-15.021,5.337A11.272,11.272,0,0,0,310,100.273Z" transform="translate(-123.256 -35.948)" fill="rgba(255,255,255,0.5)"/>
    <path id="Trazado_245" data-name="Trazado 245" d="M315.118,115.578a8.492,8.492,0,0,1,5.159-10.846l2.232-.793C323.347,111.442,315.118,115.578,315.118,115.578Z" transform="translate(-134.395 -44.398)" fill="#d8e7fc"/>
    <path id="Trazado_246" data-name="Trazado 246" d="M307.685,88.543,288.527,95.35a.644.644,0,0,1-.848-.308l-.237-.667c-1.355-3.813,3.444-8.426,7.962-10.031,4.493-1.6,11.207-.9,12.506,2.757l.237.667A.643.643,0,0,1,307.685,88.543Z" transform="translate(-122.684 -35.683)" fill="#fbf7fd"/>
    <path id="Trazado_247" data-name="Trazado 247" d="M285.792,93.736A12.859,12.859,0,1,1,298.128,107.1,12.874,12.874,0,0,1,285.792,93.736Zm3.325.132a9.532,9.532,0,1,0,9.9-9.144A9.543,9.543,0,0,0,289.117,93.868Z" transform="translate(-122.074 -34.766)" fill="#23262a"/>
    <path id="Trazado_248" data-name="Trazado 248" d="M336.084,136.729a2.1,2.1,0,0,0,.119-2.96l-14.591-15.8a1.314,1.314,0,0,0-1.857-.074l-1.147,1.059a1.314,1.314,0,0,0-.073,1.857l14.591,15.8a2.094,2.094,0,0,0,2.959.118Z" transform="translate(-135.916 -50.209)" fill="#23262a"/>
    <path id="Trazado_249" data-name="Trazado 249" d="M303.708,105.7a.075.075,0,0,1-.02,0,7.667,7.667,0,1,1,5.385-11.548.107.107,0,1,1-.183.11,7.454,7.454,0,1,0-5.235,11.228.107.107,0,0,1,.122.089.105.105,0,0,1-.069.116Z" transform="translate(-125.946 -38.64)" fill="#23262a"/>
    <path id="Trazado_250" data-name="Trazado 250" d="M316.409,109.649a.107.107,0,0,1-.1-.184,7.5,7.5,0,0,0,2.809-6,.1.1,0,0,1,.1-.108.106.106,0,0,1,.109.1,7.711,7.711,0,0,1-2.889,6.17.1.1,0,0,1-.031.017Z" transform="translate(-135.096 -44.15)" fill="#23262a"/>
    <path id="Trazado_251" data-name="Trazado 251" d="M243.52,245.5l7.863,2.212s12.364-36.993,12.364-36.509-.149,36.509-.149,36.509l9.31-1.117,2.358-45.491-22.572,4.153L243.519,245.5Z" transform="translate(-104.021 -85.905)" fill="#e00000"/>
    <path id="Trazado_252" data-name="Trazado 252" d="M281.943,281.683v3.434h3.729l.521-3.948Z" transform="translate(-120.434 -120.104)" fill="#f6c4aa"/>
    <path id="Trazado_253" data-name="Trazado 253" d="M281.943,288.062v4.692H292.3s0-1.415-3.575-2.681c-3.088-1.093-3.054-2.011-3.054-2.011Z" transform="translate(-120.434 -123.048)" fill="#fff"/>
    <path id="Trazado_254" data-name="Trazado 254" d="M285.613,290.873a1.024,1.024,0,1,0-1.449,0A1.025,1.025,0,0,0,285.613,290.873Z" transform="translate(-121.255 -123.502)" fill="#d8e7fc"/>
    <path id="Trazado_255" data-name="Trazado 255" d="M292.3,296.252H281.943v1.167H292.3Z" transform="translate(-120.434 -126.547)" fill="#23262a"/>
    <path id="Trazado_256" data-name="Trazado 256" d="M288.373,286.84a.106.106,0,0,1-.082-.038.107.107,0,0,1-.012-.119c.035-.066.87-1.615,1.594-1.723a.518.518,0,0,1,.462.159.436.436,0,0,1,.138.426c-.155.647-1.872,1.225-2.067,1.289a.092.092,0,0,1-.033.005Zm1.584-1.673a.329.329,0,0,0-.052,0c-.432.065-.994.863-1.3,1.366.176-.066.42-.163.666-.28.8-.375.964-.638.993-.762a.227.227,0,0,0-.082-.227.311.311,0,0,0-.227-.1Z" transform="translate(-123.135 -121.72)" fill="#23262a"/>
    <path id="Trazado_257" data-name="Trazado 257" d="M290.275,289.305c-.675,0-1.838-1.113-1.976-1.248a.107.107,0,0,1,.075-.183h0c.074,0,1.835.021,2.266.613a.516.516,0,0,1,.073.483.438.438,0,0,1-.314.321.512.512,0,0,1-.124.015Zm-1.619-1.208c.141.126.339.3.556.461.7.53,1.013.557,1.135.526a.225.225,0,0,0,.163-.178.309.309,0,0,0-.042-.294C290.211,288.26,289.242,288.132,288.656,288.1Z" transform="translate(-123.136 -122.968)" fill="#23262a"/>
    <path id="Trazado_258" data-name="Trazado 258" d="M283.637,294.724a.107.107,0,0,1-.1-.08,3.276,3.276,0,0,0-1.713-2.015.106.106,0,0,1,.085-.2,3.443,3.443,0,0,1,1.834,2.157.107.107,0,0,1-.076.13.112.112,0,0,1-.027,0Z" transform="translate(-120.355 -124.912)" fill="#23262a"/>
    <path id="Trazado_259" data-name="Trazado 259" d="M294.792,294.441a.106.106,0,0,1-.107-.107v-2.466a.107.107,0,0,1,.213,0v2.466A.106.106,0,0,1,294.792,294.441Z" transform="translate(-125.877 -124.629)" fill="#23262a"/>
    <path id="Trazado_260" data-name="Trazado 260" d="M250.8,280.766l-1.024,3.691h-3.729l.58-4.853Z" transform="translate(-105.103 -119.436)" fill="#f6c4aa"/>
    <path id="Trazado_261" data-name="Trazado 261" d="M244.837,288.076v4.693H234.479s0-1.415,3.575-2.681c3.087-1.094,3.054-2.011,3.054-2.011Z" transform="translate(-100.16 -123.054)" fill="#fff"/>
    <path id="Trazado_262" data-name="Trazado 262" d="M248.314,291.165a1.024,1.024,0,1,0-1.232-.762A1.024,1.024,0,0,0,248.314,291.165Z" transform="translate(-105.531 -123.51)" fill="#d8e7fc"/>
    <path id="Trazado_263" data-name="Trazado 263" d="M234.479,297.433h10.358v-1.167H234.479Z" transform="translate(-100.16 -126.553)" fill="#23262a"/>
    <path id="Trazado_264" data-name="Trazado 264" d="M244.476,286.856a.108.108,0,0,1-.033,0c-.2-.064-1.913-.642-2.067-1.289a.436.436,0,0,1,.138-.426.517.517,0,0,1,.462-.159c.725.108,1.559,1.658,1.594,1.723a.107.107,0,0,1-.013.119.106.106,0,0,1-.081.038Zm-1.585-1.673a.31.31,0,0,0-.227.1.226.226,0,0,0-.082.227c.029.123.2.386.993.761.246.117.489.213.666.28-.3-.5-.865-1.3-1.3-1.366A.335.335,0,0,0,242.891,285.182Z" transform="translate(-103.528 -121.727)" fill="#23262a"/>
    <path id="Trazado_265" data-name="Trazado 265" d="M242.383,289.32a.487.487,0,0,1-.124-.015.438.438,0,0,1-.314-.32.519.519,0,0,1,.073-.483c.432-.592,2.191-.612,2.266-.613h0a.106.106,0,0,1,.1.066.1.1,0,0,1-.024.116c-.139.135-1.3,1.248-1.976,1.248ZM244,288.112c-.586.034-1.554.162-1.812.516a.306.306,0,0,0-.042.294.226.226,0,0,0,.163.178c.123.03.433,0,1.135-.526.218-.164.416-.335.556-.46Z" transform="translate(-103.336 -122.974)" fill="#23262a"/>
    <path id="Trazado_266" data-name="Trazado 266" d="M249.386,294.74a.145.145,0,0,1-.027,0,.107.107,0,0,1-.076-.13,3.446,3.446,0,0,1,1.834-2.157.106.106,0,1,1,.085.2,3.287,3.287,0,0,0-1.713,2.015.106.106,0,0,1-.1.08Z" transform="translate(-106.482 -124.918)" fill="#23262a"/>
    <path id="Trazado_267" data-name="Trazado 267" d="M239.553,294.457a.106.106,0,0,1-.107-.107v-2.465a.107.107,0,1,1,.213,0v2.465A.107.107,0,0,1,239.553,294.457Z" transform="translate(-102.281 -124.635)" fill="#23262a"/>
    <path id="Trazado_268" data-name="Trazado 268" d="M273.567,218.736s-4.692,1.2-5.288,3.662-1.769,17.014-1.769,17.014Z" transform="translate(-113.842 -93.435)" fill="#ba0000"/>
    <path id="Trazado_269" data-name="Trazado 269" d="M257.03,185.307l22.572-4.153s4.568-.1,3.227-6.577-4.618-20.182-4.618-20.182l-13.3,1.814a9.105,9.105,0,0,0-7.682,7.156l-3.175,15.163a5.092,5.092,0,0,0,2.973,6.779Z" transform="translate(-108.357 -65.952)" fill="#ffe5ab"/>
    <path id="Trazado_270" data-name="Trazado 270" d="M275.758,151.461l-.632,3.351,5.019-.684-.588-2.667Z" transform="translate(-117.522 -64.698)" fill="#f6c4aa"/>
    <path id="Trazado_271" data-name="Trazado 271" d="M281.518,142.2a4.451,4.451,0,1,0-5.107,3.68A4.451,4.451,0,0,0,281.518,142.2Z" transform="translate(-116.475 -58.538)" fill="#f6c4aa"/>
    <path id="Trazado_272" data-name="Trazado 272" d="M288.494,147.909l11.545-2.16,6.331-8.715,5.14,2.979-3.722,8.3a11.38,11.38,0,0,1-7.812,6.429l-9.363,2.173-2.118-9.005Z" transform="translate(-123.233 -58.535)" fill="#ffe5ab"/>
    <path id="Trazado_273" data-name="Trazado 273" d="M255.786,170.052l-4.536,6.238a5.055,5.055,0,0,0,.584,6.615l1.049,1.009Z" transform="translate(-106.911 -72.639)" fill="#ffcc57"/>
    <path id="Trazado_274" data-name="Trazado 274" d="M299.891,167.346s-1.067-3.078,1.342-3.028c2.681.055,8.189-.411,8.189-.411a11.66,11.66,0,0,1-3.8,2.072c-1.875.473-5.733,1.368-5.733,1.368Z" transform="translate(-128.001 -70.014)" fill="#ffcc57"/>
    <path id="Trazado_275" data-name="Trazado 275" d="M268.788,137.325a2.268,2.268,0,1,0-2.268-2.268A2.268,2.268,0,0,0,268.788,137.325Z" transform="translate(-113.846 -56.722)" fill="#23262a"/>
    <path id="Trazado_276" data-name="Trazado 276" d="M275.386,145.319a4.451,4.451,0,1,0-4.452-4.451A4.451,4.451,0,0,0,275.386,145.319Z" transform="translate(-115.732 -58.272)" fill="#23262a"/>
    <path id="Trazado_277" data-name="Trazado 277" d="M284.307,146.262a1.214,1.214,0,1,0-1.717,0A1.213,1.213,0,0,0,284.307,146.262Z" transform="translate(-120.559 -61.592)" fill="#f6c4aa"/>
    <path id="Trazado_278" data-name="Trazado 278" d="M287.742,143.47a.628.628,0,1,0-.628-.628A.628.628,0,0,0,287.742,143.47Z" transform="translate(-122.643 -60.748)" fill="#f6c4aa"/>
    <path id="Trazado_279" data-name="Trazado 279" d="M284.66,146.127a.108.108,0,0,1-.078-.034l-.851-.894a.106.106,0,1,1,.154-.147l.851.894a.106.106,0,0,1,0,.15.1.1,0,0,1-.074.029Z" transform="translate(-121.185 -61.947)" fill="#23262a"/>
    <path id="Trazado_280" data-name="Trazado 280" d="M283.474,146.237a.107.107,0,0,1-.036-.207l.616-.224a.107.107,0,1,1,.072.2l-.616.224A.114.114,0,0,1,283.474,146.237Z" transform="translate(-121.043 -62.28)" fill="#23262a"/>
    <path id="Trazado_281" data-name="Trazado 281" d="M320.925,134.62l3.936-4.191,1.688,3.17-.342.615-1.723,2.47Z" transform="translate(-137.086 -55.714)" fill="#f6c4aa"/>
    <path id="Trazado_282" data-name="Trazado 282" d="M330.062,136.646l.39-.684-.221,1.09Z" transform="translate(-140.989 -58.077)" fill="#f2a680"/>
    <path id="Trazado_283" data-name="Trazado 283" d="M281.785,152.14a10.543,10.543,0,0,0-1.3.249c-.807.2-.17,1.555,1.805,2.029Z" transform="translate(-119.665 -64.988)" fill="#f2a680"/>
    <path id="Trazado_284" data-name="Trazado 284" d="M290.983,274.255s.749-8.092,2.653-9.019l-.454,8.755Z" transform="translate(-124.296 -113.298)" fill="#ba0000"/>
    <path id="Trazado_285" data-name="Trazado 285" d="M247.064,279.605l3.946,1.977.226-.816Z" transform="translate(-105.536 -119.436)" fill="#f2a680"/>
    <path id="Trazado_286" data-name="Trazado 286" d="M281.943,281.683v.786l4.25-1.3Z" transform="translate(-120.434 -120.104)" fill="#f2a680"/>
    <path id="Trazado_287" data-name="Trazado 287" d="M445.811,147.48l2.938,1.607-2.938,1.606-1.607,2.938-1.607-2.938-2.937-1.606,2.937-1.607,1.607-2.938Z" transform="translate(-187.805 -61.742)" fill="#fff"/>
    <path id="Trazado_288" data-name="Trazado 288" d="M443.872,153.744a.442.442,0,0,1-.39-.231l-1.544-2.824-2.824-1.544a.445.445,0,0,1,0-.78l2.824-1.544L443.483,144a.444.444,0,0,1,.779,0l1.544,2.824,2.824,1.544a.445.445,0,0,1,0,.78l-2.824,1.544-1.544,2.824A.444.444,0,0,1,443.872,153.744Zm-3.617-4.988,2.224,1.217a.445.445,0,0,1,.177.176l1.217,2.225,1.217-2.225a.441.441,0,0,1,.177-.176l2.224-1.217-2.224-1.217a.446.446,0,0,1-.177-.177l-1.217-2.225-1.217,2.225a.45.45,0,0,1-.177.177Z" transform="translate(-187.473 -61.411)" fill="#fff"/>
    <path id="Trazado_289" data-name="Trazado 289" d="M360.226,120.418l3.648-1.555a3.982,3.982,0,0,1-1.615-2.93c0-5.861,11.6-6.638,11.6-15.668,0-5.143-4.425-9.269-11.72-9.269a15.878,15.878,0,0,0-12.977,6.1l2.99,3.229a11.127,11.127,0,0,1,9.508-4.9c4.724,0,7.057,2.571,7.057,5.562,0,6.338-10.824,7-10.824,14.591A6.183,6.183,0,0,0,360.226,120.418Zm1.256,11.661a3.289,3.289,0,1,0-3.289-3.289A3.318,3.318,0,0,0,361.482,132.079Z" transform="translate(-149.148 -38.87)" fill="#f08080"/>
    <path id="Trazado_290" data-name="Trazado 290" d="M247.406,17.3H382.894a5.035,5.035,0,0,1,5.15,4.907v2.454H242.256V22.211A5.035,5.035,0,0,1,247.406,17.3Z" transform="translate(-103.482 -7.392)" fill="#d8e7fc" opacity="0.7"/>
    <path id="Trazado_291" data-name="Trazado 291" d="M488.268,23.538A1.314,1.314,0,0,0,487.242,22a1.293,1.293,0,0,0-1.511,1.045,1.314,1.314,0,0,0,1.026,1.538A1.293,1.293,0,0,0,488.268,23.538Z" transform="translate(-207.475 -9.388)" fill="#8ed68c"/>
    <path id="Trazado_292" data-name="Trazado 292" d="M480.227,23.537A1.314,1.314,0,0,0,479.2,22a1.293,1.293,0,0,0-1.511,1.045,1.314,1.314,0,0,0,1.026,1.538A1.293,1.293,0,0,0,480.227,23.537Z" transform="translate(-204.04 -9.387)" fill="#ffbf2d"/>
    <path id="Trazado_293" data-name="Trazado 293" d="M472.186,23.537A1.313,1.313,0,0,0,471.16,22a1.292,1.292,0,0,0-1.51,1.045,1.313,1.313,0,0,0,1.026,1.538A1.292,1.292,0,0,0,472.186,23.537Z" transform="translate(-200.605 -9.387)" fill="#f08080"/>
    <g id="Grupo_546" data-name="Grupo 546" transform="translate(247.811 57.27)">
      <rect id="Rectángulo_587" data-name="Rectángulo 587" width="72.791" height="19.552" rx="6" fill="#d8e7fc"/>
      <path id="Trazado_294" data-name="Trazado 294" d="M447.222,109.137H443.6a1.357,1.357,0,0,0-1.358,1.358v7.244a.454.454,0,0,0,.679.394l2.49-1.44,2.49,1.44a.453.453,0,0,0,.679-.394V110.5a1.357,1.357,0,0,0-1.358-1.358Z" transform="translate(-436.718 -103.889)" fill="#fff"/>
    </g>
    <path id="Trazado_295" data-name="Trazado 295" d="M546.521,54.624l1.277.7-1.277.7-.7,1.277-.7-1.277-1.277-.7,1.277-.7.7-1.277Z" transform="translate(-232.309 -22.788)" fill="#fad5d5"/>
    <path id="Trazado_296" data-name="Trazado 296" d="M545.68,57.347a.193.193,0,0,1-.17-.1l-.671-1.227-1.227-.671a.193.193,0,0,1,0-.339l1.227-.671.671-1.227a.193.193,0,0,1,.339,0l.671,1.227,1.228.671a.194.194,0,0,1,0,.339l-1.228.671-.671,1.227A.194.194,0,0,1,545.68,57.347Zm-1.572-2.168.967.529a.2.2,0,0,1,.077.077l.529.967.529-.967a.192.192,0,0,1,.077-.077l.967-.529-.967-.529a.192.192,0,0,1-.077-.077l-.529-.967-.529.967a.2.2,0,0,1-.077.077Z" transform="translate(-232.165 -22.644)" fill="#fad5d5"/>
    <path id="Trazado_297" data-name="Trazado 297" d="M523.81,45.973l1.277.7-1.277.7-.7,1.277-.7-1.277-1.277-.7,1.277-.7.7-1.277Z" transform="translate(-222.608 -19.092)" fill="#fad5d5"/>
    <path id="Trazado_298" data-name="Trazado 298" d="M522.969,48.7a.193.193,0,0,1-.17-.1l-.671-1.227L520.9,46.7a.194.194,0,0,1,0-.339l1.227-.671.671-1.227a.193.193,0,0,1,.339,0l.671,1.227,1.228.671a.194.194,0,0,1,0,.339l-1.228.671-.671,1.227A.194.194,0,0,1,522.969,48.7ZM521.4,46.527l.967.529a.2.2,0,0,1,.077.077l.529.967.529-.967a.192.192,0,0,1,.077-.077l.967-.529L523.575,46a.192.192,0,0,1-.077-.077l-.529-.967-.529.967a.2.2,0,0,1-.077.077Z" transform="translate(-222.465 -18.948)" fill="#fad5d5"/>
    <path id="Trazado_299" data-name="Trazado 299" d="M183.4,246.459a1.042,1.042,0,0,1-.214-.023,1.019,1.019,0,1,1,.767-.142,1.01,1.01,0,0,1-.553.165Zm0-1.826a.808.808,0,1,0,.169.018A.8.8,0,0,0,183.395,244.633Z" transform="translate(-77.904 -104.406)" fill="#23262a"/>
    <path id="Trazado_300" data-name="Trazado 300" d="M159.006,222.969c-.2,0-.316-.005-.32-.005a.107.107,0,1,1,.01-.213c.05,0,5.074.2,7.328-2.331a4.178,4.178,0,0,0,.938-1.765,3.454,3.454,0,0,1-2.449-1.958,1.933,1.933,0,0,1,.071-2.161,1.161,1.161,0,0,1,1.222-.349,2.374,2.374,0,0,1,1.426,2.071,6.145,6.145,0,0,1-.012,2.228,3.689,3.689,0,0,0,.959.025,3.788,3.788,0,0,0,2.2-1.007,4.948,4.948,0,0,0,1.419-2.672.107.107,0,1,1,.209.044,5.162,5.162,0,0,1-1.483,2.784,4,4,0,0,1-2.327,1.063,3.943,3.943,0,0,1-1.028-.028,4.4,4.4,0,0,1-.99,1.867,7.691,7.691,0,0,1-4.636,2.192,15.631,15.631,0,0,1-2.541.215Zm6.452-8.619a.935.935,0,0,0-.713.325,1.836,1.836,0,0,0-.037,1.935,3.244,3.244,0,0,0,2.3,1.837,5.918,5.918,0,0,0,.012-2.154,2.175,2.175,0,0,0-1.275-1.9,1.047,1.047,0,0,0-.29-.041Z" transform="translate(-67.74 -91.47)" fill="#23262a"/>
    <path id="Trazado_301" data-name="Trazado 301" d="M527.347,71.084l2.347,1.284-2.347,1.284L526.063,76l-1.284-2.348-2.347-1.284,2.347-1.284,1.284-2.347Z" transform="translate(-223.161 -29.362)" fill="#e00000"/>
    <path id="Trazado_302" data-name="Trazado 302" d="M525.8,76.091a.355.355,0,0,1-.312-.185l-1.234-2.256-2.256-1.234a.356.356,0,0,1,0-.624l2.256-1.234,1.234-2.256a.356.356,0,0,1,.624,0l1.234,2.256,2.256,1.234a.356.356,0,0,1,0,.624l-2.256,1.234-1.234,2.256A.357.357,0,0,1,525.8,76.091ZM522.905,72.1l1.778.972a.357.357,0,0,1,.142.141L525.8,75l.972-1.778a.357.357,0,0,1,.142-.141l1.778-.972-1.778-.973a.357.357,0,0,1-.142-.141l-.972-1.778-.973,1.778a.357.357,0,0,1-.142.141Z" transform="translate(-222.896 -29.097)" fill="#e00000"/>
    <path id="Trazado_303" data-name="Trazado 303" d="M344.141,231.825l1.641.9-1.641.9-.9,1.642-.9-1.642-1.642-.9,1.642-.9.9-1.642Z" transform="translate(-145.534 -98.325)" fill="#fff"/>
    <path id="Trazado_304" data-name="Trazado 304" d="M343.058,235.324a.249.249,0,0,1-.218-.129l-.863-1.578-1.578-.863a.249.249,0,0,1,0-.436l1.578-.863.863-1.578a.249.249,0,0,1,.436,0l.863,1.578,1.578.863a.249.249,0,0,1,0,.436l-1.578.863-.863,1.578A.249.249,0,0,1,343.058,235.324Zm-2.022-2.788,1.244.68a.252.252,0,0,1,.1.1l.68,1.244.681-1.244a.245.245,0,0,1,.1-.1l1.244-.68-1.244-.68a.247.247,0,0,1-.1-.1l-.681-1.244-.68,1.244a.255.255,0,0,1-.1.1Z" transform="translate(-145.349 -98.139)" fill="#fff"/>
    <path id="Trazado_305" data-name="Trazado 305" d="M198.641,18.126l2.347,1.284-2.347,1.284-1.284,2.348-1.284-2.348-2.348-1.284,2.348-1.284,1.284-2.348Z" transform="translate(-82.751 -6.74)" fill="#e8f1fd"/>
    <path id="Trazado_306" data-name="Trazado 306" d="M197.091,23.131a.356.356,0,0,1-.312-.185l-1.234-2.256-2.256-1.234a.355.355,0,0,1,0-.624l2.256-1.234,1.234-2.256a.356.356,0,0,1,.624,0l1.234,2.256,2.256,1.234a.355.355,0,0,1,0,.624l-2.256,1.234L197.4,22.946A.356.356,0,0,1,197.091,23.131ZM194.2,19.144l1.778.973a.355.355,0,0,1,.141.141l.973,1.778.973-1.778a.355.355,0,0,1,.141-.141l1.778-.973-1.778-.972a.355.355,0,0,1-.141-.141l-.973-1.778-.973,1.778a.356.356,0,0,1-.141.141Z" transform="translate(-82.486 -6.475)" fill="#e8f1fd"/>
    <path id="Trazado_307" data-name="Trazado 307" d="M183.778,9.789a.248.248,0,0,0,.436,0l.863-1.578,1.578-.863a.249.249,0,0,0,0-.436l-1.578-.863-.863-1.578a.248.248,0,0,0-.436,0l-.863,1.578-1.578.863a.249.249,0,0,0,0,.436l1.578.863Z" transform="translate(-77.405 -1.855)" fill="rgba(232,241,253,0.75)"/>
    <path id="Trazado_308" data-name="Trazado 308" d="M431.126,234.932s-1.226-8.252-1.781-10.067c-.718-2.345-1.069-5.837.9-7.892s2.272-6.892,2.272-7.633.74-11.839,8.879-10.195c0,0,3.371.821,1.726,6.742,0,0-1.727,3.536.452,5.755s4.069,7.317,0,12.25-2.911,6.739-2.26,8.633c2.964,8.634-3.344,16.563-4.028,18.679s-1.507,5.588-.82,7.586l-2.394.045-2.949-23.9Z" transform="translate(-183.156 -84.996)" fill="#f5c6c6"/>
    <path id="Trazado_309" data-name="Trazado 309" d="M445.369,282.349s0-1.946,3.993-3.788a6.673,6.673,0,0,0,3.993-4.812c1.024-3.891,3.891-2.867,5.734-1.741s6.03,0,6.036-5.837c0,0-1.245-3.072,1.428-4.71s3.7-7.49-2.037-7.431-11.136,2.89-16.69,11.118c-7.718,11.433-4.714,17.2-4.714,17.2h2.256Z" transform="translate(-189.034 -108.511)" fill="#fad5d5"/>
    <path id="Trazado_310" data-name="Trazado 310" d="M420.035,269.554s-4.193-2.384-3.371-7.152-3.453-5.838-4.439-6-7.4-2.8-6.412-12.415c0,0,.328-6.166-.822-8.386s-4.028-8.878,0-10.934,6.824,1.644,8.3,5.426c0,0,1.151,4.357,2.137,5.427s8.139,7.317,7.564,20.307l-1.4,13.73h-1.56Z" transform="translate(-172.109 -95.716)" fill="#fad5d5"/>
    <path id="Trazado_311" data-name="Trazado 311" d="M425.1,274.936h0a.137.137,0,0,1-.133-.142c0-.122.386-12.286-1.662-18.234a26.017,26.017,0,0,0-4.112-7.155c-2.366-3.231-4.812-6.573-5.673-12.894a.137.137,0,1,1,.271-.037c.851,6.251,3.277,9.564,5.622,12.769a26.225,26.225,0,0,1,4.151,7.229c2.064,6,1.681,18.21,1.677,18.333A.137.137,0,0,1,425.1,274.936Z" transform="translate(-176.636 -100.961)" fill="#ea5656"/>
    <path id="Trazado_312" data-name="Trazado 312" d="M439.372,263.112a.138.138,0,0,1-.136-.12c-.379-2.95.179-7.753.719-12.4a68.376,68.376,0,0,0,.765-11.033,37.648,37.648,0,0,1,.5-7.929,40.623,40.623,0,0,0,.435-10.391,26.674,26.674,0,0,1,1.53-12.484.138.138,0,0,1,.252.111,26.391,26.391,0,0,0-1.508,12.344,40.778,40.778,0,0,1-.435,10.458,37.4,37.4,0,0,0-.5,7.872,68.524,68.524,0,0,1-.766,11.087c-.538,4.629-1.095,9.415-.719,12.332a.136.136,0,0,1-.119.154h-.018Z" transform="translate(-187.57 -89.137)" fill="#ea5656"/>
    <path id="Trazado_313" data-name="Trazado 313" d="M445.084,285.47a.138.138,0,0,1-.137-.136,19.645,19.645,0,0,1,.691-4.83,13.15,13.15,0,0,1,5.216-7.754,22.868,22.868,0,0,0,5.446-5.342c2.26-2.805,4.393-5.456,8.968-6.392a.137.137,0,1,1,.055.269c-4.478.916-6.582,3.529-8.81,6.295a23.115,23.115,0,0,1-5.511,5.4,12.886,12.886,0,0,0-5.1,7.6,19.387,19.387,0,0,0-.681,4.755.136.136,0,0,1-.135.139h0Z" transform="translate(-190.063 -111.494)" fill="#ea5656"/>
    <path id="Trazado_314" data-name="Trazado 314" d="M135.861,251.3s.678-4.562.985-5.565c.4-1.3.591-3.227-.5-4.363s-1.256-3.81-1.256-4.22-.409-6.545-4.909-5.636c0,0-1.863.455-.954,3.727,0,0,.955,1.955-.25,3.182a4.982,4.982,0,0,0,0,6.772c2.25,2.727,1.609,3.726,1.25,4.772-1.639,4.773,1.848,9.156,2.227,10.326s.833,3.089.453,4.194l1.323.025,1.63-13.214Z" transform="translate(-54.528 -98.855)" fill="#f5c6c6"/>
    <path id="Trazado_315" data-name="Trazado 315" d="M124.291,277.512s0-1.076-2.207-2.094a3.688,3.688,0,0,1-2.208-2.66c-.566-2.151-2.151-1.584-3.17-.962s-3.334,0-3.337-3.227a2.142,2.142,0,0,0-.789-2.6c-1.477-.906-2.043-4.141,1.126-4.108s6.156,1.6,9.227,6.146c4.267,6.321,2.606,9.509,2.606,9.509Z" transform="translate(-47.583 -111.854)" fill="#fad5d5"/>
    <path id="Trazado_316" data-name="Trazado 316" d="M140.79,270.44a3.938,3.938,0,0,0,1.863-3.954,2.767,2.767,0,0,1,2.454-3.317c.546-.091,4.091-1.546,3.545-6.863,0,0-.182-3.409.454-4.636s2.227-4.908,0-6.045-3.773.909-4.591,3a11.616,11.616,0,0,1-1.182,3,14.062,14.062,0,0,0-4.181,11.226l.774,7.59h.863Z" transform="translate(-59.433 -104.782)" fill="#fad5d5"/>
    <path id="Trazado_317" data-name="Trazado 317" d="M141.437,273.415h0a.076.076,0,0,0,.073-.078c0-.067-.213-6.792.919-10.08A14.372,14.372,0,0,1,144.7,259.3a14.041,14.041,0,0,0,3.136-7.128.076.076,0,0,0-.151-.021,13.9,13.9,0,0,1-3.108,7.059,14.5,14.5,0,0,0-2.294,4c-1.141,3.314-.93,10.067-.927,10.135A.075.075,0,0,0,141.437,273.415Z" transform="translate(-60.376 -107.681)" fill="#ea5656"/>
    <path id="Trazado_318" data-name="Trazado 318" d="M137.685,266.879a.077.077,0,0,0,.076-.066,34.394,34.394,0,0,0-.4-6.854,37.847,37.847,0,0,1-.423-6.1,20.792,20.792,0,0,0-.275-4.383,22.44,22.44,0,0,1-.24-5.744,14.741,14.741,0,0,0-.846-6.9.076.076,0,1,0-.139.061,14.588,14.588,0,0,1,.834,6.823,22.542,22.542,0,0,0,.24,5.782,20.637,20.637,0,0,1,.274,4.352,37.881,37.881,0,0,0,.423,6.129,34.286,34.286,0,0,1,.4,6.817.075.075,0,0,0,.066.085h.01Z" transform="translate(-57.851 -101.145)" fill="#ea5656"/>
    <path id="Trazado_319" data-name="Trazado 319" d="M126.788,279.237a.076.076,0,0,0,.076-.075,10.858,10.858,0,0,0-.382-2.67,7.27,7.27,0,0,0-2.883-4.287,12.634,12.634,0,0,1-3.011-2.953c-1.249-1.551-2.429-3.016-4.958-3.534a.076.076,0,0,0-.03.149c2.476.506,3.639,1.951,4.87,3.48a12.787,12.787,0,0,0,3.047,2.985,7.125,7.125,0,0,1,2.819,4.2,10.683,10.683,0,0,1,.376,2.628.076.076,0,0,0,.075.077h0Z" transform="translate(-49.353 -113.503)" fill="#ea5656"/>
    <rect id="Rectángulo_588" data-name="Rectángulo 588" width="29.645" height="9.176" rx="2.464" transform="translate(93.941 28.498)" fill="rgba(216,231,252,0.6)"/>
    <rect id="Rectángulo_589" data-name="Rectángulo 589" width="29.645" height="9.176" rx="2.464" transform="translate(126.409 28.498)" fill="rgba(216,231,252,0.6)"/>
    <rect id="Rectángulo_590" data-name="Rectángulo 590" width="28.94" height="9.176" rx="2.464" transform="translate(158.879 28.498)" fill="rgba(216,231,252,0.6)"/>
    <rect id="Rectángulo_591" data-name="Rectángulo 591" width="29.645" height="9.176" rx="2.464" transform="translate(190.642 28.498)" fill="rgba(216,231,252,0.6)"/>
    <rect id="Rectángulo_592" data-name="Rectángulo 592" width="29.645" height="9.176" rx="2.464" transform="translate(223.11 28.498)" fill="#d8e7fc"/>
  </g>
</svg>
