<svg id="Grupo_509" data-name="Grupo 509" xmlns="http://www.w3.org/2000/svg" width="82" height="39" viewBox="0 0 82 39">
  <g id="my-ads" transform="translate(34)">
    <path id="Trazado_215" data-name="Trazado 215" d="M8.083,6.009a.259.259,0,0,1,.259-.259h4.731a.259.259,0,0,1,.259.259v.648a.259.259,0,0,1-.259.259H8.343a.259.259,0,0,1-.259-.259ZM14.694,2.25H3.806A1.56,1.56,0,0,0,2.25,3.806V14.694A1.56,1.56,0,0,0,3.806,16.25H14.694a1.56,1.56,0,0,0,1.556-1.556V3.806A1.56,1.56,0,0,0,14.694,2.25Zm0,12.185a.259.259,0,0,1-.259.259H4.065a.259.259,0,0,1-.259-.259V4.065a.259.259,0,0,1,.259-.259h10.37a.259.259,0,0,1,.259.259ZM6.917,6.657a.259.259,0,0,1-.259.259H5.62a.259.259,0,0,1-.259-.259V6.009A.259.259,0,0,1,5.62,5.75H6.657a.259.259,0,0,1,.259.259Z" transform="translate(-2.25 -2.25)"/>
    <path id="Trazado_216" data-name="Trazado 216" d="M12.833,8.438H8.167a.292.292,0,0,0-.292.292v.583a.292.292,0,0,0,.292.292h4.667a.292.292,0,0,0,.292-.292V8.729A.292.292,0,0,0,12.833,8.438Z" transform="translate(-2.042 -2.021)" />
    <path id="Trazado_217" data-name="Trazado 217" d="M5.542,9.6h.972a.292.292,0,0,0,.292-.292V8.729a.292.292,0,0,0-.292-.292H5.542a.292.292,0,0,0-.292.292v.583A.292.292,0,0,0,5.542,9.6Z" transform="translate(-2.139 -2.021)" />
    <path id="Trazado_218" data-name="Trazado 218" d="M12.833,11.25H8.166a.292.292,0,0,0-.292.292v.583a.292.292,0,0,0,.292.292h4.667a.292.292,0,0,0,.292-.292v-.583A.292.292,0,0,0,12.833,11.25Z" transform="translate(-2.042 -1.917)" />
    <path id="Trazado_219" data-name="Trazado 219" d="M5.541,12.417h.972a.292.292,0,0,0,.292-.292v-.583a.292.292,0,0,0-.292-.292H5.541a.292.292,0,0,0-.292.292v.583A.292.292,0,0,0,5.541,12.417Z" transform="translate(-2.139 -1.917)" />
  </g>
  <text id="Mis_Anuncios" data-name="Mis Anuncios" transform="translate(41 35)"><tspan x="-40" y="0">Mis Anuncios</tspan></text>
</svg>
