<svg xmlns="http://www.w3.org/2000/svg" width="36" height="39" viewBox="0 0 36 39">
  <g id="Grupo_510" data-name="Grupo 510" transform="translate(-0.305)">
    <g id="my-chats" transform="translate(11)">
      <path id="Trazado_220" data-name="Trazado 220" d="M4.759,2.781a7.606,7.606,0,0,1,4.865-.9,7.183,7.183,0,0,1,4.31,2.261,5.961,5.961,0,0,1,1.555,4.347,6.056,6.056,0,0,1-1.828,3.938l.173,2.13a.643.643,0,0,1-.867.654l-2.575-.965a6.906,6.906,0,0,1-4.467-.207A6.787,6.787,0,0,1,2.24,10.982a5.81,5.81,0,0,1-.479-4.558A6.436,6.436,0,0,1,4.759,2.781Zm4.678.374A6.32,6.32,0,0,0,5.4,3.9,5.151,5.151,0,0,0,2.99,6.805a4.523,4.523,0,0,0,.376,3.555A5.5,5.5,0,0,0,6.359,12.83a5.606,5.606,0,0,0,3.852.127.643.643,0,0,1,.426.009l1.832.687-.116-1.428a.644.644,0,0,1,.212-.531,4.806,4.806,0,0,0,1.64-3.281A4.676,4.676,0,0,0,12.977,5,5.9,5.9,0,0,0,9.437,3.155Z" transform="translate(-1.5 -1.8)" fill-rule="evenodd"/>
      <path id="Trazado_221" data-name="Trazado 221" d="M5.834,7.6a.643.643,0,0,1,.643-.643H11.1a.643.643,0,1,1,0,1.286H6.477A.643.643,0,0,1,5.834,7.6Z" transform="translate(-1.789 -2.144)"/>
      <path id="Trazado_222" data-name="Trazado 222" d="M5.834,10.209a.643.643,0,0,1,.643-.643H9.363a.643.643,0,0,1,0,1.286H6.477A.643.643,0,0,1,5.834,10.209Z" transform="translate(-1.789 -2.318)"/>
    </g>
    <text id="Chats" transform="translate(18.305 35)"><tspan x="-17" y="0">Chats</tspan></text>
  </g>
</svg>
