<svg xmlns="http://www.w3.org/2000/svg" xmlns:xlink="http://www.w3.org/1999/xlink" width="58" height="41" viewBox="0 0 58 41">
  <defs>
    <clipPath id="clip-path">
      <rect id="Rectángulo_577" data-name="Rectángulo 577" width="18" height="17.5" fill="#fff"/>
    </clipPath>
  </defs>
  <g id="Grupo_511" data-name="Grupo 511" transform="translate(1.352)">
    <g id="my-favorites" transform="translate(19)" clip-path="url(#clip-path)">
      <path id="Trazado_214" data-name="Trazado 214" d="M12.735,2.2A4.486,4.486,0,0,0,9.372,3.752,4.486,4.486,0,0,0,6.01,2.2,4.057,4.057,0,0,0,1.9,6.285c0,2.807,2.541,5.095,6.389,8.57l.346.31a1.1,1.1,0,0,0,1.473,0l.348-.315c3.848-3.468,6.389-5.755,6.389-8.563A4.057,4.057,0,0,0,12.735,2.2ZM9.447,13.748l-.075.074L9.3,13.748c-3.557-3.2-5.9-5.317-5.9-7.464a2.546,2.546,0,0,1,2.615-2.6A2.994,2.994,0,0,1,8.335,4.834a1.366,1.366,0,0,0,1.038.6,1.373,1.373,0,0,0,1.043-.609,2.982,2.982,0,0,1,2.318-1.144,2.546,2.546,0,0,1,2.615,2.6C15.35,8.431,13,10.547,9.447,13.748Z" transform="translate(-0.452 -0.037)"/>
    </g>
    <text id="Favoritos" transform="translate(27.648 37)"><tspan x="-28" y="0">Favoritos</tspan></text>
  </g>
</svg>
