<svg xmlns="http://www.w3.org/2000/svg" width="88" height="41" viewBox="0 0 88 41">
  <g id="Grupo_513" data-name="Grupo 513" transform="translate(0.844 0)">
    <path id="my-notifications" d="M6.644,3.076a5.724,5.724,0,0,1,9.772,4.048v4.914a1.219,1.219,0,0,0,.586.894,2.389,2.389,0,0,0,1.334.479h.546a.81.81,0,0,1,0,1.621h-5.2v.827a2.994,2.994,0,1,1-5.989,0v-.827H2.5a.81.81,0,1,1,0-1.621H3.594a1.374,1.374,0,0,0,1.373-1.374V7.124A5.724,5.724,0,0,1,6.644,3.076ZM6.255,13.411h8.981a2.431,2.431,0,0,1-.441-1.374V7.124a4.1,4.1,0,0,0-8.207,0v4.914A2.994,2.994,0,0,1,6.255,13.411Zm3.063,1.621v.827a1.373,1.373,0,0,0,2.747,0v-.827Z" transform="translate(32.309 -1.4)" fill-rule="evenodd"/>
    <text id="Notificaciones" transform="translate(43.156 37)"><tspan x="-43" y="0">Notificaciones</tspan></text>
  </g>
</svg>
