<svg xmlns="http://www.w3.org/2000/svg" width="47" height="31" viewBox="0 0 47 31">
  <g id="Group_469" data-name="Group 469" transform="translate(-912 -918)">
    <rect id="card_bg" width="47" height="31" rx="4" transform="translate(912 918)" fill="#f2f0ec"/>
    <g id="mastercard" transform="translate(917.688 920.985)">
      <g id="Group" transform="translate(0 0)" opacity="0">
        <rect id="Rectangle" width="37.412" height="24.741" fill="#fff"/>
      </g>
      <rect id="Rectangle-2" data-name="Rectangle" width="9.868" height="16.121" transform="translate(13.772 4.31)" fill="#f26122"/>
      <path id="Path" d="M12.727,10.254a10.225,10.225,0,0,1,3.866-8.06,10.254,10.254,0,1,0,0,16.121A10.225,10.225,0,0,1,12.727,10.254Z" transform="translate(2.108 2.116)" fill="#ea1d25"/>
      <path id="Shape" d="M.484.4H.416V0h.1L.638.28.754,0h.1V.4H.783V.1L.677.358H.6L.484.1V.4ZM.193.4H.136V.068H0V0H.338V.068H.193V.4Z" transform="translate(34.106 18.324)" fill="#f69e1e"/>
      <path id="Path-2" data-name="Path" d="M16.584,10.248A10.254,10.254,0,0,1,0,18.308,10.254,10.254,0,0,0,1.72,3.917,10.051,10.051,0,0,0,0,2.187a10.254,10.254,0,0,1,16.584,8.06Z" transform="translate(18.701 2.123)" fill="#f69e1e"/>
    </g>
  </g>
</svg>
