<svg xmlns="http://www.w3.org/2000/svg" width="18.76" height="18.198" viewBox="0 0 18.76 18.198">
  <g id="Group_16023" data-name="Group 16023" transform="translate(-947.119 -1162.401)">
    <path id="Union_3" data-name="Union 3" d="M-20693.07,13.91l-3.674-3.672a.633.633,0,0,1-.186-.447V8.108a2.116,2.116,0,0,1,2.113-2.114h.078a2.17,2.17,0,0,1,2.037,2.182V13.76a.217.217,0,0,1-.219.217A.2.2,0,0,1-20693.07,13.91Zm-3.918-10.955a2.181,2.181,0,0,1,1.943-1.943,2.183,2.183,0,0,1,2.395,2.389,2.2,2.2,0,0,1-1.947,1.948c-.074.007-.146.011-.219.011A2.184,2.184,0,0,1-20696.988,2.956Z" transform="translate(21658.52 1161.4)" fill="#15223f"/>
    <path id="Union_2" data-name="Union 2" d="M-20697,16.9V8.036a2.16,2.16,0,0,1,2.15-2.171,2.119,2.119,0,0,1,2.078,2.114v4.137l3.756-3.758a2.12,2.12,0,0,1,1.5-.618,2.12,2.12,0,0,1,1.5.618l7.105,7.106a2.1,2.1,0,0,1,.613,1.491,2.116,2.116,0,0,1-.613,1.5,2.1,2.1,0,0,1-1.5.618,2.1,2.1,0,0,1-1.5-.618l-5.609-5.61-5.605,5.61a2.1,2.1,0,0,1-1.5.618c-.043,0-.086,0-.129,0l-.1,0h-.035A2.161,2.161,0,0,1-20697,16.9Zm.043-14a2.121,2.121,0,0,1,1.885-1.886,2.118,2.118,0,0,1,2.322,2.317,2.123,2.123,0,0,1-1.891,1.886,2.18,2.18,0,0,1-.219.011A2.112,2.112,0,0,1-20696.959,2.9Z" transform="translate(21644.121 1161.531)" fill="red"/>
  </g>
</svg>
