<?xml version="1.0" encoding="utf-8"?>
<!-- Generator: Adobe Illustrator 27.9.0, SVG Export Plug-In . SVG Version: 6.00 Build 0)  -->
<svg version="1.1" id="Capa_1" xmlns="http://www.w3.org/2000/svg" xmlns:xlink="http://www.w3.org/1999/xlink" x="0px" y="0px"
	 viewBox="0 0 334 194" style="enable-background:new 0 0 334 194;" xml:space="preserve">
<g>
	<path d="M300.5,115h-0.2V70.5c0-0.7-0.2-1.3-0.6-1.8L277,36.4c-0.6-0.8-1.6-1.3-2.6-1.3h-43.1c0,0,0,0-0.1,0c0,0,0,0-0.1,0H218
		h-5.4H33.5c-1.8,0-3.2,1.4-3.2,3.2V137c0,1.8,1.4,3.2,3.2,3.2h16.8c1.5,10.6,10.7,18.8,21.7,18.8c11,0,20.2-8.2,21.7-18.8h115.9
		c1.5,10.6,10.7,18.8,21.7,18.8c11,0,20.2-8.2,21.7-18.8h47.5c1.8,0,3.2-1.4,3.2-3.2v-18.8C303.7,116.4,302.3,115,300.5,115z
		 M294,113.3l-49.2-21.8V60.2H286l8,11.3V113.3z M72,152.6c-8.6,0-15.6-7-15.6-15.6s7-15.6,15.6-15.6s15.6,7,15.6,15.6
		S80.6,152.6,72,152.6z M231.3,152.6c-8.6,0-15.6-7-15.6-15.6s7-15.6,15.6-15.6s15.6,7,15.6,15.6S239.9,152.6,231.3,152.6z
		 M297.3,133.8H253c-1.6-10.6-10.7-18.7-21.7-18.7c-11,0-20.2,8.2-21.7,18.8H93.7C92.1,123.2,83,115,72,115
		c-11,0-20.2,8.2-21.7,18.8H36.7V41.4h175.9h5.4h13.2c0,0,0,0,0.1,0c0,0,0,0,0.1,0h41.5l8.8,12.5h-40c-1.8,0-3.2,1.4-3.2,3.2v36.5
		c0,1.3,0.7,2.4,1.9,2.9l55.6,24.6c0,0,0,0,0,0c0.2,0.1,0.4,0.1,0.5,0.2c0,0,0.1,0,0.1,0c0.1,0,0.2,0,0.2,0c0.1,0,0.3,0,0.4,0
		c0,0,0,0,0,0h0.2V133.8z"/>
	<ellipse transform="matrix(0.7071 -0.7071 0.7071 0.7071 -75.956 91.0853)" cx="72" cy="137.2" rx="6.3" ry="6.3"/>
	<ellipse transform="matrix(0.7071 -0.7071 0.7071 0.7071 -29.2867 203.755)" cx="231.3" cy="137.2" rx="6.3" ry="6.3"/>
	<path d="M214.6,53.9H147c-1.8,0-3.2,1.4-3.2,3.2v34.4c0,1.8,1.4,3.2,3.2,3.2h67.7c1.8,0,3.2-1.4,3.2-3.2V57
		C217.8,55.3,216.4,53.9,214.6,53.9z M150.1,60.2h27.5v28h-27.5V60.2z M211.5,88.2H184v-28h27.5V88.2z"/>
	<path d="M50.7,94.6h67.7c1.8,0,3.2-1.4,3.2-3.2V57c0-1.8-1.4-3.2-3.2-3.2H50.7c-1.8,0-3.2,1.4-3.2,3.2v34.4
		C47.5,93.2,48.9,94.6,50.7,94.6z M115.2,88.2H87.7v-28h27.5V88.2z M53.8,60.2h27.5v28H53.8V60.2z"/>
	<path d="M214.6,101.6h-164c-1.8,0-3.2,1.4-3.2,3.2c0,1.8,1.4,3.2,3.2,3.2h164c1.8,0,3.2-1.4,3.2-3.2
		C217.8,103,216.4,101.6,214.6,101.6z"/>
	<path d="M244.5,101.6h-3.2c-1.8,0-3.2,1.4-3.2,3.2c0,1.8,1.4,3.2,3.2,3.2h3.2c1.8,0,3.2-1.4,3.2-3.2
		C247.6,103,246.2,101.6,244.5,101.6z"/>
</g>
</svg>
