<?xml version="1.0" encoding="utf-8"?>
<!-- Generator: Adobe Illustrator 27.9.0, SVG Export Plug-In . SVG Version: 6.00 Build 0)  -->
<svg version="1.1" id="Capa_1" xmlns="http://www.w3.org/2000/svg" xmlns:xlink="http://www.w3.org/1999/xlink" x="0px" y="0px"
	 viewBox="0 0 334 194" style="enable-background:new 0 0 334 194;" xml:space="preserve">
<g>
	<g>
		<path d="M186.1,137.7c-1.6,0-2.9-1.3-2.9-2.9V76.2c0-1.6,1.3-2.9,2.9-2.9c1.6,0,2.9,1.3,2.9,2.9v58.6
			C189.1,136.4,187.8,137.7,186.1,137.7z"/>
	</g>
	<g>
		<path d="M309.1,155.1h-27.4c-1.6,0-2.9-1.3-2.9-2.9c0-1.6,1.3-2.9,2.9-2.9h24.4v-11.5h-6.4c-1.6,0-2.9-1.3-2.9-2.9V98.5l-50-5.9
			c-1.5-0.2-2.6-1.4-2.6-2.9V72.2l-19.6-27.9h-35.5v23.2c0,1.6-1.3,2.9-2.9,2.9c-1.6,0-2.9-1.3-2.9-2.9V41.3c0-1.6,1.3-2.9,2.9-2.9
			h40c1,0,1.9,0.5,2.4,1.2l21,29.9c0.3,0.5,0.5,1.1,0.5,1.7v15.9l50,5.9c1.5,0.2,2.6,1.4,2.6,2.9v35.9h6.4c1.6,0,2.9,1.3,2.9,2.9
			v17.4C312,153.8,310.7,155.1,309.1,155.1z"/>
	</g>
	<g>
		<path d="M247.2,92.7h-43.5c-1.6,0-2.9-1.3-2.9-2.9V58.7c0-1.6,1.3-2.9,2.9-2.9h34.7c1.6,0,2.9,1.3,2.9,2.9s-1.3,2.9-2.9,2.9h-31.8
			v25.2h40.6c1.6,0,2.9,1.3,2.9,2.9S248.8,92.7,247.2,92.7z"/>
	</g>
	<g>
		<path d="M241.3,137.7h-55.2c-1.6,0-2.9-1.3-2.9-2.9c0-1.6,1.3-2.9,2.9-2.9h55.2c1.6,0,2.9,1.3,2.9,2.9
			C244.3,136.4,242.9,137.7,241.3,137.7z"/>
	</g>
	<g>
		<path d="M299.8,137.7h-22c-1.6,0-2.9-1.3-2.9-2.9c0-1.6,1.3-2.9,2.9-2.9h22c1.6,0,2.9,1.3,2.9,2.9
			C302.7,136.4,301.4,137.7,299.8,137.7z"/>
	</g>
	<g>
		<path d="M168.7,137.8h-28.6c-1.6,0-2.9-1.3-2.9-2.9s1.3-2.9,2.9-2.9h28.6c1.6,0,2.9,1.3,2.9,2.9S170.4,137.8,168.7,137.8z"/>
	</g>
	<g>
		<path d="M41.7,155.2H24.9c-1.6,0-2.9-1.3-2.9-2.9v-3.8c0-0.8,0.3-1.5,0.9-2.1l13.6-13.6c0.6-0.6,1.3-0.9,2.1-0.9h8.9
			c1.6,0,2.9,1.3,2.9,2.9s-1.3,2.9-2.9,2.9h-7.7l-11.5,11.5h13.6c1.6,0,2.9,1.3,2.9,2.9C44.7,153.9,43.3,155.2,41.7,155.2z"/>
	</g>
	<g>
		<path d="M96.9,155.2h-5.6c-1.6,0-2.9-1.3-2.9-2.9c0-1.6,1.3-2.9,2.9-2.9h5.6c1.6,0,2.9,1.3,2.9,2.9
			C99.8,153.9,98.5,155.2,96.9,155.2z"/>
	</g>
	<g>
		<path d="M104.6,137.8H84.3c-1.6,0-2.9-1.3-2.9-2.9s1.3-2.9,2.9-2.9h20.3c1.6,0,2.9,1.3,2.9,2.9S106.3,137.8,104.6,137.8z"/>
	</g>
	<g>
		<path d="M156,155.2h-11.7c-1.6,0-2.9-1.3-2.9-2.9c0-1.6,1.3-2.9,2.9-2.9H156c1.6,0,2.9,1.3,2.9,2.9
			C158.9,153.9,157.6,155.2,156,155.2z"/>
	</g>
	<g>
		<path d="M235.6,155.2h-29.5c-1.6,0-2.9-1.3-2.9-2.9c0-1.6,1.3-2.9,2.9-2.9h29.5c1.6,0,2.9,1.3,2.9,2.9
			C238.5,153.9,237.2,155.2,235.6,155.2z"/>
	</g>
	<g>
		<g>
			<path d="M259.3,174.4c-14,0-25.3-11.4-25.3-25.3s11.4-25.3,25.3-25.3c14,0,25.3,11.4,25.3,25.3S273.3,174.4,259.3,174.4z
				 M259.3,129.7c-10.7,0-19.4,8.7-19.4,19.4s8.7,19.4,19.4,19.4c10.7,0,19.4-8.7,19.4-19.4S270.1,129.7,259.3,129.7z"/>
		</g>
		<g>
			<circle cx="259.3" cy="149.4" r="7.5"/>
		</g>
	</g>
	<g>
		<g>
			<path d="M121.9,174.4c-14,0-25.3-11.4-25.3-25.3s11.4-25.3,25.3-25.3c14,0,25.3,11.4,25.3,25.3S135.8,174.4,121.9,174.4z
				 M121.9,129.7c-10.7,0-19.4,8.7-19.4,19.4s8.7,19.4,19.4,19.4c10.7,0,19.4-8.7,19.4-19.4S132.6,129.7,121.9,129.7z"/>
		</g>
		<g>
			<circle cx="121.9" cy="149.4" r="7.5"/>
		</g>
	</g>
	<g>
		<g>
			<path d="M66.3,174.4c-14,0-25.3-11.4-25.3-25.3s11.4-25.3,25.3-25.3s25.3,11.4,25.3,25.3S80.3,174.4,66.3,174.4z M66.3,129.7
				c-10.7,0-19.4,8.7-19.4,19.4s8.7,19.4,19.4,19.4s19.4-8.7,19.4-19.4S77,129.7,66.3,129.7z"/>
		</g>
		<g>
			<circle cx="66.3" cy="149.4" r="7.5"/>
		</g>
	</g>
	<g>
		<path d="M215.6,44.3c-1,0-1.9-0.5-2.5-1.4l-11.2-17.4H189l-0.1,15.9c0,1.6-1.3,2.9-2.9,2.9h-17.2c-1.6,0-2.9-1.3-2.9-2.9
			s1.3-2.9,2.9-2.9h14.3l0.1-15.9c0-1.6,1.3-2.9,2.9-2.9h17.4c1,0,1.9,0.5,2.5,1.4l12,18.8c0.9,1.4,0.5,3.2-0.9,4.1
			C216.6,44.1,216.1,44.3,215.6,44.3z"/>
	</g>
	<g>
		<path d="M176.2,97.1h-13c-1.6,0-2.9-1.3-2.9-2.9V54.6c0-1.6,1.3-2.9,2.9-2.9h13c1.6,0,2.9,1.3,2.9,2.9v39.5
			C179.1,95.8,177.8,97.1,176.2,97.1z M166.2,91.2h7.1V57.6h-7.1V91.2z"/>
	</g>
	<g>
		<path d="M172.9,54.6h-7.6V34.3l-9.6-4.8l3.4-6.8l11.7,5.9c1.3,0.6,2.1,2,2.1,3.4V54.6z"/>
	</g>
	<g>
		<path d="M169.1,137.8c-1.6,0-2.9-1.3-2.9-2.9V95.4c0-1.6,1.3-2.9,2.9-2.9c1.6,0,2.9,1.3,2.9,2.9v39.5
			C172,136.5,170.7,137.8,169.1,137.8z"/>
	</g>
	<g>
		<path d="M206.1,165.1H156c-1.6,0-2.9-1.3-2.9-2.9v-19.8c0-1.6,1.3-2.9,2.9-2.9h50.1c1.6,0,2.9,1.3,2.9,2.9v19.8
			C209,163.8,207.7,165.1,206.1,165.1z M158.9,159.2h44.2v-13.9h-44.2V159.2z"/>
	</g>
</g>
</svg>
