<?xml version="1.0" encoding="utf-8"?>
<!-- Generator: Adobe Illustrator 27.9.0, SVG Export Plug-In . SVG Version: 6.00 Build 0)  -->
<svg version="1.1" id="Capa_1" xmlns="http://www.w3.org/2000/svg" xmlns:xlink="http://www.w3.org/1999/xlink" x="0px" y="0px"
	 viewBox="0 0 334 194" style="enable-background:new 0 0 334 194;" xml:space="preserve">
<g>
	<g>
		<path d="M232.3,129.1c-1.8,0-3.2-1.4-3.2-3.2V83.3c0-1.8,1.4-3.2,3.2-3.2s3.2,1.4,3.2,3.2v42.6
			C235.5,127.6,234.1,129.1,232.3,129.1z"/>
	</g>
	<g>
		<path d="M308.2,147.6h-57.1c-1.8,0-3.2-1.4-3.2-3.2c0-1.8,1.4-3.2,3.2-3.2h53.9v-12.4h-6.9c-1.8,0-3.2-1.4-3.2-3.2V79l-21.2-30.1
			h-38.3v25.1c0,1.8-1.4,3.2-3.2,3.2s-3.2-1.4-3.2-3.2V45.7c0-1.8,1.4-3.2,3.2-3.2h43.1c1,0,2,0.5,2.6,1.3l22.7,32.3
			c0.4,0.5,0.6,1.2,0.6,1.8v44.5h6.9c1.8,0,3.2,1.4,3.2,3.2v18.8C311.4,146.2,310,147.6,308.2,147.6z"/>
	</g>
	<g>
		<path d="M213.6,147.9c-1.8,0-3.2-1.4-3.2-3.2v-99c0-1.8,1.4-3.2,3.2-3.2h18.6c1.8,0,3.2,1.4,3.2,3.2c0,1.8-1.4,3.2-3.2,3.2h-15.4
			v95.8C216.8,146.5,215.4,147.9,213.6,147.9z"/>
	</g>
	<g>
		<path d="M298.2,95.9h-46.9c-1.8,0-3.2-1.4-3.2-3.2V64.5c0-1.8,1.4-3.2,3.2-3.2h37.5c1.8,0,3.2,1.4,3.2,3.2c0,1.8-1.4,3.2-3.2,3.2
			h-34.3v21.9h43.8c1.8,0,3.2,1.4,3.2,3.2C301.4,94.5,299.9,95.9,298.2,95.9z"/>
	</g>
	<g>
		<path d="M298.2,128.8h-65.8c-1.8,0-3.2-1.4-3.2-3.2c0-1.8,1.4-3.2,3.2-3.2h65.8c1.8,0,3.2,1.4,3.2,3.2
			C301.4,127.4,299.9,128.8,298.2,128.8z"/>
	</g>
	<g>
		<path d="M73,166.4c-12.1,0-21.9-9.8-21.9-21.9c0-12.1,9.8-21.9,21.9-21.9S95,132.4,95,144.5C95,156.6,85.1,166.4,73,166.4z
			 M73,128.9c-8.6,0-15.6,7-15.6,15.6c0,8.6,7,15.6,15.6,15.6c8.6,0,15.6-7,15.6-15.6C88.6,135.9,81.6,128.9,73,128.9z"/>
	</g>
	<g>
		<path d="M232.3,166.4c-12.1,0-21.9-9.8-21.9-21.9c0-12.1,9.8-21.9,21.9-21.9s21.9,9.8,21.9,21.9
			C254.3,156.6,244.4,166.4,232.3,166.4z M232.3,128.9c-8.6,0-15.6,7-15.6,15.6c0,8.6,7,15.6,15.6,15.6c8.6,0,15.6-7,15.6-15.6
			C248,135.9,241,128.9,232.3,128.9z"/>
	</g>
	<g>
		<path d="M213.6,128.9h-88.8c-1.8,0-3.2-1.4-3.2-3.2c0-1.8,1.4-3.2,3.2-3.2h88.8c1.8,0,3.2,1.4,3.2,3.2
			C216.7,127.4,215.3,128.9,213.6,128.9z"/>
	</g>
	<g>
		<path d="M54.2,147.6H25.8c-1.8,0-3.2-1.4-3.2-3.2v-4.1c0-0.8,0.3-1.6,0.9-2.2l14.6-14.6c0.6-0.6,1.4-0.9,2.2-0.9h95.3
			c1.8,0,3.2,1.4,3.2,3.2c0,1.8-1.4,3.2-3.2,3.2h-94l-12.4,12.4h25c1.8,0,3.2,1.4,3.2,3.2C57.4,146.2,56,147.6,54.2,147.6z"/>
	</g>
	<g>
		<path d="M213.6,147.6H91.8c-1.8,0-3.2-1.4-3.2-3.2c0-1.8,1.4-3.2,3.2-3.2h121.8c1.8,0,3.2,1.4,3.2,3.2
			C216.7,146.2,215.3,147.6,213.6,147.6z"/>
	</g>
	<g>
		<path d="M40.4,128.9c-1.8,0-3.2-1.4-3.2-3.2V89.9c0-1.8,1.4-3.2,3.2-3.2h163.8c1.8,0,3.2,1.4,3.2,3.2v35.8c0,1.8-1.4,3.2-3.2,3.2
			s-3.2-1.4-3.2-3.2V93H43.6v32.6C43.6,127.4,42.1,128.9,40.4,128.9z"/>
	</g>
	<g>
		<path d="M204.2,93c-1.8,0-3.2-1.4-3.2-3.2V30.8c0-1.8,1.4-3.2,3.2-3.2h9.4c1.8,0,3.2,1.4,3.2,3.2v15c0,1.8-1.4,3.2-3.2,3.2
			s-3.2-1.4-3.2-3.2V33.9h-3.1v55.9C207.4,91.6,206,93,204.2,93z"/>
	</g>
	<g>
		<path d="M189.6,104.2H52.1c-1.8,0-3.2-1.4-3.2-3.2c0-1.8,1.4-3.2,3.2-3.2h137.5c1.8,0,3.2,1.4,3.2,3.2
			C192.8,102.8,191.4,104.2,189.6,104.2z"/>
	</g>
	<g>
		<circle cx="73" cy="144.5" r="6.3"/>
	</g>
	<g>
		<circle cx="232.3" cy="144.5" r="6.3"/>
	</g>
</g>
</svg>
