<?xml version="1.0" encoding="utf-8"?>
<!-- Generator: Adobe Illustrator 27.9.0, SVG Export Plug-In . SVG Version: 6.00 Build 0)  -->
<svg version="1.1" id="Capa_1" xmlns="http://www.w3.org/2000/svg" xmlns:xlink="http://www.w3.org/1999/xlink" x="0px" y="0px"
	 viewBox="0 0 334 194" style="enable-background:new 0 0 334 194;" xml:space="preserve">
<g>
	<g>
		<path d="M232.3,121.6c-1.8,0-3.2-1.4-3.2-3.2V75.9c0-1.8,1.4-3.2,3.2-3.2s3.2,1.4,3.2,3.2v42.6
			C235.5,120.2,234.1,121.6,232.3,121.6z"/>
	</g>
	<g>
		<path d="M308.2,140.1h-57.1c-1.8,0-3.2-1.4-3.2-3.2s1.4-3.2,3.2-3.2h53.9v-12.4h-6.9c-1.8,0-3.2-1.4-3.2-3.2V71.5l-21.2-30.1
			h-38.3v25.1c0,1.8-1.4,3.2-3.2,3.2s-3.2-1.4-3.2-3.2V38.2c0-1.8,1.4-3.2,3.2-3.2h43.1c1,0,2,0.5,2.6,1.3l22.7,32.3
			c0.4,0.5,0.6,1.2,0.6,1.8V115h6.9c1.8,0,3.2,1.4,3.2,3.2v18.8C311.4,138.7,310,140.1,308.2,140.1z"/>
	</g>
	<g>
		<path d="M213.6,140.4c-1.8,0-3.2-1.4-3.2-3.2v-99c0-1.8,1.4-3.2,3.2-3.2h18.6c1.8,0,3.2,1.4,3.2,3.2c0,1.8-1.4,3.2-3.2,3.2h-15.4
			v95.8C216.8,139,215.4,140.4,213.6,140.4z"/>
	</g>
	<g>
		<path d="M298.2,88.4h-46.9c-1.8,0-3.2-1.4-3.2-3.2V57c0-1.8,1.4-3.2,3.2-3.2h37.5c1.8,0,3.2,1.4,3.2,3.2c0,1.8-1.4,3.2-3.2,3.2
			h-34.3v21.9h43.8c1.8,0,3.2,1.4,3.2,3.2C301.4,87,299.9,88.4,298.2,88.4z"/>
	</g>
	<g>
		<path d="M298.2,121.3h-65.8c-1.8,0-3.2-1.4-3.2-3.2s1.4-3.2,3.2-3.2h65.8c1.8,0,3.2,1.4,3.2,3.2S299.9,121.3,298.2,121.3z"/>
	</g>
	<g>
		<path d="M73,158.9c-12.1,0-21.9-9.8-21.9-21.9c0-12.1,9.8-21.9,21.9-21.9S95,124.9,95,137C95,149.1,85.1,158.9,73,158.9z
			 M73,121.4c-8.6,0-15.6,7-15.6,15.6s7,15.6,15.6,15.6c8.6,0,15.6-7,15.6-15.6S81.6,121.4,73,121.4z"/>
	</g>
	<g>
		<path d="M232.3,158.9c-12.1,0-21.9-9.8-21.9-21.9c0-12.1,9.8-21.9,21.9-21.9s21.9,9.8,21.9,21.9
			C254.3,149.1,244.4,158.9,232.3,158.9z M232.3,121.4c-8.6,0-15.6,7-15.6,15.6s7,15.6,15.6,15.6c8.6,0,15.6-7,15.6-15.6
			S241,121.4,232.3,121.4z"/>
	</g>
	<g>
		<path d="M213.6,121.4h-88.8c-1.8,0-3.2-1.4-3.2-3.2c0-1.8,1.4-3.2,3.2-3.2h88.8c1.8,0,3.2,1.4,3.2,3.2
			C216.7,120,215.3,121.4,213.6,121.4z"/>
	</g>
	<g>
		<path d="M54.2,140.2H25.8c-1.8,0-3.2-1.4-3.2-3.2v-4.1c0-0.8,0.3-1.6,0.9-2.2L38.2,116c0.6-0.6,1.4-0.9,2.2-0.9h103.3
			c1.8,0,3.2,1.4,3.2,3.2c0,1.8-1.4,3.2-3.2,3.2h-102l-12.4,12.4h25c1.8,0,3.2,1.4,3.2,3.2S56,140.2,54.2,140.2z"/>
	</g>
	<g>
		<path d="M213.6,140.2H91.8c-1.8,0-3.2-1.4-3.2-3.2s1.4-3.2,3.2-3.2h121.8c1.8,0,3.2,1.4,3.2,3.2S215.3,140.2,213.6,140.2z"/>
	</g>
	<g>
		<circle cx="73" cy="137.2" r="6.3"/>
	</g>
	<g>
		<circle cx="232.3" cy="137.2" r="6.3"/>
	</g>
</g>
</svg>
