<?xml version="1.0" encoding="utf-8"?>
<!-- Generator: Adobe Illustrator 27.9.0, SVG Export Plug-In . SVG Version: 6.00 Build 0)  -->
<svg version="1.1" id="Capa_1" xmlns="http://www.w3.org/2000/svg" xmlns:xlink="http://www.w3.org/1999/xlink" x="0px" y="0px"
	 viewBox="0 0 334 194" style="enable-background:new 0 0 334 194;" xml:space="preserve">
<g>
	<g>
		<g>
			<path d="M162.5,107.3c-1.8,0-3.2-1.4-3.2-3.2V58.4c0-1.8,1.4-3.2,3.2-3.2s3.2,1.4,3.2,3.2v45.7
				C165.7,105.9,164.3,107.3,162.5,107.3z M143.9,107.3c-1.8,0-3.2-1.4-3.2-3.2V58.4c0-1.8,1.4-3.2,3.2-3.2s3.2,1.4,3.2,3.2v45.7
				C147.1,105.9,145.7,107.3,143.9,107.3z M125.4,107.3c-1.8,0-3.2-1.4-3.2-3.2V58.4c0-1.8,1.4-3.2,3.2-3.2s3.2,1.4,3.2,3.2v45.7
				C128.5,105.9,127.1,107.3,125.4,107.3z M106.8,107.3c-1.8,0-3.2-1.4-3.2-3.2V58.4c0-1.8,1.4-3.2,3.2-3.2c1.8,0,3.2,1.4,3.2,3.2
				v45.7C110,105.9,108.5,107.3,106.8,107.3z M88.2,107.3c-1.8,0-3.2-1.4-3.2-3.2V58.4c0-1.8,1.4-3.2,3.2-3.2s3.2,1.4,3.2,3.2v45.7
				C91.4,105.9,90,107.3,88.2,107.3z M69.6,107.3c-1.8,0-3.2-1.4-3.2-3.2V58.4c0-1.8,1.4-3.2,3.2-3.2s3.2,1.4,3.2,3.2v45.7
				C72.8,105.9,71.4,107.3,69.6,107.3z"/>
		</g>
		<g>
			<path d="M184.4,72.5c-1.8,0-3.2-1.4-3.2-3.2v-5.7c0-1.2,0.7-2.3,1.8-2.8c-1-0.5-1.8-1.6-1.8-2.8v-5.7c0-1.8,1.4-3.2,3.2-3.2
				s3.2,1.4,3.2,3.2V58c0,1.2-0.7,2.3-1.8,2.8c1,0.5,1.8,1.6,1.8,2.8v5.7C187.5,71.1,186.1,72.5,184.4,72.5z"/>
		</g>
	</g>
	<g>
		<g>
			<path d="M232.3,130.2c-1.8,0-3.2-1.4-3.2-3.2V84.5c0-1.8,1.4-3.2,3.2-3.2s3.2,1.4,3.2,3.2V127
				C235.5,128.8,234.1,130.2,232.3,130.2z"/>
		</g>
		<g>
			<path d="M308.2,148.7h-57.1c-1.8,0-3.2-1.4-3.2-3.2s1.4-3.2,3.2-3.2h53.9V130h-6.9c-1.8,0-3.2-1.4-3.2-3.2V80.1L273.8,50h-38.3
				v25.1c0,1.8-1.4,3.2-3.2,3.2s-3.2-1.4-3.2-3.2V46.9c0-1.8,1.4-3.2,3.2-3.2h43.1c1,0,2,0.5,2.6,1.3l22.7,32.3
				c0.4,0.5,0.6,1.2,0.6,1.8v44.5h6.9c1.8,0,3.2,1.4,3.2,3.2v18.8C311.4,147.3,310,148.7,308.2,148.7z"/>
		</g>
		<g>
			<path d="M213.6,149c-1.8,0-3.2-1.4-3.2-3.2v-99c0-1.8,1.4-3.2,3.2-3.2h18.6c1.8,0,3.2,1.4,3.2,3.2S234,50,232.2,50h-15.4v95.8
				C216.8,147.6,215.4,149,213.6,149z"/>
		</g>
		<g>
			<path d="M298.2,97h-46.9c-1.8,0-3.2-1.4-3.2-3.2V65.7c0-1.8,1.4-3.2,3.2-3.2h37.5c1.8,0,3.2,1.4,3.2,3.2c0,1.8-1.4,3.2-3.2,3.2
				h-34.3v21.9h43.8c1.8,0,3.2,1.4,3.2,3.2C301.4,95.6,299.9,97,298.2,97z"/>
		</g>
		<g>
			<path d="M298.2,130h-65.8c-1.8,0-3.2-1.4-3.2-3.2c0-1.8,1.4-3.2,3.2-3.2h65.8c1.8,0,3.2,1.4,3.2,3.2
				C301.4,128.5,299.9,130,298.2,130z"/>
		</g>
		<g>
			<path d="M73,167.6c-12.1,0-21.9-9.8-21.9-21.9c0-12.1,9.8-21.9,21.9-21.9S95,133.5,95,145.6C95,157.7,85.1,167.6,73,167.6z
				 M73,130c-8.6,0-15.6,7-15.6,15.6s7,15.6,15.6,15.6c8.6,0,15.6-7,15.6-15.6S81.6,130,73,130z"/>
		</g>
		<g>
			<path d="M232.3,167.6c-12.1,0-21.9-9.8-21.9-21.9c0-12.1,9.8-21.9,21.9-21.9s21.9,9.8,21.9,21.9
				C254.3,157.7,244.4,167.6,232.3,167.6z M232.3,130c-8.6,0-15.6,7-15.6,15.6s7,15.6,15.6,15.6c8.6,0,15.6-7,15.6-15.6
				S241,130,232.3,130z"/>
		</g>
		<g>
			<path d="M213.6,130h-88.8c-1.8,0-3.2-1.4-3.2-3.2c0-1.8,1.4-3.2,3.2-3.2h88.8c1.8,0,3.2,1.4,3.2,3.2
				C216.7,128.6,215.3,130,213.6,130z"/>
		</g>
		<g>
			<path d="M54.2,148.8H25.8c-1.8,0-3.2-1.4-3.2-3.2v-4.1c0-0.8,0.3-1.6,0.9-2.2l14.6-14.6c0.6-0.6,1.4-0.9,2.2-0.9h103.3
				c1.8,0,3.2,1.4,3.2,3.2c0,1.8-1.4,3.2-3.2,3.2h-102l-12.4,12.4h25c1.8,0,3.2,1.4,3.2,3.2S56,148.8,54.2,148.8z"/>
		</g>
		<g>
			<path d="M213.6,148.8H91.8c-1.8,0-3.2-1.4-3.2-3.2s1.4-3.2,3.2-3.2h121.8c1.8,0,3.2,1.4,3.2,3.2S215.3,148.8,213.6,148.8z"/>
		</g>
		<g>
			<circle cx="73" cy="145.9" r="6.3"/>
		</g>
		<g>
			<circle cx="232.3" cy="145.9" r="6.3"/>
		</g>
	</g>
	<g>
		<path d="M39.1,130c-1.8,0-3.2-1.4-3.2-3.2V29.6c0-1.8,1.4-3.2,3.2-3.2h164.4c1.8,0,3.2,1.4,3.2,3.2v97.2c0,1.8-1.4,3.2-3.2,3.2
			s-3.2-1.4-3.2-3.2v-94h-158v94.1C42.3,128.6,40.9,130,39.1,130z"/>
	</g>
</g>
</svg>
