<?xml version="1.0" encoding="utf-8"?>
<!-- Generator: Adobe Illustrator 27.9.0, SVG Export Plug-In . SVG Version: 6.00 Build 0)  -->
<svg version="1.1" id="Capa_1" xmlns="http://www.w3.org/2000/svg" xmlns:xlink="http://www.w3.org/1999/xlink" x="0px" y="0px"
	 viewBox="0 0 334 194" style="enable-background:new 0 0 334 194;" xml:space="preserve">
<g>
	<g>
		<path d="M184.4,72.5c-1.8,0-3.2-1.4-3.2-3.2v-5.7c0-1.2,0.7-2.3,1.8-2.8c-1-0.5-1.8-1.6-1.8-2.8v-5.7c0-1.8,1.4-3.2,3.2-3.2
			s3.2,1.4,3.2,3.2V58c0,1.2-0.7,2.3-1.8,2.8c1,0.5,1.8,1.6,1.8,2.8v5.7C187.5,71.1,186.1,72.5,184.4,72.5z"/>
	</g>
	<g>
		<g>
			<path d="M232.3,130.2c-1.8,0-3.2-1.4-3.2-3.2V84.5c0-1.8,1.4-3.2,3.2-3.2s3.2,1.4,3.2,3.2V127
				C235.5,128.8,234.1,130.2,232.3,130.2z"/>
		</g>
		<g>
			<path d="M308.2,148.7h-57.1c-1.8,0-3.2-1.4-3.2-3.2c0-1.8,1.4-3.2,3.2-3.2h53.9V130h-6.9c-1.8,0-3.2-1.4-3.2-3.2V80.1L273.8,50
				h-38.3v25.1c0,1.8-1.4,3.2-3.2,3.2s-3.2-1.4-3.2-3.2V46.9c0-1.8,1.4-3.2,3.2-3.2h43.1c1,0,2,0.5,2.6,1.3l22.7,32.3
				c0.4,0.5,0.6,1.2,0.6,1.8v44.5h6.9c1.8,0,3.2,1.4,3.2,3.2v18.8C311.4,147.3,310,148.7,308.2,148.7z"/>
		</g>
		<g>
			<path d="M213.6,149c-1.8,0-3.2-1.4-3.2-3.2v-99c0-1.8,1.4-3.2,3.2-3.2h18.6c1.8,0,3.2,1.4,3.2,3.2S234,50,232.2,50h-15.4v95.8
				C216.8,147.6,215.4,149,213.6,149z"/>
		</g>
		<g>
			<path d="M298.2,97h-46.9c-1.8,0-3.2-1.4-3.2-3.2V65.7c0-1.8,1.4-3.2,3.2-3.2h37.5c1.8,0,3.2,1.4,3.2,3.2c0,1.8-1.4,3.2-3.2,3.2
				h-34.3v21.9h43.8c1.8,0,3.2,1.4,3.2,3.2S299.9,97,298.2,97z"/>
		</g>
		<g>
			<path d="M298.2,130h-65.8c-1.8,0-3.2-1.4-3.2-3.2c0-1.8,1.4-3.2,3.2-3.2h65.8c1.8,0,3.2,1.4,3.2,3.2
				C301.4,128.5,299.9,130,298.2,130z"/>
		</g>
		<g>
			<path d="M73,167.6c-12.1,0-21.9-9.8-21.9-21.9c0-12.1,9.8-21.9,21.9-21.9S95,133.5,95,145.6C95,157.7,85.1,167.6,73,167.6z
				 M73,130c-8.6,0-15.6,7-15.6,15.6c0,8.6,7,15.6,15.6,15.6c8.6,0,15.6-7,15.6-15.6C88.6,137,81.6,130,73,130z"/>
		</g>
		<g>
			<path d="M232.3,167.6c-12.1,0-21.9-9.8-21.9-21.9c0-12.1,9.8-21.9,21.9-21.9s21.9,9.8,21.9,21.9
				C254.3,157.7,244.4,167.6,232.3,167.6z M232.3,130c-8.6,0-15.6,7-15.6,15.6c0,8.6,7,15.6,15.6,15.6c8.6,0,15.6-7,15.6-15.6
				C248,137,241,130,232.3,130z"/>
		</g>
		<g>
			<path d="M213.6,130h-88.8c-1.8,0-3.2-1.4-3.2-3.2c0-1.8,1.4-3.2,3.2-3.2h88.8c1.8,0,3.2,1.4,3.2,3.2
				C216.7,128.6,215.3,130,213.6,130z"/>
		</g>
		<g>
			<path d="M54.2,148.8H25.8c-1.8,0-3.2-1.4-3.2-3.2v-4.1c0-0.8,0.3-1.6,0.9-2.2l14.6-14.6c0.6-0.6,1.4-0.9,2.2-0.9h103.3
				c1.8,0,3.2,1.4,3.2,3.2c0,1.8-1.4,3.2-3.2,3.2h-102l-12.4,12.4h25c1.8,0,3.2,1.4,3.2,3.2C57.4,147.4,56,148.8,54.2,148.8z"/>
		</g>
		<g>
			<path d="M213.6,148.8H91.8c-1.8,0-3.2-1.4-3.2-3.2c0-1.8,1.4-3.2,3.2-3.2h121.8c1.8,0,3.2,1.4,3.2,3.2
				C216.7,147.4,215.3,148.8,213.6,148.8z"/>
		</g>
		<g>
			<circle cx="73" cy="145.9" r="6.3"/>
		</g>
		<g>
			<circle cx="232.3" cy="145.9" r="6.3"/>
		</g>
	</g>
	<g>
		<path d="M39.1,130c-1.8,0-3.2-1.4-3.2-3.2V29.6c0-1.8,1.4-3.2,3.2-3.2h164.4c1.8,0,3.2,1.4,3.2,3.2v97.2c0,1.8-1.4,3.2-3.2,3.2
			s-3.2-1.4-3.2-3.2v-94h-158v94.1C42.3,128.6,40.9,130,39.1,130z"/>
	</g>
	<g>
		<g>
			<path d="M121.9,102.2c-1.4,0-2.5-1.1-2.5-2.5V86.2c0-1.4,1.1-2.5,2.5-2.5c1.4,0,2.5,1.1,2.5,2.5v13.5
				C124.4,101.1,123.3,102.2,121.9,102.2z"/>
		</g>
		<g>
			<path d="M121.9,75.7c-1.4,0-2.5-1.1-2.5-2.5V59.7c0-1.4,1.1-2.5,2.5-2.5c1.4,0,2.5,1.1,2.5,2.5v13.5
				C124.4,74.6,123.3,75.7,121.9,75.7z"/>
		</g>
		<g>
			<path d="M121.9,62.2C121.9,62.2,121.9,62.2,121.9,62.2c-0.8,0-1.5-0.4-2-1l-4.2-5.5c-0.8-1.1-0.6-2.7,0.5-3.6
				c1.1-0.8,2.7-0.6,3.6,0.5l2.2,2.9l2.2-2.9c0.8-1.1,2.4-1.3,3.6-0.5c1.1,0.8,1.3,2.4,0.5,3.6l-4.2,5.5
				C123.4,61.8,122.7,62.2,121.9,62.2z"/>
		</g>
		<g>
			<path d="M126.1,107.9c-0.8,0-1.5-0.3-2-1l-2.2-2.9l-2.2,2.9c-0.8,1.1-2.4,1.3-3.6,0.5c-1.1-0.8-1.3-2.4-0.5-3.6l4.2-5.5
				c0.5-0.6,1.2-1,2-1c0,0,0,0,0,0c0.8,0,1.5,0.4,2,1l4.2,5.5c0.8,1.1,0.6,2.7-0.5,3.6C127.2,107.7,126.6,107.9,126.1,107.9z"/>
		</g>
		<g>
			<path d="M115.3,82.2h-13.5c-1.4,0-2.5-1.1-2.5-2.5s1.1-2.5,2.5-2.5h13.5c1.4,0,2.5,1.1,2.5,2.5S116.7,82.2,115.3,82.2z"/>
		</g>
		<g>
			<path d="M141.4,82.2h-12.2c-1.4,0-2.5-1.1-2.5-2.5s1.1-2.5,2.5-2.5h12.2c1.4,0,2.5,1.1,2.5,2.5S142.8,82.2,141.4,82.2z"/>
		</g>
		<g>
			<path d="M96.3,86.5c-0.8,0-1.5-0.3-2-1c-0.8-1.1-0.6-2.7,0.5-3.6l2.9-2.2l-2.9-2.2c-1.1-0.8-1.3-2.4-0.5-3.6
				c0.8-1.1,2.4-1.3,3.6-0.5l5.5,4.2c0.6,0.5,1,1.2,1,2c0,0.8-0.4,1.5-1,2L97.8,86C97.3,86.3,96.8,86.5,96.3,86.5z"/>
		</g>
		<g>
			<path d="M147.5,86.5c-0.5,0-1.1-0.2-1.5-0.5l-5.5-4.2c-0.6-0.5-1-1.2-1-2c0-0.8,0.4-1.5,1-2l5.5-4.2c1.1-0.8,2.7-0.6,3.6,0.5
				c0.8,1.1,0.6,2.7-0.5,3.6l-2.9,2.2l2.9,2.2c1.1,0.8,1.3,2.4,0.5,3.6C149,86.2,148.2,86.5,147.5,86.5z"/>
		</g>
		<g>
			<path d="M121.9,73.7c-0.6,0-1.3-0.2-1.8-0.7l-12-11.5c-1-1-1-2.6-0.1-3.6c1-1,2.6-1,3.6-0.1l10.2,9.8l10.3-9.8
				c1-1,2.6-0.9,3.6,0.1c1,1,0.9,2.6-0.1,3.6l-12,11.5C123.1,73.5,122.5,73.7,121.9,73.7z"/>
		</g>
		<g>
			<path d="M109.9,102c-0.7,0-1.3-0.3-1.8-0.8c-1-1-0.9-2.6,0.1-3.6l12-11.5c1-0.9,2.5-0.9,3.5,0l12,11.5c1,1,1,2.6,0.1,3.6
				c-1,1-2.6,1-3.6,0.1l-10.2-9.8l-10.3,9.8C111.1,101.8,110.5,102,109.9,102z"/>
		</g>
		<g>
			<path d="M106.4,91.5c-0.6,0-1.3-0.2-1.8-0.7c-1-1-1-2.6-0.1-3.6l7.3-7.6l-7.3-7.6c-1-1-0.9-2.6,0.1-3.6c1-1,2.6-0.9,3.6,0.1
				l9,9.4c0.9,1,0.9,2.5,0,3.5l-9,9.3C107.7,91.2,107.1,91.5,106.4,91.5z"/>
		</g>
		<g>
			<path d="M137.4,91.5c-0.7,0-1.3-0.3-1.8-0.8l-9-9.4c-0.9-1-0.9-2.5,0-3.5l9-9.3c1-1,2.6-1,3.6-0.1c1,1,1,2.6,0.1,3.6l-7.3,7.6
				l7.3,7.6c1,1,0.9,2.6-0.1,3.6C138.6,91.2,138,91.5,137.4,91.5z"/>
		</g>
		<g>
			<path d="M121.9,88.8c-5,0-9.1-4.1-9.1-9.1s4.1-9.1,9.1-9.1c5,0,9.1,4.1,9.1,9.1S126.9,88.8,121.9,88.8z M121.9,75.7
				c-2.2,0-4,1.8-4,4s1.8,4,4,4c2.2,0,4-1.8,4-4S124.1,75.7,121.9,75.7z"/>
		</g>
	</g>
</g>
</svg>
