<?xml version="1.0" encoding="utf-8"?>
<!-- Generator: Adobe Illustrator 27.9.0, SVG Export Plug-In . SVG Version: 6.00 Build 0)  -->
<svg version="1.1" id="Capa_1" xmlns="http://www.w3.org/2000/svg" xmlns:xlink="http://www.w3.org/1999/xlink" x="0px" y="0px"
	 viewBox="0 0 334 194" style="enable-background:new 0 0 334 194;" xml:space="preserve">
<g>
	<g>
		<path d="M189.6,123.3H52.1c-1.8,0-3.2-1.4-3.2-3.2s1.4-3.2,3.2-3.2h137.5c1.8,0,3.2,1.4,3.2,3.2S191.4,123.3,189.6,123.3z"/>
	</g>
	<g>
		<path d="M232.3,135.9c-1.8,0-3.2-1.4-3.2-3.2V90.2c0-1.8,1.4-3.2,3.2-3.2s3.2,1.4,3.2,3.2v42.6
			C235.5,134.5,234.1,135.9,232.3,135.9z"/>
	</g>
	<g>
		<path d="M308.2,154.4h-57.1c-1.8,0-3.2-1.4-3.2-3.2s1.4-3.2,3.2-3.2h53.9v-12.4h-6.9c-1.8,0-3.2-1.4-3.2-3.2V85.8l-21.2-30.1
			h-38.3v25.1c0,1.8-1.4,3.2-3.2,3.2s-3.2-1.4-3.2-3.2V52.6c0-1.8,1.4-3.2,3.2-3.2h43.1c1,0,2,0.5,2.6,1.3L300.8,83
			c0.4,0.5,0.6,1.2,0.6,1.8v44.5h6.9c1.8,0,3.2,1.4,3.2,3.2v18.8C311.4,153,310,154.4,308.2,154.4z"/>
	</g>
	<g>
		<path d="M213.6,154.7c-1.8,0-3.2-1.4-3.2-3.2v-99c0-1.8,1.4-3.2,3.2-3.2h18.6c1.8,0,3.2,1.4,3.2,3.2s-1.4,3.2-3.2,3.2h-15.4v95.8
			C216.8,153.3,215.4,154.7,213.6,154.7z"/>
	</g>
	<g>
		<path d="M298.2,102.7h-46.9c-1.8,0-3.2-1.4-3.2-3.2V71.4c0-1.8,1.4-3.2,3.2-3.2h37.5c1.8,0,3.2,1.4,3.2,3.2c0,1.8-1.4,3.2-3.2,3.2
			h-34.3v21.9h43.8c1.8,0,3.2,1.4,3.2,3.2C301.4,101.3,299.9,102.7,298.2,102.7z"/>
	</g>
	<g>
		<path d="M298.2,135.7h-65.8c-1.8,0-3.2-1.4-3.2-3.2c0-1.8,1.4-3.2,3.2-3.2h65.8c1.8,0,3.2,1.4,3.2,3.2
			C301.4,134.2,299.9,135.7,298.2,135.7z"/>
	</g>
	<g>
		<path d="M232.3,173.3c-12.1,0-21.9-9.8-21.9-21.9c0-12.1,9.8-21.9,21.9-21.9s21.9,9.8,21.9,21.9
			C254.3,163.4,244.4,173.3,232.3,173.3z M232.3,135.7c-8.6,0-15.6,7-15.6,15.6s7,15.6,15.6,15.6c8.6,0,15.6-7,15.6-15.6
			S241,135.7,232.3,135.7z"/>
	</g>
	<g>
		<path d="M213.6,135.7h-71.3c-1.8,0-3.2-1.4-3.2-3.2c0-1.8,1.4-3.2,3.2-3.2h71.3c1.8,0,3.2,1.4,3.2,3.2
			C216.7,134.3,215.3,135.7,213.6,135.7z"/>
	</g>
	<g>
		<path d="M54.2,154.5H25.8c-1.8,0-3.2-1.4-3.2-3.2v-4.1c0-0.8,0.3-1.6,0.9-2.2l14.6-14.6c0.6-0.6,1.4-0.9,2.2-0.9h100
			c1.8,0,3.2,1.4,3.2,3.2c0,1.8-1.4,3.2-3.2,3.2H41.7l-12.4,12.4h25c1.8,0,3.2,1.4,3.2,3.2S56,154.5,54.2,154.5z"/>
	</g>
	<g>
		<path d="M121.6,154.5H91.8c-1.8,0-3.2-1.4-3.2-3.2s1.4-3.2,3.2-3.2h29.9c1.8,0,3.2,1.4,3.2,3.2S123.4,154.5,121.6,154.5z"/>
	</g>
	<g>
		<path d="M213.6,154.5h-54.4c-1.8,0-3.2-1.4-3.2-3.2s1.4-3.2,3.2-3.2h54.4c1.8,0,3.2,1.4,3.2,3.2S215.3,154.5,213.6,154.5z"/>
	</g>
	<g>
		<g>
			<path d="M73,173.3c-12.1,0-21.9-9.8-21.9-21.9c0-12.1,9.8-21.9,21.9-21.9S95,139.2,95,151.3C95,163.4,85.1,173.3,73,173.3z
				 M73,135.7c-8.6,0-15.6,7-15.6,15.6s7,15.6,15.6,15.6c8.6,0,15.6-7,15.6-15.6S81.6,135.7,73,135.7z"/>
		</g>
		<g>
			<circle cx="73" cy="151.6" r="6.3"/>
		</g>
	</g>
	<g>
		<g>
			<path d="M140.4,173.3c-12.1,0-21.9-9.8-21.9-21.9c0-12.1,9.8-21.9,21.9-21.9s21.9,9.8,21.9,21.9
				C162.4,163.4,152.5,173.3,140.4,173.3z M140.4,135.7c-8.6,0-15.6,7-15.6,15.6s7,15.6,15.6,15.6c8.6,0,15.6-7,15.6-15.6
				S149,135.7,140.4,135.7z"/>
		</g>
		<g>
			<circle cx="140.4" cy="151.6" r="6.3"/>
		</g>
	</g>
	<g>
		<circle cx="232.3" cy="151.6" r="6.3"/>
	</g>
	<g id="g1511_00000171705865897445834950000014133857762686639538_" transform="translate(93,232.1001)">
		<g id="path1513_00000008124607855158632920000001351603131650749825_">
			<path d="M-51.5-121.2c-1.8,0-3.2-1.4-3.2-3.2v-38.2c0-1.8,1.4-3.2,3.2-3.2c1.8,0,3.2,1.4,3.2,3.2v38.2
				C-48.4-122.6-49.8-121.2-51.5-121.2z"/>
		</g>
	</g>
	<g id="g1515_00000117661620379566015950000016830870909434669448_" transform="translate(165.2598,232.1001)">
		<g id="path1517_00000009568501722206720580000014583095171797773187_">
			<path d="M-70.6-121.2c-1.8,0-3.2-1.4-3.2-3.2v-38.2c0-1.8,1.4-3.2,3.2-3.2s3.2,1.4,3.2,3.2v38.2
				C-67.4-122.6-68.8-121.2-70.6-121.2z"/>
		</g>
	</g>
	<g id="g1519_00000067203263938099088800000004808258507890018708_" transform="translate(237.52,232.1001)">
		<g id="path1521_00000114074857951848341390000004649626306171004323_">
			<path d="M-90.2-121.2c-1.8,0-3.2-1.4-3.2-3.2v-38.2c0-1.8,1.4-3.2,3.2-3.2c1.8,0,3.2,1.4,3.2,3.2v38.2
				C-87-122.6-88.5-121.2-90.2-121.2z"/>
		</g>
	</g>
	<g id="g1523_00000170255228848769023080000000463413390701097147_" transform="translate(309.7798,307.3599)">
		<g id="path1525_00000052798430539080133410000004754261909444597934_">
			<path d="M-127.3-233.1c-1.8,0-3.2-1.4-3.2-3.2V-247c0-1.8,1.4-3.2,3.2-3.2s3.2,1.4,3.2,3.2v10.7
				C-124.1-234.5-125.5-233.1-127.3-233.1z"/>
		</g>
	</g>
	<g id="g1527_00000134946027260398479080000014155141145059464327_" transform="translate(309.7808,232.0967)">
		<g id="path1529_00000124853702793329840630000013888966699430810790_">
			<path d="M-127.3-121.2c-1.8,0-3.2-1.4-3.2-3.2v-19.6c0-1.8,1.4-3.2,3.2-3.2c1.8,0,3.2,1.4,3.2,3.2v19.6
				C-124.1-122.6-125.5-121.2-127.3-121.2z"/>
		</g>
	</g>
	<g id="g1599_00000136413890683363368640000004586018871392317115_" transform="translate(170.5806,362.2886)">
		<g id="path1601_00000143579184953377268220000006319105529424565915_">
			<path d="M-134.7-289.6c-3.1,0-5.6-2.5-5.6-5.6v-11.2c0-3.1,2.4-5.5,5.5-5.6L6.8-321l24.8-19.8c0.6-0.4,1.3-0.7,2-0.7H80
				c3.1,0,5.6,2.5,5.6,5.6v11.2c0,3.1-2.5,5.6-5.6,5.6H39.7L15-299.4c-0.5,0.4-1.1,0.6-1.8,0.7l-147.7,9.1
				C-134.6-289.6-134.6-289.6-134.7-289.6z M-134-305.7v9.7l145.8-9l24.8-19.8c0.6-0.4,1.3-0.7,2-0.7h40.7v-9.7H34.7L10-315.5
				c-0.5,0.4-1.1,0.6-1.8,0.7L-134-305.7z M8-317.9L8-317.9L8-317.9z"/>
		</g>
	</g>
	<g>
		<path d="M213.6,55.7c-1.8,0-3.2-1.4-3.2-3.2V39.9c0-1.8,1.4-3.2,3.2-3.2s3.2,1.4,3.2,3.2v12.6C216.8,54.3,215.4,55.7,213.6,55.7z"
			/>
	</g>
	<g>
		<path d="M41.5,135.7c-1.8,0-3.2-1.4-3.2-3.2v-24.7c0-1.8,1.4-3.2,3.2-3.2h172.2c1.8,0,3.2,1.4,3.2,3.2s-1.4,3.2-3.2,3.2h-169v21.5
			C44.6,134.2,43.2,135.7,41.5,135.7z"/>
	</g>
</g>
</svg>
